<?xml version="1.0" encoding="UTF-8"?>
<svg version="1.1" xmlns="http://www.w3.org/2000/svg" width="225" height="225">
<path d="M0 0 C74.25 0 148.5 0 225 0 C225 74.25 225 148.5 225 225 C150.75 225 76.5 225 0 225 C0 150.75 0 76.5 0 0 Z " fill="#181818" transform="translate(0,0)"/>
<path d="M0 0 C7.59 0 15.18 0 23 0 C23 7.59 23 15.18 23 23 C15.41 23 7.82 23 0 23 C0 15.41 0 7.82 0 0 Z " fill="#F7F7F7" transform="translate(191,191)"/>
<path d="M0 0 C7.59 0 15.18 0 23 0 C23 7.59 23 15.18 23 23 C15.41 23 7.82 23 0 23 C0 15.41 0 7.82 0 0 Z " fill="#F9F9F9" transform="translate(146,146)"/>
<path d="M0 0 C7.59 0 15.18 0 23 0 C23 7.59 23 15.18 23 23 C15.41 23 7.82 23 0 23 C0 15.41 0 7.82 0 0 Z " fill="#F8F8F8" transform="translate(56,146)"/>
<path d="M0 0 C7.59 0 15.18 0 23 0 C23 7.59 23 15.18 23 23 C15.41 23 7.82 23 0 23 C0 15.41 0 7.82 0 0 Z " fill="#F8F8F8" transform="translate(146,56)"/>
<path d="M0 0 C7.59 0 15.18 0 23 0 C23 7.59 23 15.18 23 23 C15.41 23 7.82 23 0 23 C0 15.41 0 7.82 0 0 Z " fill="#F6F6F6" transform="translate(56,56)"/>
<path d="M0 0 C7.59 0 15.18 0 23 0 C23.020625 3.609375 23.04125 7.21875 23.0625 10.9375 C23.071604 12.07695068 23.08070801 13.21640137 23.09008789 14.39038086 C23.09258545 15.28120361 23.09508301 16.17202637 23.09765625 17.08984375 C23.10551147 18.46450806 23.10551147 18.46450806 23.11352539 19.86694336 C23 22 23 22 22 23 C20.36527118 23.08700342 18.72685945 23.10701063 17.08984375 23.09765625 C16.199021 23.09515869 15.30819824 23.09266113 14.39038086 23.09008789 C13.25093018 23.08098389 12.11147949 23.07187988 10.9375 23.0625 C7.328125 23.041875 3.71875 23.02125 0 23 C0 15.41 0 7.82 0 0 Z " fill="#F2F2F2" transform="translate(101,101)"/>
<path d="M0 0 C7.26 0 14.52 0 22 0 C22 7.59 22 15.18 22 23 C14.74 23 7.48 23 0 23 C0 15.41 0 7.82 0 0 Z " fill="#FBFBFB" transform="translate(11,191)"/>
<path d="M0 0 C7.59 0 15.18 0 23 0 C23 7.26 23 14.52 23 22 C15.41 22 7.82 22 0 22 C0 14.74 0 7.48 0 0 Z " fill="#FBFBFB" transform="translate(191,11)"/>
<path d="M0 0 C7.26 0 14.52 0 22 0 C22 7.26 22 14.52 22 22 C14.74 22 7.48 22 0 22 C0 14.74 0 7.48 0 0 Z " fill="#FFFFFF" transform="translate(11,11)"/>
</svg>
