<?xml version="1.0" encoding="UTF-8"?>
<svg version="1.1" xmlns="http://www.w3.org/2000/svg" width="200" height="200">
<path d="M0 0 C66 0 132 0 200 0 C200 66 200 132 200 200 C134 200 68 200 0 200 C0 134 0 68 0 0 Z " fill="#1C1C1C" transform="translate(0,0)"/>
<path d="M0 0 C0.99 0.66 1.98 1.32 3 2 C3.66 2 4.32 2 5 2 C7.08224423 8.85232562 7.34591601 15.23755017 7.3125 22.375 C7.31056641 24.08308838 7.31056641 24.08308838 7.30859375 25.82568359 C7.20030319 35.44865365 6.0381133 44.61012086 4 54 C3.34 54 2.68 54 2 54 C1.87044922 54.92619141 1.87044922 54.92619141 1.73828125 55.87109375 C0.6393759 62.49477096 -1.45680153 67.34414575 -5 73 C-5.48210937 73.84175781 -5.96421875 74.68351562 -6.4609375 75.55078125 C-18.40487839 95.68069138 -38.57547219 112.15160017 -61 119 C-61.94875 119.36996094 -62.8975 119.73992187 -63.875 120.12109375 C-80.46041776 125.99509587 -100.18252935 124.24996818 -117 120 C-118.30429776 119.70530098 -119.60899459 119.41236323 -120.9140625 119.12109375 C-132.56688762 116.40364797 -141.69819908 111.37856574 -151 104 C-152.11181641 103.18208984 -152.11181641 103.18208984 -153.24609375 102.34765625 C-162.1718741 95.70976564 -168.95805479 87.32185832 -175 78 C-175 77.34 -175 76.68 -175 76 C-175.66 76 -176.32 76 -177 76 C-178.00254592 73.66773001 -179.00264383 71.3344896 -180 69 C-180.26200195 68.38785645 -180.52400391 67.77571289 -180.79394531 67.14501953 C-181.58210051 65.28864141 -182.35468813 63.42634504 -183.125 61.5625 C-183.38925781 60.94568359 -183.65351563 60.32886719 -183.92578125 59.69335938 C-185.80344177 55.11358333 -186.55218808 50.93139219 -187 46 C-186.34 46 -185.68 46 -185 46 C-184.67 42.7 -184.34 39.4 -184 36 C-181 36 -181 36 -179 37 C-179 37.33 -179 37.66 -179 38 C-178.01 38.33 -177.02 38.66 -176 39 C-174.96986723 40.64821244 -173.96885372 42.31503702 -173 44 C-172.34 44.33 -171.68 44.66 -171 45 C-171 41.37 -171 37.74 -171 34 C-169.37459496 36.16720671 -167.76352581 38.34710845 -166.23828125 40.5859375 C-161.70403478 47.15277721 -157.21573495 52.39213253 -150 56 C-150 49.73 -150 43.46 -150 37 C-147.59466237 39.40533763 -145.83032109 41.57788427 -143.875 44.3125 C-136.15281548 54.17707112 -126.64714807 56.67224341 -115 60 C-115 51.42 -115 42.84 -115 34 C-113.39423636 36.40864545 -112.16123179 38.67753641 -110.875 41.25 C-106.39101636 49.25618528 -99.92598239 53.87795309 -91.40234375 57.11328125 C-80.20549669 60.03140327 -69.14888308 58.58529136 -59 53 C-51.54747245 48.10547225 -48.02817492 42.2780259 -45 34 C-44.67 34 -44.34 34 -44 34 C-44 41.92 -44 49.84 -44 58 C-32.80743588 52.98264367 -24.48507959 47.20864091 -19 36 C-18.67 36 -18.34 36 -18 36 C-18 40.62 -18 45.24 -18 50 C-17.34 50 -16.68 50 -16 50 C-15.731875 49.41992188 -15.46375 48.83984375 -15.1875 48.2421875 C-13.98204219 45.96609281 -12.61049783 44.1300698 -11 42.125 C-8.50943268 38.88118793 -7.00370669 36.01482676 -6 32 C-5.01 32.33 -4.02 32.66 -3 33 C-3.16113281 32.46503906 -3.32226562 31.93007812 -3.48828125 31.37890625 C-4.1028387 28.5219178 -4.16939801 25.85916175 -4.1875 22.9375 C-4.20167969 21.89464844 -4.21585938 20.85179687 -4.23046875 19.77734375 C-4 17 -4 17 -2 14 C-2.30791692 12.328451 -2.64386903 10.66194453 -3 9 C-2.5866113 5.61021264 -1.65463522 2.9783434 0 0 Z " fill="#1C1C1C" transform="translate(192,76)"/>
<path d="M0 0 C66 0 132 0 200 0 C200 66 200 132 200 200 C134 200 68 200 0 200 C0 134 0 68 0 0 Z M63.9375 7.6875 C63.07697021 8.0383667 62.21644043 8.3892334 61.32983398 8.75073242 C54.69026168 11.53523086 48.88991242 14.85291372 43 19 C42.12859375 19.515625 41.2571875 20.03125 40.359375 20.5625 C37.41533336 22.35622074 35.3848468 24.50423009 33 27 C32.33226563 27.64710937 31.66453125 28.29421875 30.9765625 28.9609375 C30.26242188 29.65445312 29.54828125 30.34796875 28.8125 31.0625 C28.13832031 31.71347656 27.46414062 32.36445312 26.76953125 33.03515625 C24.95120572 34.86800896 24.95120572 34.86800896 24.07421875 36.93359375 C23 39 23 39 20.65625 41.28515625 C3.36195268 58.96094543 1.59819891 85.21270023 1.62915039 108.49731445 C1.77913708 116.26587195 2.95922296 122.81186344 6 130 C6.50225491 131.28637728 7.00074195 132.57423001 7.49609375 133.86328125 C9.86489799 139.9651264 12.40982842 145.98957217 15 152 C15.66 152 16.32 152 17 152 C17.25523438 152.72703125 17.51046875 153.4540625 17.7734375 154.203125 C19.92709337 159.11400908 23.56795814 162.92520825 27 167 C28.00160156 168.2065625 28.00160156 168.2065625 29.0234375 169.4375 C39.16508415 181.30282572 54.32938806 191.44384965 69.5625 195.0625 C70.62718506 195.31628418 70.62718506 195.31628418 71.71337891 195.57519531 C73.8061856 196.06325043 75.90223863 196.53377318 78 197 C78.99644531 197.23074219 79.99289063 197.46148437 81.01953125 197.69921875 C97.16767547 200.81397707 115.6076255 201.0527306 131 195 C132.546875 194.50886719 132.546875 194.50886719 134.125 194.0078125 C158.05894198 185.97117022 178.70325235 166.21588814 190 144 C192.07464912 139.45261411 193.37826634 134.9738693 194 130 C194.66 130 195.32 130 196 130 C201.43463873 104.96184298 201.13701514 79.42336465 190 56 C189.34 56 188.68 56 188 56 C187.731875 54.948125 187.46375 53.89625 187.1875 52.8125 C186.12747781 49.40927088 185.08611696 46.86841082 183 44 C182.34 44 181.68 44 181 44 C181 43.34 181 42.68 181 42 C180.34 42 179.68 42 179 42 C178.938125 41.46375 178.87625 40.9275 178.8125 40.375 C175.69666573 31.26717675 164.86664893 24.77665968 157.32421875 19.63671875 C155.33664397 18.23706525 153.51290207 16.78765965 151.6875 15.1875 C149.08520135 13.06934994 147.13002038 12.09550713 144 11 C142.64841797 10.29423828 142.64841797 10.29423828 141.26953125 9.57421875 C137.936273 7.96931663 134.74921443 6.9248664 131.1875 5.9375 C130.04667969 5.61652344 128.90585938 5.29554687 127.73046875 4.96484375 C126.49941406 4.64644531 125.26835938 4.32804688 124 4 C123.35603271 3.81614746 122.71206543 3.63229492 122.04858398 3.44287109 C114.97448985 1.59859768 107.95943926 1.70513456 100.6875 1.75 C99.44548828 1.74226562 98.20347656 1.73453125 96.92382812 1.7265625 C85.19540805 1.75116328 74.78706198 3.16693915 63.9375 7.6875 Z " fill="#FAFAFA" transform="translate(0,0)"/>
<path d="M0 0 C0.33 7.26 0.66 14.52 1 22 C2.65 19.36 4.3 16.72 6 14 C11.28265646 7.23275625 18.60732898 2.81849362 27 1 C44.54475703 0.06905371 44.54475703 0.06905371 52 4 C52.64839844 4.32871094 53.29679687 4.65742187 53.96484375 4.99609375 C61.01356537 8.90603722 66.41193125 14.8238625 70 22 C70.33 15.4 70.66 8.8 71 2 C80.50147484 3.90029497 87.35810883 9.23304638 93 17 C93.99 18.65 94.98 20.3 96 22 C96.33 17.71 96.66 13.42 97 9 C99 9 99 9 100.5859375 10.43359375 C107.65679552 18.35357227 110.3265079 24.46975912 110.4375 35.0625 C110.44773193 35.81837402 110.45796387 36.57424805 110.46850586 37.35302734 C110.34443948 45.32971489 108.03568036 51.32500772 102.9375 57.5 C102.24527344 58.3559375 101.55304688 59.211875 100.83984375 60.09375 C100.23269531 60.7228125 99.62554687 61.351875 99 62 C98.34 62 97.68 62 97 62 C96.67 57.71 96.34 53.42 96 49 C95.0409375 50.7015625 95.0409375 50.7015625 94.0625 52.4375 C88.90698699 60.61370795 82.40285022 67.15727784 73 70 C72.34 70 71.68 70 71 70 C70.67 63.07 70.34 56.14 70 49 C67.525 53.455 67.525 53.455 65 58 C58.38405785 66.11486654 49.30388553 70.24303737 39.03125 71.4765625 C27.48100811 72.11924079 18.38476317 69.17349579 9.5 61.6875 C5.00514611 57.63464008 3.98040797 54.96081594 1 49 C0.67 56.59 0.34 64.18 0 72 C-14.33974087 69.39277439 -23.26531074 65.86821007 -32 54 C-32.66 52.68 -33.32 51.36 -34 50 C-34.33 55.94 -34.66 61.88 -35 68 C-44.91553361 64.03378655 -49.75854914 57.05788226 -55 48 C-55.33 50.97 -55.66 53.94 -56 57 C-59 56 -59 56 -60.09765625 54.43359375 C-64.98249459 44.32771362 -66.7309072 34.81754657 -63 24 C-61.86166487 21.21471191 -60.73064188 18.46970603 -59 16 C-58.01 15.67 -57.02 15.34 -56 15 C-55.67 17.97 -55.34 20.94 -55 24 C-54.484375 22.845 -53.96875 21.69 -53.4375 20.5 C-49.12792075 11.97156948 -44.67285842 8.33642921 -36 4 C-36 11.26 -36 18.52 -36 26 C-35.34 26 -34.68 26 -34 26 C-33.979375 25.195625 -33.95875 24.39125 -33.9375 23.5625 C-31.72778654 15.16558887 -24.27397896 8.25837908 -17.02734375 3.78125 C-11.43974473 0.76674571 -6.35247698 0 0 0 Z " fill="#AFA5B8" transform="translate(77,64)"/>
<path d="M0 0 C0.97259766 0.49306641 0.97259766 0.49306641 1.96484375 0.99609375 C9.01356537 4.90603722 14.41193125 10.8238625 18 18 C18.33 11.4 18.66 4.8 19 -2 C28.50147484 -0.09970503 35.35810883 5.23304638 41 13 C41.99 14.65 42.98 16.3 44 18 C44.495 11.565 44.495 11.565 45 5 C47 5 47 5 48.5859375 6.43359375 C55.65679552 14.35357227 58.3265079 20.46975912 58.4375 31.0625 C58.44773193 31.81837402 58.45796387 32.57424805 58.46850586 33.35302734 C58.34443948 41.32971489 56.03568036 47.32500772 50.9375 53.5 C50.24527344 54.3559375 49.55304688 55.211875 48.83984375 56.09375 C48.23269531 56.7228125 47.62554687 57.351875 47 58 C46.34 58 45.68 58 45 58 C44.67 53.71 44.34 49.42 44 45 C43.0409375 46.7015625 43.0409375 46.7015625 42.0625 48.4375 C36.90698699 56.61370795 30.40285022 63.15727784 21 66 C20.34 66 19.68 66 19 66 C18.505 55.605 18.505 55.605 18 45 C17.01 45.99 16.02 46.98 15 48 C14.01 47.67 13.02 47.34 12 47 C11.67 46.34 11.34 45.68 11 45 C10.34 45 9.68 45 9 45 C6.5327707 39.29668391 4.65791964 34.18444458 4 28 C3.67 27.67 3.34 27.34 3 27 C2.92686433 24.46950598 2.90752473 21.96695163 2.9375 19.4375 C2.94201172 18.72658203 2.94652344 18.01566406 2.95117188 17.28320312 C2.96299136 15.52209987 2.98092737 13.76103964 3 12 C2.01 12 1.02 12 0 12 C0 13.65 0 15.3 0 17 C-0.33 17 -0.66 17 -1 17 C-1.495 13.04 -1.495 13.04 -2 9 C-3.0725 9.185625 -4.145 9.37125 -5.25 9.5625 C-9 10 -9 10 -10.8984375 9.5234375 C-13.46691502 8.88370518 -15.73248029 8.97737682 -18.375 9.0625 C-22.66021693 9.11412912 -26.0111286 8.72491736 -30 7 C-29.67 6.34 -29.34 5.68 -29 5 C-31.31 4.34 -33.62 3.68 -36 3 C-36 2.34 -36 1.68 -36 1 C-25.12723984 -4.26025546 -10.97000573 -5.78418484 0 0 Z " fill="#C2BABA" transform="translate(129,68)"/>
<path d="M0 0 C0.97259766 0.49306641 0.97259766 0.49306641 1.96484375 0.99609375 C9.01356537 4.90603722 14.41193125 10.8238625 18 18 C18.33 11.4 18.66 4.8 19 -2 C25.3190184 -0.73619632 25.3190184 -0.73619632 28 3 C28.42578125 6.34765625 28.42578125 6.34765625 28.3125 10.0625 C28.27576172 11.90521484 28.27576172 11.90521484 28.23828125 13.78515625 C28 17 28 17 27 20 C26.85507877 21.40664926 26.75371069 22.8181133 26.68359375 24.23046875 C26.62075195 25.43413086 26.62075195 25.43413086 26.55664062 26.66210938 C26.51732422 27.49548828 26.47800781 28.32886719 26.4375 29.1875 C26.37272461 30.4549707 26.37272461 30.4549707 26.30664062 31.74804688 C26.20068482 33.83184433 26.0998498 35.91590103 26 38 C26.66 38 27.32 38 28 38 C28 40.31 28 42.62 28 45 C28.33 45 28.66 45 29 45 C29.38909985 46.45463481 29.76088029 47.91391207 30.125 49.375 C30.43824219 50.59316406 30.43824219 50.59316406 30.7578125 51.8359375 C30.87769531 52.90714844 30.87769531 52.90714844 31 54 C30.01 54.99 30.01 54.99 29 56 C26.375 55.625 26.375 55.625 24 55 C24 54.01 24 53.02 24 52 C23.01 51.67 22.02 51.34 21 51 C21.495 50.01 21.495 50.01 22 49 C21.34 49 20.68 49 20 49 C20 46.36 20 43.72 20 41 C19.34 41 18.68 41 18 41 C17.814375 42.4540625 17.814375 42.4540625 17.625 43.9375 C17.41875 44.948125 17.2125 45.95875 17 47 C16.01 47.495 16.01 47.495 15 48 C14.01 47.67 13.02 47.34 12 47 C11.67 46.34 11.34 45.68 11 45 C10.34 45 9.68 45 9 45 C6.5327707 39.29668391 4.65791964 34.18444458 4 28 C3.67 27.67 3.34 27.34 3 27 C2.92686433 24.46950598 2.90752473 21.96695163 2.9375 19.4375 C2.94201172 18.72658203 2.94652344 18.01566406 2.95117188 17.28320312 C2.96299136 15.52209987 2.98092737 13.76103964 3 12 C2.01 12 1.02 12 0 12 C0 13.65 0 15.3 0 17 C-0.33 17 -0.66 17 -1 17 C-1.495 13.04 -1.495 13.04 -2 9 C-3.0725 9.185625 -4.145 9.37125 -5.25 9.5625 C-9 10 -9 10 -10.8984375 9.5234375 C-13.46691502 8.88370518 -15.73248029 8.97737682 -18.375 9.0625 C-22.66021693 9.11412912 -26.0111286 8.72491736 -30 7 C-29.67 6.34 -29.34 5.68 -29 5 C-31.31 4.34 -33.62 3.68 -36 3 C-36 2.34 -36 1.68 -36 1 C-25.12723984 -4.26025546 -10.97000573 -5.78418484 0 0 Z " fill="#E0E0C3" transform="translate(129,68)"/>
<path d="M0 0 C6.3190184 1.26380368 6.3190184 1.26380368 9 5 C9.42578125 8.34765625 9.42578125 8.34765625 9.3125 12.0625 C9.28800781 13.29097656 9.26351562 14.51945312 9.23828125 15.78515625 C9 19 9 19 8 22 C7.85507877 23.40664926 7.75371069 24.8181133 7.68359375 26.23046875 C7.64169922 27.03291016 7.59980469 27.83535156 7.55664062 28.66210938 C7.51732422 29.49548828 7.47800781 30.32886719 7.4375 31.1875 C7.39431641 32.03248047 7.35113281 32.87746094 7.30664062 33.74804688 C7.20068482 35.83184433 7.0998498 37.91590103 7 40 C7.66 40 8.32 40 9 40 C9 42.31 9 44.62 9 47 C9.33 47 9.66 47 10 47 C10.38909985 48.45463481 10.76088029 49.91391207 11.125 51.375 C11.33382812 52.18710938 11.54265625 52.99921875 11.7578125 53.8359375 C11.83773437 54.55007812 11.91765625 55.26421875 12 56 C11.34 56.66 10.68 57.32 10 58 C7.375 57.625 7.375 57.625 5 57 C5 56.01 5 55.02 5 54 C3.515 53.505 3.515 53.505 2 53 C2.33 52.34 2.66 51.68 3 51 C2.34 51 1.68 51 1 51 C1 48.36 1 45.72 1 43 C-1.97 43.495 -1.97 43.495 -5 44 C-5 42.02 -5 40.04 -5 38 C-5.99 37.67 -6.98 37.34 -8 37 C-9.125 32.25 -9.125 32.25 -8 30 C-8.66 30 -9.32 30 -10 30 C-10 27.03 -10 24.06 -10 21 C-10.66 20.67 -11.32 20.34 -12 20 C-11.34 19.67 -10.68 19.34 -10 19 C-9.01 19.66 -8.02 20.32 -7 21 C-6.54625 20.505 -6.0925 20.01 -5.625 19.5 C-4 18 -4 18 -2 18 C-1.67 18.66 -1.34 19.32 -1 20 C-0.67 13.4 -0.34 6.8 0 0 Z " fill="#E6E7C5" transform="translate(148,66)"/>
<path d="M0 0 C2 0 2 0 3.5859375 1.43359375 C10.65679552 9.35357227 13.3265079 15.46975912 13.4375 26.0625 C13.44773193 26.81837402 13.45796387 27.57424805 13.46850586 28.35302734 C13.34659234 36.19129925 11.30843218 42.22572521 5.875 48 C5.17117187 48.763125 4.46734375 49.52625 3.7421875 50.3125 C2 52 2 52 1 52 C1 46.72 1 41.44 1 36 C0.34 36 -0.32 36 -1 36 C-1 35.34 -1 34.68 -1 34 C-1.66 34 -2.32 34 -3 34 C-3.33 31.69 -3.66 29.38 -4 27 C-4.66 27 -5.32 27 -6 27 C-6.05397335 24.5622037 -6.09365616 22.12560315 -6.125 19.6875 C-6.14175781 18.99720703 -6.15851563 18.30691406 -6.17578125 17.59570312 C-6.21217794 13.82864604 -6.14378864 12.21568296 -4 9 C-3.01 10.32 -2.02 11.64 -1 13 C-0.67 8.71 -0.34 4.42 0 0 Z " fill="#D4D9C4" transform="translate(174,73)"/>
<path d="M0 0 C1.98 0 3.96 0 6 0 C6 0.66 6 1.32 6 2 C10.94154474 4.25233474 16.06936279 4.9946563 21.38085938 5.85546875 C26.79166374 6.79166374 26.79166374 6.79166374 29 9 C28 10 28 10 25.4375 10.0625 C24.633125 10.041875 23.82875 10.02125 23 10 C23 11.32 23 12.64 23 14 C25.31 14 27.62 14 30 14 C29.125 18.75 29.125 18.75 28 21 C26.68 21 25.36 21 24 21 C23.67 22.32 23.34 23.64 23 25 C18.42226934 25.95499143 14.42634929 26.67370114 10.125 24.5 C6.39413376 22.02429758 5.3214358 19.19750194 4 15 C4 14.34 4 13.68 4 13 C3.34 13 2.68 13 2 13 C-0.28571429 4.57142857 -0.28571429 4.57142857 0 0 Z " fill="#EFE3B9" transform="translate(18,91)"/>
<path d="M0 0 C0.98120464 3.05263664 0.98120464 4.94736336 0 8 C0.99 8 1.98 8 3 8 C3.33 9.98 3.66 11.96 4 14 C5.32 13.34 6.64 12.68 8 12 C8 12.66 8 13.32 8 14 C8.66 14 9.32 14 10 14 C9.7834375 14.94359375 9.7834375 14.94359375 9.5625 15.90625 C7.52258514 25.31252408 7.84915234 32.62844949 10 42 C9.34 42 8.68 42 8 42 C7.67 42.99 7.34 43.98 7 45 C6.67 43.68 6.34 42.36 6 41 C5.01 41.495 5.01 41.495 4 42 C3.53476937 43.89533342 3.53476937 43.89533342 3.375 46.0625 C3.25125 47.361875 3.1275 48.66125 3 50 C1.02 50.495 1.02 50.495 -1 51 C-3.44023905 45.29642539 -3.30439707 39.90208316 -3.25 33.8125 C-3.24540771 32.75981934 -3.24081543 31.70713867 -3.23608398 30.62255859 C-2.95452832 5.90905664 -2.95452832 5.90905664 0 0 Z " fill="#212020" transform="translate(5,72)"/>
<path d="M0 0 C0.66 0 1.32 0 2 0 C2 3.96 2 7.92 2 12 C1.01 12 0.02 12 -1 12 C-0.34 16.29 0.32 20.58 1 25 C1.66 25 2.32 25 3 25 C3.28875 25.7425 3.5775 26.485 3.875 27.25 C4.24625 28.1575 4.6175 29.065 5 30 C5.2475 30.70125 5.495 31.4025 5.75 32.125 C7.70599899 35.05899848 9.70626271 35.80227735 13 37 C16.01962912 37.23152132 18.97883518 37.18126989 22 37 C22 38.65 22 40.3 22 42 C20.68 42.66 19.36 43.32 18 44 C18.33 44.66 18.66 45.32 19 46 C18.34 46 17.68 46 17 46 C17 46.66 17 47.32 17 48 C14.03487804 47.66093897 13.04145101 47.04293699 10.9296875 44.85546875 C10.25164063 43.97503906 9.57359375 43.09460938 8.875 42.1875 C8.19179688 41.31480469 7.50859375 40.44210938 6.8046875 39.54296875 C5 37 5 37 3 33 C2.67 35.97 2.34 38.94 2 42 C-1 41 -1 41 -2.09765625 39.43359375 C-6.63928453 30.03775549 -8.52326109 21.25897014 -5.70703125 11.02734375 C-4.41335785 7.31786035 -2.82150175 2.82150175 0 0 Z " fill="#D3BCBF" transform="translate(19,79)"/>
<path d="M0 0 C0 0.66 0 1.32 0 2 C0.66 2 1.32 2 2 2 C2 2.66 2 3.32 2 4 C3.01320313 3.96519531 4.02640625 3.93039063 5.0703125 3.89453125 C6.4218583 3.86637405 7.77342219 3.83907597 9.125 3.8125 C9.79015625 3.78736328 10.4553125 3.76222656 11.140625 3.73632812 C15.93428518 3.66583312 18.85100349 4.71405151 23 7 C24.74181595 7.43041984 26.49199492 7.82888854 28.25 8.1875 C30.859375 8.91015625 30.859375 8.91015625 33 10 C34.42917367 12.7209268 34.59899579 14.89221735 35 18 C35.66 18.33 36.32 18.66 37 19 C37 21.97 37 24.94 37 28 C37.66 28 38.32 28 39 28 C39.12375 29.134375 39.2475 30.26875 39.375 31.4375 C39.58125 32.613125 39.7875 33.78875 40 35 C40.99 35.495 40.99 35.495 42 36 C42.625 38.5625 42.625 38.5625 43 41 C43.99 41.33 44.98 41.66 46 42 C45.625 44.4375 45.625 44.4375 45 47 C44.01 47.495 44.01 47.495 43 48 C42.01 47.67 41.02 47.34 40 47 C39.67 46.34 39.34 45.68 39 45 C38.34 45 37.68 45 37 45 C34.5327707 39.29668391 32.65791964 34.18444458 32 28 C31.67 27.67 31.34 27.34 31 27 C30.92686433 24.46950598 30.90752473 21.96695163 30.9375 19.4375 C30.94201172 18.72658203 30.94652344 18.01566406 30.95117188 17.28320312 C30.96299136 15.52209987 30.98092737 13.76103964 31 12 C30.01 12 29.02 12 28 12 C28 13.65 28 15.3 28 17 C27.67 17 27.34 17 27 17 C26.505 13.04 26.505 13.04 26 9 C24.9275 9.185625 23.855 9.37125 22.75 9.5625 C19 10 19 10 17.1015625 9.5234375 C14.53308498 8.88370518 12.26751971 8.97737682 9.625 9.0625 C5.33978307 9.11412912 1.9888714 8.72491736 -2 7 C-1.67 6.34 -1.34 5.68 -1 5 C-3.31 4.34 -5.62 3.68 -8 3 C-8 2.34 -8 1.68 -8 1 C-4.93251126 -0.86240388 -3.40254489 -1.2151946 0 0 Z " fill="#D2BABE" transform="translate(101,68)"/>
<path d="M0 0 C0.66 0.33 1.32 0.66 2 1 C1.97905273 1.96188232 1.95810547 2.92376465 1.93652344 3.91479492 C1.86310427 7.54712522 1.81783794 11.17939279 1.78027344 14.81225586 C1.76038635 16.37259007 1.73326648 17.93285209 1.69824219 19.49291992 C1.1265668 36.01452345 1.1265668 36.01452345 8.13964844 50.35229492 C8.75356445 50.8960376 9.36748047 51.43978027 10 52 C8.68820896 54.93410268 7.3426744 56.93025319 4.9375 59.0625 C4.41027344 59.54847656 3.88304687 60.03445312 3.33984375 60.53515625 C1 62 1 62 -8 65 C-8.33 56.75 -8.66 48.5 -9 40 C-8.34 40 -7.68 40 -7 40 C-7 42.64 -7 45.28 -7 48 C-6.34 48 -5.68 48 -5 48 C-5 48.66 -5 49.32 -5 50 C-4.34 50.33 -3.68 50.66 -3 51 C-3 51.99 -3 52.98 -3 54 C-1.35 54 0.3 54 2 54 C2.30942625 50.22300447 2.30942625 50.22300447 0.9765625 48.046875 C-0.24004383 45.49686814 -0.03220874 44.01901946 0.375 41.25 C0.48585937 40.45078125 0.59671875 39.6515625 0.7109375 38.828125 C0.80632812 38.22484375 0.90171875 37.6215625 1 37 C0.34 37 -0.32 37 -1 37 C-1.0269501 34.06243881 -1.04681474 31.12512445 -1.0625 28.1875 C-1.07506836 26.93743164 -1.07506836 26.93743164 -1.08789062 25.66210938 C-1.09111328 24.85966797 -1.09433594 24.05722656 -1.09765625 23.23046875 C-1.10289307 22.49207764 -1.10812988 21.75368652 -1.11352539 20.99291992 C-1 19 -1 19 0 16 C0.22560676 13.60745424 0.40848595 11.21071877 0.5625 8.8125 C0.64628906 7.54019531 0.73007813 6.26789063 0.81640625 4.95703125 C0.87699219 3.98121094 0.93757812 3.00539063 1 2 C0.34 1.67 -0.32 1.34 -1 1 C-0.67 0.67 -0.34 0.34 0 0 Z M3 48 C4 50 4 50 4 50 Z " fill="#E2CEBE" transform="translate(156,69)"/>
<path d="M0 0 C0.66 0.66 1.32 1.32 2 2 C2.33 1.34 2.66 0.68 3 0 C3 5.28 3 10.56 3 16 C2.67 15.34 2.34 14.68 2 14 C1.34 14 0.68 14 0 14 C0 13.34 0 12.68 0 12 C-1.258125 11.814375 -2.51625 11.62875 -3.8125 11.4375 C-4.52019531 11.33308594 -5.22789063 11.22867188 -5.95703125 11.12109375 C-8.2025342 10.86095201 -8.2025342 10.86095201 -11 12 C-11.66 11.67 -12.32 11.34 -13 11 C-13 10.34 -13 9.68 -13 9 C-14.97536745 9.34786708 -14.97536745 9.34786708 -17 10 C-17.33 10.66 -17.66 11.32 -18 12 C-19.65 12 -21.3 12 -23 12 C-22.91837143 9.22462868 -22.41385605 7.47787797 -20.5859375 5.3671875 C-16.86048868 1.96997205 -14.16134396 0.36009376 -9 0 C-5.88135455 -1.55932272 -3.33704665 -0.65549131 0 0 Z " fill="#C9B3A5" transform="translate(73,68)"/>
<path d="M0 0 C0.66 0 1.32 0 2 0 C4.49895604 3.0756382 5.16804069 5.32471058 5.0625 9.1875 C5.041875 10.445625 5.02125 11.70375 5 13 C5.66 13.66 6.32 14.32 7 15 C7.26991906 17.68839385 7.08737357 20.29141936 7 23 C6.360625 22.814375 5.72125 22.62875 5.0625 22.4375 C4.0415625 22.2209375 4.0415625 22.2209375 3 22 C1.76732652 23.00836062 1.76732652 23.00836062 1.90234375 25.06640625 C1.91394531 25.89011719 1.92554688 26.71382812 1.9375 27.5625 C1.94652344 28.38878906 1.95554688 29.21507813 1.96484375 30.06640625 C1.97644531 30.70449219 1.98804688 31.34257813 2 32 C0.68 31.67 -0.64 31.34 -2 31 C-2.56031788 28.94248866 -3.09756118 26.87868424 -3.625 24.8125 C-3.92664063 23.66394531 -4.22828125 22.51539062 -4.5390625 21.33203125 C-5.03277151 17.7631009 -4.64704544 16.14597529 -3 13 C-2.34 13 -1.68 13 -1 13 C-0.67 8.71 -0.34 4.42 0 0 Z " fill="#D5D9C0" transform="translate(174,73)"/>
<path d="M0 0 C2 2 2 2 2 4 C2.33 3.34 2.66 2.68 3 2 C3.66 2 4.32 2 5 2 C5.33 1.34 5.66 0.68 6 0 C10.42094803 3.72346836 14.57833482 7.29521038 18 12 C16.63016497 15.16115776 16.0109362 15.9927092 13 18 C13 17.34 13 16.68 13 16 C11.35 16 9.7 16 8 16 C7.67 13.36 7.34 10.72 7 8 C6.360625 7.896875 5.72125 7.79375 5.0625 7.6875 C-5.73684211 5.26315789 -5.73684211 5.26315789 -9 2 C-6.0597901 0.52989505 -3.25270981 0.29042052 0 0 Z " fill="#E0E3C9" transform="translate(127,70)"/>
<path d="M0 0 C2.5 2.25 2.5 2.25 5 5 C5 6.32 5 7.64 5 9 C4.34 9 3.68 9 3 9 C3.33 9.99 3.66 10.98 4 12 C3.91426773 14.06587115 3.76166465 16.12946525 3.5625 18.1875 C3.40974609 19.81751953 3.40974609 19.81751953 3.25390625 21.48046875 C3.12822266 22.72763672 3.12822266 22.72763672 3 24 C3.66 24 4.32 24 5 24 C5.33 26.31 5.66 28.62 6 31 C6.66 31 7.32 31 8 31 C8 31.66 8 32.32 8 33 C8.66 33 9.32 33 10 33 C10.33 38.61 10.66 44.22 11 50 C10.34 50 9.68 50 9 50 C8.67 45.71 8.34 41.42 8 37 C6.68 39.31 5.36 41.62 4 44 C3.34 43.67 2.68 43.34 2 43 C2.33 41.35 2.66 39.7 3 38 C3.66 38 4.32 38 5 38 C6.34011157 35.12797292 6.34011157 35.12797292 5.0625 33 C4.711875 32.34 4.36125 31.68 4 31 C4 30.01 4 29.02 4 28 C3.34 28 2.68 28 2 28 C0.31841854 24.33135949 -0.24028871 21.50583953 -0.1953125 17.48046875 C-0.18564453 15.9480957 -0.18564453 15.9480957 -0.17578125 14.38476562 C-0.15902344 13.32966797 -0.14226562 12.27457031 -0.125 11.1875 C-0.11597656 10.11306641 -0.10695312 9.03863281 -0.09765625 7.93164062 C-0.07415306 5.28753146 -0.04129575 2.64388128 0 0 Z " fill="#BFB6B8" transform="translate(165,76)"/>
<path d="M0 0 C1.485 0.99 1.485 0.99 3 2 C2.608125 3.0725 2.21625 4.145 1.8125 5.25 C0.34091308 11.05344136 1.94934225 16.50015163 4 22 C4.97564508 23.35125662 5.97055357 24.68926821 7 26 C7 26.66 7 27.32 7 28 C7.66 28 8.32 28 9 28 C9 28.66 9 29.32 9 30 C10.32 30.33 11.64 30.66 13 31 C13 31.66 13 32.32 13 33 C13.66 33.33 14.32 33.66 15 34 C13.69088122 35.50295185 12.37761608 37.00229311 11.0625 38.5 C10.33160156 39.3353125 9.60070312 40.170625 8.84765625 41.03125 C8.23792969 41.6809375 7.62820312 42.330625 7 43 C6.67 43 6.34 43 6 43 C6 37.72 6 32.44 6 27 C5.34 27 4.68 27 4 27 C4 26.34 4 25.68 4 25 C3.34 25 2.68 25 2 25 C1.67 22.69 1.34 20.38 1 18 C0.34 18 -0.32 18 -1 18 C-1.02698422 15.56242587 -1.04683099 13.12515085 -1.0625 10.6875 C-1.07087891 9.99720703 -1.07925781 9.30691406 -1.08789062 8.59570312 C-1.10307906 5.4516975 -1.00193327 3.00579981 0 0 Z " fill="#D5C9C3" transform="translate(169,82)"/>
<path d="M0 0 C0.66 0 1.32 0 2 0 C4 3 4 3 4 6 C4.99 6 5.98 6 7 6 C7 7.32 7 8.64 7 10 C7.66 10 8.32 10 9 10 C10.09651823 13.41139003 9.94215473 16.20655581 9.5625 19.75 C9.46066406 20.73484375 9.35882813 21.7196875 9.25390625 22.734375 C9.17011719 23.48203125 9.08632813 24.2296875 9 25 C6 24 6 24 4.90234375 22.43359375 C1.24164405 14.86024336 -0.30063758 8.41785227 0 0 Z " fill="#B2A8BA" transform="translate(12,96)"/>
<path d="M0 0 C0 0.66 0 1.32 0 2 C0.66 2.66 1.32 3.32 2 4 C-4.93763058 4.05099583 -11.87521224 4.08585714 -18.81298828 4.10986328 C-21.16977749 4.11987842 -23.52655441 4.13349442 -25.88330078 4.15087891 C-29.28421068 4.17532519 -32.68495531 4.18652831 -36.0859375 4.1953125 C-37.64905167 4.21079636 -37.64905167 4.21079636 -39.2437439 4.22659302 C-45.73004824 4.22757258 -51.69572903 3.53497658 -58 2 C-58 1.67 -58 1.34 -58 1 C-56.783125 0.979375 -55.56625 0.95875 -54.3125 0.9375 C-53.28576172 0.92009766 -53.28576172 0.92009766 -52.23828125 0.90234375 C-50 1 -50 1 -47.71533203 1.49121094 C-34.95917671 3.88141303 -19.7429589 3.4229775 -7.63671875 -1.3203125 C-4.38562506 -2.15837221 -2.92590767 -1.52424334 0 0 Z " fill="#CFCFCF" transform="translate(136,196)"/>
<path d="M0 0 C1.32 0.33 2.64 0.66 4 1 C4.85353298 3.94746107 5.10776993 6.52626379 5.0625 9.58984375 C5.05476562 10.45673828 5.04703125 11.32363281 5.0390625 12.21679688 C5.01307691 14.02669351 4.98703548 15.83658935 4.9609375 17.64648438 C4.92304477 21.89994345 4.89219368 25.85438104 6 30 C5.01 30.33 4.02 30.66 3 31 C2.34 30.67 1.68 30.34 1 30 C-0.03514808 26.33676 -0.11708651 22.83186941 -0.09765625 19.04296875 C-0.09443359 17.93115234 -0.09121094 16.81933594 -0.08789062 15.67382812 C-0.07951172 14.52333984 -0.07113281 13.37285156 -0.0625 12.1875 C-0.05798828 11.01767578 -0.05347656 9.84785156 -0.04882812 8.64257812 C-0.0370693 5.76166642 -0.02063426 2.88085956 0 0 Z " fill="#C9C9C9" transform="translate(161,74)"/>
<path d="M0 0 C0 0.66 0 1.32 0 2 C0.66 2 1.32 2 2 2 C2 2.66 2 3.32 2 4 C3.50240234 3.93039063 3.50240234 3.93039063 5.03515625 3.859375 C18.15469509 3.4378108 18.15469509 3.4378108 24 8 C20.16654115 10.55563923 19.4417266 9.79316546 15 9 C13.16655033 8.99727165 11.33296281 9.02016254 9.5 9.0625 C5.26154667 9.11454104 1.94552823 8.70617437 -2 7 C-1.67 6.34 -1.34 5.68 -1 5 C-3.31 4.34 -5.62 3.68 -8 3 C-8 2.34 -8 1.68 -8 1 C-4.93251126 -0.86240388 -3.40254489 -1.2151946 0 0 Z " fill="#D3C4C2" transform="translate(101,68)"/>
<path d="M0 0 C0.33 0 0.66 0 1 0 C1 2.97 1 5.94 1 9 C1.66 9 2.32 9 3 9 C3.12375 10.134375 3.2475 11.26875 3.375 12.4375 C3.684375 14.2009375 3.684375 14.2009375 4 16 C4.66 16.33 5.32 16.66 6 17 C6.625 19.5625 6.625 19.5625 7 22 C7.99 22.33 8.98 22.66 10 23 C9.625 25.4375 9.625 25.4375 9 28 C8.34 28.33 7.68 28.66 7 29 C6.01 28.67 5.02 28.34 4 28 C3.67 25.36 3.34 22.72 3 20 C2.34 20 1.68 20 1 20 C-1.13431857 13.99722901 -1.45296092 8.35198686 -1 2 C-0.67 1.34 -0.34 0.68 0 0 Z " fill="#DCCDBE" transform="translate(137,87)"/>
<path d="M0 0 C1.98 0 3.96 0 6 0 C6 0.66 6 1.32 6 2 C10.94154474 4.25233474 16.06936279 4.9946563 21.38085938 5.85546875 C26.79166374 6.79166374 26.79166374 6.79166374 29 9 C28 10 28 10 25.1875 10.1875 C21.96127913 9.9977223 20.79823012 9.39911506 18 8 C15.99332683 7.7133324 13.98520796 7.42956891 11.96875 7.22265625 C10 7 10 7 7.0625 6.375 C6.381875 6.25125 5.70125 6.1275 5 6 C3.64381501 7.12534105 3.64381501 7.12534105 3.9375 10.0625 C3.958125 11.031875 3.97875 12.00125 4 13 C3.34 13 2.68 13 2 13 C-0.28571429 4.57142857 -0.28571429 4.57142857 0 0 Z " fill="#E8D1C0" transform="translate(18,91)"/>
<path d="M0 0 C0.33 0 0.66 0 1 0 C1 1.65 1 3.3 1 5 C1.66 5.12375 2.32 5.2475 3 5.375 C6.69698583 6.14520538 10.34005942 7.06950663 14 8 C9.86905316 12.93048494 6.17191994 14.24975405 0 16 C0 10.72 0 5.44 0 0 Z " fill="#D6BABB" transform="translate(148,118)"/>
<path d="M0 0 C0.99 0.495 0.99 0.495 2 1 C2.39477539 2.73413086 2.39477539 2.73413086 2.59765625 4.96484375 C2.67693359 5.76470703 2.75621094 6.56457031 2.83789062 7.38867188 C2.91201172 8.22978516 2.98613281 9.07089844 3.0625 9.9375 C3.21668557 11.59276496 3.37408808 13.24773434 3.53515625 14.90234375 C3.600979 15.63960693 3.66680176 16.37687012 3.73461914 17.13647461 C3.91224186 19.08835486 3.91224186 19.08835486 5 21 C5.99 21 6.98 21 8 21 C7.979375 22.051875 7.95875 23.10375 7.9375 24.1875 C7.98896802 27.32704904 8.26517187 29.96883396 9 33 C2.65126589 28.57799614 1.38535243 23.39611654 0 16 C-0.41204089 10.66509155 -0.24674339 5.33925275 0 0 Z " fill="#CDB5BD" transform="translate(157,88)"/>
<path d="M0 0 C2.52093298 0.311712 5.0417457 0.62434902 7.5625 0.9375 C8.26697266 1.02451172 8.97144531 1.11152344 9.69726562 1.20117188 C14.13911927 1.75384491 18.57074664 2.35394596 23 3 C23 3.66 23 4.32 23 5 C24.32 5 25.64 5 27 5 C27.33 5.99 27.66 6.98 28 8 C6.23002421 6.82324455 6.23002421 6.82324455 0 2 C0 1.34 0 0.68 0 0 Z " fill="#D2A5BE" transform="translate(24,91)"/>
<path d="M0 0 C2 2 2 2 2 4 C2.33 3.34 2.66 2.68 3 2 C3.66 2 4.32 2 5 2 C5.33 1.34 5.66 0.68 6 0 C7.29854721 1.07507629 8.58858361 2.16043736 9.875 3.25 C10.59429687 3.85328125 11.31359375 4.4565625 12.0546875 5.078125 C13.97052118 6.97087634 14.96449045 8.53657727 16 11 C15.01 11.33 14.02 11.66 13 12 C12.67 10.35 12.34 8.7 12 7 C11.01 7 10.02 7 9 7 C9 6.34 9 5.68 9 5 C7.5459375 5.5878125 7.5459375 5.5878125 6.0625 6.1875 C1.30768526 7.57512961 -2.6502192 6.09072967 -7 4 C-7.66 3.34 -8.32 2.68 -9 2 C-6.0597901 0.52989505 -3.25270981 0.29042052 0 0 Z " fill="#D9DABF" transform="translate(127,70)"/>
<path d="M0 0 C4.59191315 3.95414743 7.14607445 8.21036657 9 14 C9 15.32 9 16.64 9 18 C6.6875 17.875 6.6875 17.875 4 17 C2.25 14 2.25 14 1 11 C0.67 10.67 0.34 10.34 0 10 C-0.07205511 8.31391034 -0.08386068 6.62499341 -0.0625 4.9375 C-0.05347656 4.01839844 -0.04445312 3.09929687 -0.03515625 2.15234375 C-0.02355469 1.44207031 -0.01195312 0.73179688 0 0 Z " fill="#D0CDBE" transform="translate(178,76)"/>
<path d="M0 0 C1.32 0 2.64 0 4 0 C4.99 2.64 5.98 5.28 7 8 C6.34 8 5.68 8 5 8 C5 8.66 5 9.32 5 10 C4.01 10.495 4.01 10.495 3 11 C3 12.98 3 14.96 3 17 C2.34 17.33 1.68 17.66 1 18 C-1.40312827 12.44276587 -1.43634266 6.95658462 -1 1 C-0.67 0.67 -0.34 0.34 0 0 Z " fill="#B2ADC3" transform="translate(165,104)"/>
<path d="M0 0 C2.16275926 2.88367902 4.20203367 5.74973977 6.1875 8.75 C6.71730469 9.54921875 7.24710938 10.3484375 7.79296875 11.171875 C8.19128906 11.77515625 8.58960938 12.3784375 9 13 C8.67 13.66 8.34 14.32 8 15 C7.01 15 6.02 15 5 15 C4.67 15.66 4.34 16.32 4 17 C3.34 16.01 2.68 15.02 2 14 C1.34 14.66 0.68 15.32 0 16 C-0.66 14.35 -1.32 12.7 -2 11 C-1.34 11 -0.68 11 0 11 C0 7.37 0 3.74 0 0 Z " fill="#272229" transform="translate(21,110)"/>
<path d="M0 0 C0.33 0.66 0.66 1.32 1 2 C1.99 2 2.98 2 4 2 C4.33 4.31 4.66 6.62 5 9 C6.32 9.33 7.64 9.66 9 10 C9 10.66 9 11.32 9 12 C13.455 11.505 13.455 11.505 18 11 C18 11.99 18 12.98 18 14 C13.42226934 14.95499143 9.42634929 15.67370114 5.125 13.5 C1.37056688 10.98540293 0.22647336 8.29265677 -1 4 C-0.6875 1.5625 -0.6875 1.5625 0 0 Z " fill="#E5D0BB" transform="translate(23,102)"/>
<path d="M0 0 C0.99 0 1.98 0 3 0 C3.625 2.375 3.625 2.375 4 5 C2 7 2 7 -1.0625 8 C-4.12150806 8.65752556 -4.12150806 8.65752556 -5 11 C-6.65 10.67 -8.3 10.34 -10 10 C-9.1875 7.0625 -9.1875 7.0625 -8 4 C-5 3 -5 3 -2.875 2.5625 C-2.25625 2.376875 -1.6375 2.19125 -1 2 C-0.67 1.34 -0.34 0.68 0 0 Z " fill="#BEC3C8" transform="translate(93,72)"/>
<path d="M0 0 C0 5.94 0 11.88 0 18 C-2 16 -2 16 -2.1953125 13.6171875 C-2.16050781 12.25980469 -2.16050781 12.25980469 -2.125 10.875 C-2.10695313 9.96492188 -2.08890625 9.05484375 -2.0703125 8.1171875 C-2.03550781 7.06917969 -2.03550781 7.06917969 -2 6 C-3.4540625 6.0309375 -3.4540625 6.0309375 -4.9375 6.0625 C-8 6 -8 6 -9 5 C-10.99422795 4.63371323 -12.99453311 4.29868656 -15 4 C-10.58717987 -0.05979452 -5.77267265 0 0 0 Z " fill="#B0ACAE" transform="translate(77,64)"/>
<path d="M0 0 C2 2 2 2 2.13525391 3.97119141 C2.08288574 4.75671387 2.03051758 5.54223633 1.9765625 6.3515625 C1.925 7.20234375 1.8734375 8.053125 1.8203125 8.9296875 C1.75585938 9.81914063 1.69140625 10.70859375 1.625 11.625 C1.56828125 12.5221875 1.5115625 13.419375 1.453125 14.34375 C1.31145247 16.56328624 1.1600296 18.78172402 1 21 C-2.35594194 19.7367158 -4.63290296 18.74084921 -7 16 C-6.34 16 -5.68 16 -5 16 C-5 14.68 -5 13.36 -5 12 C-2 10 -2 10 0 10 C0 6.7 0 3.4 0 0 Z " fill="#8F888E" transform="translate(41,111)"/>
<path d="M0 0 C3 1 3 1 6 3 C9.12521833 3.16699232 9.12521833 3.16699232 12 3 C12 2.34 12 1.68 12 1 C12.99 0.67 13.98 0.34 15 0 C15 1.32 15 2.64 15 4 C13.02 4.99 13.02 4.99 11 6 C11.33 6.66 11.66 7.32 12 8 C11.34 8 10.68 8 10 8 C10 8.66 10 9.32 10 10 C7.29982364 9.62432329 6.19291495 9.20530398 4.296875 7.1875 C3.78640625 6.465625 3.2759375 5.74375 2.75 5 C2.22921875 4.278125 1.7084375 3.55625 1.171875 2.8125 C0 1 0 1 0 0 Z " fill="#B4A7B7" transform="translate(26,117)"/>
<path d="M0 0 C1.66289063 0.00676758 1.66289063 0.00676758 3.359375 0.01367188 C6.07297399 0.02536842 8.78645761 0.04175914 11.5 0.0625 C11.5 1.0525 11.5 2.0425 11.5 3.0625 C0.94 2.7325 -9.62 2.4025 -20.5 2.0625 C-20.5 1.7325 -20.5 1.4025 -20.5 1.0625 C-13.64016191 0.00521913 -6.93216776 -0.05389843 0 0 Z " fill="#CDCDCD" transform="translate(108.5,-0.0625)"/>
<path d="M0 0 C1.65 0.33 3.3 0.66 5 1 C4.67 1.66 4.34 2.32 4 3 C3.01 3 2.02 3 1 3 C1.30836232 5.12560437 1.62181614 7.25047065 1.9375 9.375 C2.11152344 10.55835937 2.28554687 11.74171875 2.46484375 12.9609375 C2.83462786 15.90702381 2.83462786 15.90702381 4 18 C3.67 18.66 3.34 19.32 3 20 C2.34 20 1.68 20 1 20 C1.33 20.99 1.66 21.98 2 23 C1.67 23.66 1.34 24.32 1 25 C0.34 24.67 -0.32 24.34 -1 24 C-0.67 16.08 -0.34 8.16 0 0 Z " fill="#CBD6BF" transform="translate(148,66)"/>
<path d="M0 0 C1.98 0 3.96 0 6 0 C6 3.3 6 6.6 6 10 C4.68 10.33 3.36 10.66 2 11 C0.57741188 7.17679443 -0.24042276 4.08718695 0 0 Z " fill="#313131" transform="translate(2,112)"/>
<path d="M0 0 C0.33 0 0.66 0 1 0 C1 5.28 1 10.56 1 16 C0.67 15.34 0.34 14.68 0 14 C-0.66 14 -1.32 14 -2 14 C-2 13.34 -2 12.68 -2 12 C-3.65 11.67 -5.3 11.34 -7 11 C-6.360625 10.608125 -5.72125 10.21625 -5.0625 9.8125 C-2.56221181 7.61527704 -2.35049575 6.24208567 -2 3 C-2.99 2.67 -3.98 2.34 -5 2 C-3.35 2 -1.7 2 0 2 C0 1.34 0 0.68 0 0 Z " fill="#C8C4BD" transform="translate(75,68)"/>
<path d="M0 0 C5.75 1.875 5.75 1.875 8 3 C8.33 10.59 8.66 18.18 9 26 C8.34 26 7.68 26 7 26 C6.67 19.07 6.34 12.14 6 5 C4.02 5.99 2.04 6.98 0 8 C-0.33 6.68 -0.66 5.36 -1 4 C-0.34 3.67 0.32 3.34 1 3 C1.66 3.33 2.32 3.66 3 4 C3 3.34 3 2.68 3 2 C2.01 1.67 1.02 1.34 0 1 C0 0.67 0 0.34 0 0 Z " fill="#3F3E43" transform="translate(34,64)"/>
<path d="M0 0 C0.33 0.99 0.66 1.98 1 3 C0.67 3.66 0.34 4.32 0 5 C0.66 5.33 1.32 5.66 2 6 C1.67 6.66 1.34 7.32 1 8 C0.34 8 -0.32 8 -1 8 C-1.99 9.98 -2.98 11.96 -4 14 C-6.475 13.01 -6.475 13.01 -9 12 C-8.25 9.5625 -8.25 9.5625 -7 7 C-6.360625 6.855625 -5.72125 6.71125 -5.0625 6.5625 C-4.0415625 6.2840625 -4.0415625 6.2840625 -3 6 C-1.21620585 3.01647106 -1.21620585 3.01647106 0 0 Z " fill="#A2A1A9" transform="translate(81,80)"/>
<path d="M0 0 C3.22914643 3.22914643 4.82681003 6.02830798 7 10 C5.68 11.32 4.36 12.64 3 14 C3 12.68 3 11.36 3 10 C2.34 10 1.68 10 1 10 C0.67 11.32 0.34 12.64 0 14 C0 9.38 0 4.76 0 0 Z " fill="#251E24" transform="translate(42,113)"/>
<path d="M0 0 C-0.33 0.99 -0.66 1.98 -1 3 C1.31 3 3.62 3 6 3 C6 4.32 6 5.64 6 7 C4.20767663 6.69128878 2.41615679 6.37790936 0.625 6.0625 C-0.37273437 5.88847656 -1.37046875 5.71445313 -2.3984375 5.53515625 C-5 5 -5 5 -7 4 C-7 3.01 -7 2.02 -7 1 C-4.53721199 -0.231394 -2.7204945 -0.07159196 0 0 Z " fill="#A3A6B0" transform="translate(71,129)"/>
<path d="M0 0 C0.66 0 1.32 0 2 0 C2 3.63 2 7.26 2 11 C1.34 9.68 0.68 8.36 0 7 C-0.99 7.495 -0.99 7.495 -2 8 C-2.65772428 11.02934491 -2.65772428 11.02934491 -3 14 C-3.99 14.33 -4.98 14.66 -6 15 C-5.48640535 9.8640535 -3.7815677 3.7815677 0 0 Z " fill="#B3ABB4" transform="translate(19,79)"/>
<path d="M0 0 C0.33 0 0.66 0 1 0 C1.0825 0.94875 1.165 1.8975 1.25 2.875 C1.82729305 7.16096356 3.49218715 10.84471906 5.2578125 14.765625 C6 17 6 17 5 20 C4.38125 19.360625 3.7625 18.72125 3.125 18.0625 C1.17402388 15.96116416 1.17402388 15.96116416 -1 15 C-0.67 10.05 -0.34 5.1 0 0 Z " fill="#C3A2C3" transform="translate(133,96)"/>
<path d="M0 0 C0.33 0.66 0.66 1.32 1 2 C1.99 2 2.98 2 4 2 C4.33 7.28 4.66 12.56 5 18 C4.34 18 3.68 18 3 18 C2.67 13.71 2.34 9.42 2 5 C0.68 7.31 -0.64 9.62 -2 12 C-2.66 11.67 -3.32 11.34 -4 11 C-3.67 9.35 -3.34 7.7 -3 6 C-2.34 6 -1.68 6 -1 6 C-0.67 4.02 -0.34 2.04 0 0 Z " fill="#9893A1" transform="translate(171,108)"/>
<path d="M0 0 C0.66 0 1.32 0 2 0 C2.33 1.32 2.66 2.64 3 4 C3.66 4 4.32 4 5 4 C5.33 5.32 5.66 6.64 6 8 C3.03 10.475 3.03 10.475 0 13 C0 8.71 0 4.42 0 0 Z " fill="#BBA3BB" transform="translate(175,112)"/>
<path d="M0 0 C0.556875 0.680625 0.556875 0.680625 1.125 1.375 C3.54264685 3.47029394 5.95430602 4.12013285 9 5 C9 5.66 9 6.32 9 7 C10.98 6.67 12.96 6.34 15 6 C14.01 6.495 14.01 6.495 13 7 C13 7.66 13 8.32 13 9 C7.23955788 8.39363767 2.27985631 6.24341721 -3 4 C-2.01 2.68 -1.02 1.36 0 0 Z " fill="#9EA0AB" transform="translate(95,126)"/>
<path d="M0 0 C1.98 0.99 1.98 0.99 4 2 C4.75 5.125 4.75 5.125 5 8 C4.34 7.67 3.68 7.34 3 7 C2.97294271 8.77074917 2.95357805 10.54161711 2.9375 12.3125 C2.92589844 13.29863281 2.91429687 14.28476563 2.90234375 15.30078125 C2.87670138 18.09963849 2.87670138 18.09963849 4 21 C3.67 21.66 3.34 22.32 3 23 C2.34 23 1.68 23 1 23 C0.67 15.41 0.34 7.82 0 0 Z " fill="#231E23" transform="translate(186,86)"/>
<path d="M0 0 C1.9375 0.75 1.9375 0.75 4 2 C4.75 4.125 4.75 4.125 5 6 C5.66 6 6.32 6 7 6 C7 6.66 7 7.32 7 8 C8.32 8.33 9.64 8.66 11 9 C11 9.66 11 10.32 11 11 C11.66 11.33 12.32 11.66 13 12 C11.02 12.99 11.02 12.99 9 14 C9 13.34 9 12.68 9 12 C8.34 12 7.68 12 7 12 C6.67 10.68 6.34 9.36 6 8 C5.34 8 4.68 8 4 8 C4 7.01 4 6.02 4 5 C3.34 5 2.68 5 2 5 C2 4.34 2 3.68 2 3 C1.34 3 0.68 3 0 3 C0 2.01 0 1.02 0 0 Z " fill="#CFC0BB" transform="translate(171,104)"/>
<path d="M0 0 C1 2 1 2 0.328125 4.27734375 C-0.02765625 5.15519531 -0.3834375 6.03304687 -0.75 6.9375 C-1.26820312 8.25041016 -1.26820312 8.25041016 -1.796875 9.58984375 C-2.96780763 11.93551074 -3.95984036 13.37324113 -6 15 C-6.66 15 -7.32 15 -8 15 C-8 15.99 -8 16.98 -8 18 C-8.66 18 -9.32 18 -10 18 C-8.5216233 13.98832453 -6.60821705 10.42979591 -4.4375 6.75 C-3.81746094 5.69296875 -3.19742187 4.6359375 -2.55859375 3.546875 C-1 1 -1 1 0 0 Z " fill="#3F3F3F" transform="translate(21,40)"/>
<path d="M0 0 C7.78808563 0.51648735 15.34925042 1.44876534 23 3 C22.67 3.66 22.34 4.32 22 5 C20.8553125 4.7525 20.8553125 4.7525 19.6875 4.5 C16.50573234 4.06857388 13.69410126 3.9971364 10.5 4.0625 C6.26154667 4.11454104 2.94552823 3.70617437 -1 2 C-0.67 1.34 -0.34 0.68 0 0 Z " fill="#C7B2C4" transform="translate(100,73)"/>
<path d="M0 0 C0.33 0 0.66 0 1 0 C1.33 1.65 1.66 3.3 2 5 C3.11375 4.690625 3.11375 4.690625 4.25 4.375 C7.37796068 3.94845991 8.32595741 4.50299325 11 6 C9.5437455 6.67119549 8.08492133 7.33681807 6.625 8 C5.40683594 8.556875 5.40683594 8.556875 4.1640625 9.125 C2 10 2 10 0 10 C0 6.7 0 3.4 0 0 Z " fill="#AC9FB4" transform="translate(148,124)"/>
<path d="M0 0 C4.875 2.75 4.875 2.75 6 5 C6.99 4.67 7.98 4.34 9 4 C9.33 3.34 9.66 2.68 10 2 C10 3.32 10 4.64 10 6 C8 7.75 8 7.75 6 9 C6 8.34 6 7.68 6 7 C4.35 7 2.7 7 1 7 C0.67 4.69 0.34 2.38 0 0 Z " fill="#D6D8C0" transform="translate(134,79)"/>
<path d="M0 0 C3.32983051 2.69557708 4.54451694 6.04940313 6 10 C6 11.32 6 12.64 6 14 C5.01 14 4.02 14 3 14 C2.49307308 12.4188708 1.99473557 10.83498617 1.5 9.25 C1.2215625 8.36828125 0.943125 7.4865625 0.65625 6.578125 C0 4 0 4 0 0 Z " fill="#B1A9AC" transform="translate(181,80)"/>
<path d="M0 0 C0.33 0 0.66 0 1 0 C1 7.92 1 15.84 1 24 C-0.32 23.01 -1.64 22.02 -3 21 C-3 20.34 -3 19.68 -3 19 C-2.01 19 -1.02 19 0 19 C-0.14133499 17.22880197 -0.28823208 15.45804713 -0.4375 13.6875 C-0.55931641 12.20830078 -0.55931641 12.20830078 -0.68359375 10.69921875 C-0.91812559 7.90624401 -0.91812559 7.90624401 -2 5 C-1.0625 2.3125 -1.0625 2.3125 0 0 Z " fill="#2C2825" transform="translate(147,110)"/>
<path d="M0 0 C0.95465783 2.16967689 1.14401212 3.56328793 0.3984375 5.82421875 C-0.35870385 7.5684743 -1.17609198 9.28627131 -2 11 C-2.99 11 -3.98 11 -5 11 C-5.33 9.02 -5.66 7.04 -6 5 C-5.34 4.67 -4.68 4.34 -4 4 C-4 4.66 -4 5.32 -4 6 C-3.34 6 -2.68 6 -2 6 C-2 4.35 -2 2.7 -2 1 C-1.34 0.67 -0.68 0.34 0 0 Z " fill="#D6E7C7" transform="translate(151,85)"/>
<path d="M0 0 C0.33 0.66 0.66 1.32 1 2 C2.86492402 2.38995102 2.86492402 2.38995102 5 2.5 C7.1875 2.65625 7.1875 2.65625 9 3 C9.33 3.66 9.66 4.32 10 5 C6.42355152 6.2380014 3.66305234 5.74926071 0 5 C0 4.34 0 3.68 0 3 C-0.61875 3.185625 -1.2375 3.37125 -1.875 3.5625 C-4 4 -4 4 -6 3 C-6 2.34 -6 1.68 -6 1 C-3.03 1.495 -3.03 1.495 0 2 C0 1.34 0 0.68 0 0 Z " fill="#BF9DBF" transform="translate(47,91)"/>
<path d="M0 0 C1.32 0 2.64 0 4 0 C4.33 2.31 4.66 4.62 5 7 C3.02 7.33 1.04 7.66 -1 8 C-1.04241723 5.66705225 -1.04092937 3.33297433 -1 1 C-0.67 0.67 -0.34 0.34 0 0 Z " fill="#B3BCCA" transform="translate(165,104)"/>
<path d="M0 0 C4 4 4 4 4.171875 6.140625 C3.78125 8.09375 3.390625 10.046875 3 12 C2.01 12.33 1.02 12.66 0 13 C0 8.71 0 4.42 0 0 Z " fill="#EBEFD5" transform="translate(175,74)"/>
<path d="M0 0 C5.05531868 0.77774134 10.01716284 1.85948394 15 3 C14.67 3.66 14.34 4.32 14 5 C8.57960425 5.40652968 4.92984325 4.03993514 0 2 C0 1.34 0 0.68 0 0 Z " fill="#E3BCBF" transform="translate(32,96)"/>
<path d="M0 0 C0.99 0 1.98 0 3 0 C3.33 3.96 3.66 7.92 4 12 C3.34 12 2.68 12 2 12 C2 9.69 2 7.38 2 5 C0.68 5.33 -0.64 5.66 -2 6 C-1.34 4.02 -0.68 2.04 0 0 Z " fill="#ECEFCC" transform="translate(147,104)"/>
<path d="M0 0 C2.77300866 1.38650433 3.45496074 3.34253248 5 6 C5.98244845 7.34631825 6.97676564 8.68441297 8 10 C4.23312136 10 3.08809695 9.76462683 0 8 C0 5.33333333 0 2.66666667 0 0 Z " fill="#24252C" transform="translate(80,117)"/>
<path d="M0 0 C0.33 1.32 0.66 2.64 1 4 C-0.98 4.99 -0.98 4.99 -3 6 C-2.67 6.66 -2.34 7.32 -2 8 C-2.66 8 -3.32 8 -4 8 C-4 8.66 -4 9.32 -4 10 C-4.66 10 -5.32 10 -6 10 C-6.33 8.68 -6.66 7.36 -7 6 C-6.34 6 -5.68 6 -5 6 C-5 5.01 -5 4.02 -5 3 C-4.01 3 -3.02 3 -2 3 C-2 2.34 -2 1.68 -2 1 C-1.34 0.67 -0.68 0.34 0 0 Z " fill="#BBADBD" transform="translate(40,117)"/>
<path d="M0 0 C1.5 1.3125 1.5 1.3125 3 3 C3 3.99 3 4.98 3 6 C3.99 6 4.98 6 6 6 C6 7.32 6 8.64 6 10 C5.01 10 4.02 10 3 10 C3 9.34 3 8.68 3 8 C2.01 7.67 1.02 7.34 0 7 C0 4.69 0 2.38 0 0 Z " fill="#BDADBB" transform="translate(13,96)"/>
<path d="M0 0 C4 0 4 0 5.484375 1.3125 C6.65625 2.875 7.828125 4.4375 9 6 C5.37 5.67 1.74 5.34 -2 5 C-1.34 3.35 -0.68 1.7 0 0 Z " fill="#C0A9B6" transform="translate(23,87)"/>
<path d="M0 0 C1.32 0.33 2.64 0.66 4 1 C3.34 2.65 2.68 4.3 2 6 C2.66 6 3.32 6 4 6 C3.34 7.98 2.68 9.96 2 12 C1.34 12 0.68 12 0 12 C0 8.04 0 4.08 0 0 Z " fill="#C39DC2" transform="translate(73,104)"/>
<path d="M0 0 C1.13199353 0.9080162 2.25532363 1.82683826 3.375 2.75 C4.00148437 3.26046875 4.62796875 3.7709375 5.2734375 4.296875 C7.08312318 6.08199481 8.00117455 7.67949644 9 10 C8.01 10.33 7.02 10.66 6 11 C5.67 9.35 5.34 7.7 5 6 C4.01 6 3.02 6 2 6 C2 5.34 2 4.68 2 4 C1.34 3.67 0.68 3.34 0 3 C0 2.01 0 1.02 0 0 Z " fill="#CBD4BC" transform="translate(134,71)"/>
<path d="M0 0 C2.14699969 3.44175522 2.09856795 5.7720292 1.625 9.75 C1.51414062 10.73484375 1.40328125 11.7196875 1.2890625 12.734375 C1.19367187 13.48203125 1.09828125 14.2296875 1 15 C0.01 14.67 -0.98 14.34 -2 14 C-2.33 13.01 -2.66 12.02 -3 11 C-2.34 10.67 -1.68 10.34 -1 10 C-0.53248212 7.64400765 -0.53248212 7.64400765 -0.375 4.9375 C-0.30023437 4.01839844 -0.22546875 3.09929687 -0.1484375 2.15234375 C-0.09945313 1.44207031 -0.05046875 0.73179688 0 0 Z " fill="#A298A4" transform="translate(20,106)"/>
<path d="M0 0 C1.20628008 2.33214148 2.1654738 4.49642139 3 7 C2.34 7 1.68 7 1 7 C1.33 8.32 1.66 9.64 2 11 C1.01 11.495 1.01 11.495 0 12 C-2.21538462 5.72307692 -2.21538462 5.72307692 -1.125 2.0625 C-0.75375 1.381875 -0.3825 0.70125 0 0 Z " fill="#E9E5D1" transform="translate(171,86)"/>
<path d="M0 0 C1.3303125 0.00773437 1.3303125 0.00773437 2.6875 0.015625 C3.574375 0.01046875 4.46125 0.0053125 5.375 0 C7.6875 0.265625 7.6875 0.265625 9.6875 2.265625 C6.78149739 3.52227478 4.89145416 4.265625 1.6875 4.265625 C1.6875 3.605625 1.6875 2.945625 1.6875 2.265625 C-0.2925 2.265625 -2.2725 2.265625 -4.3125 2.265625 C-2.3125 0.265625 -2.3125 0.265625 0 0 Z " fill="#E8F0C5" transform="translate(110.3125,64.734375)"/>
<path d="M0 0 C0.33 0 0.66 0 1 0 C1 2.31 1 4.62 1 7 C-0.98 7 -2.96 7 -5 7 C-5 5.68 -5 4.36 -5 3 C-3.68 3 -2.36 3 -1 3 C-0.67 2.01 -0.34 1.02 0 0 Z " fill="#B1B3C5" transform="translate(75,125)"/>
<path d="M0 0 C0.66 0.99 1.32 1.98 2 3 C1.34 4.32 0.68 5.64 0 7 C-2.31 7 -4.62 7 -7 7 C-6.21625 6.401875 -5.4325 5.80375 -4.625 5.1875 C-1.85425677 3.08914751 -1.85425677 3.08914751 0 0 Z " fill="#B5B5C1" transform="translate(95,72)"/>
<path d="M0 0 C-1.46666667 4.64444444 -1.46666667 4.64444444 -3.875 6.25 C-5.90181904 6.9653479 -7.9130951 7.49355446 -10 8 C-9.04578192 6.85073734 -8.08647955 5.70569459 -7.125 4.5625 C-6.59132812 3.92441406 -6.05765625 3.28632813 -5.5078125 2.62890625 C-3.68057607 0.65492285 -2.70796331 0 0 0 Z " fill="#575757" transform="translate(42,21)"/>
<path d="M0 0 C0.33 0.66 0.66 1.32 1 2 C1.66 2 2.32 2 3 2 C3 2.99 3 3.98 3 5 C3.66 4.67 4.32 4.34 5 4 C4.34 5.32 3.68 6.64 3 8 C2.01 8 1.02 8 0 8 C0 7.34 0 6.68 0 6 C-0.66 5.67 -1.32 5.34 -2 5 C-1.34 3.35 -0.68 1.7 0 0 Z " fill="#F0CEBD" transform="translate(160,118)"/>
<path d="M0 0 C2.64 0 5.28 0 8 0 C7.01 0.66 6.02 1.32 5 2 C5.33 2.66 5.66 3.32 6 4 C3.69 4.33 1.38 4.66 -1 5 C-0.67 3.35 -0.34 1.7 0 0 Z " fill="#AFB5C1" transform="translate(87,120)"/>
<path d="M0 0 C0.33 0 0.66 0 1 0 C1 3.3 1 6.6 1 10 C0.67 9.34 0.34 8.68 0 8 C-0.99 7.67 -1.98 7.34 -3 7 C-1.125 1.125 -1.125 1.125 0 0 Z " fill="#26242D" transform="translate(173,112)"/>
<path d="M0 0 C0.268125 0.61875 0.53625 1.2375 0.8125 1.875 C1.95556848 4.2995233 1.95556848 4.2995233 5 6 C5 6.66 5 7.32 5 8 C3.35 7.67 1.7 7.34 0 7 C-0.66 5.02 -1.32 3.04 -2 1 C-1.34 0.67 -0.68 0.34 0 0 Z " fill="#C4B1B2" transform="translate(24,109)"/>
<path d="M0 0 C0.33 0.66 0.66 1.32 1 2 C1.99 2.33 2.98 2.66 4 3 C3.01 3.33 2.02 3.66 1 4 C1 4.66 1 5.32 1 6 C-0.65 5.67 -2.3 5.34 -4 5 C-4 4.34 -4 3.68 -4 3 C-3.01 3 -2.02 3 -1 3 C-0.67 2.01 -0.34 1.02 0 0 Z " fill="#D4B3BE" transform="translate(47,109)"/>
<path d="M0 0 C0.33 0.66 0.66 1.32 1 2 C-1.35968744 4.09749995 -2.54616994 4.96905704 -5.75 5.1875 C-6.86375 5.0946875 -6.86375 5.0946875 -8 5 C-8 4.34 -8 3.68 -8 3 C-5.36 2.01 -2.72 1.02 0 0 Z " fill="#C1A3C2" transform="translate(56,110)"/>
<path d="M0 0 C0.33 0.99 0.66 1.98 1 3 C-0.43534841 3.2226746 -1.87345525 3.42761906 -3.3125 3.625 C-4.11300781 3.74101563 -4.91351563 3.85703125 -5.73828125 3.9765625 C-8 4 -8 4 -11 2 C-5.555 1.01 -5.555 1.01 0 0 Z " fill="#DFC8BE" transform="translate(40,113)"/>
<path d="M0 0 C0.33 0.99 0.66 1.98 1 3 C0.67 3.66 0.34 4.32 0 5 C0.66 5.33 1.32 5.66 2 6 C1.67 6.66 1.34 7.32 1 8 C0.34 8 -0.32 8 -1 8 C-1.33 8.66 -1.66 9.32 -2 10 C-2.66 10 -3.32 10 -4 10 C-2.8905928 6.51329166 -1.73662334 3.22515763 0 0 Z " fill="#91969F" transform="translate(81,80)"/>
<path d="M0 0 C0.33 0.66 0.66 1.32 1 2 C1.66 2 2.32 2 3 2 C3.33 2.99 3.66 3.98 4 5 C3.01 5.33 2.02 5.66 1 6 C0.67 4.02 0.34 2.04 0 0 Z M-8 3 C-5.36 3 -2.72 3 0 3 C0 3.33 0 3.66 0 4 C-4.455 4.495 -4.455 4.495 -9 5 C-8.67 4.34 -8.34 3.68 -8 3 Z " fill="#B4B8C1" transform="translate(72,80)"/>
<path d="M0 0 C1.98 0 3.96 0 6 0 C4.35 1.98 2.7 3.96 1 6 C0.01 5.34 -0.98 4.68 -2 4 C-1.01 3.67 -0.02 3.34 1 3 C0.67 2.01 0.34 1.02 0 0 Z " fill="#9E99AC" transform="translate(137,120)"/>
<path d="M0 0 C5.75 0.875 5.75 0.875 8 2 C8 2.99 8 3.98 8 5 C5.07120629 4.37240135 2.63904371 3.41377341 0 2 C0 1.34 0 0.68 0 0 Z " fill="#DAB6BA" transform="translate(24,91)"/>
<path d="M0 0 C0.66 0.66 1.32 1.32 2 2 C1.625 4.125 1.625 4.125 1 6 C0.67 5.34 0.34 4.68 0 4 C-0.66 4 -1.32 4 -2 4 C-2.33 5.65 -2.66 7.3 -3 9 C-3.66 8.67 -4.32 8.34 -5 8 C-2.25 2.25 -2.25 2.25 0 0 Z " fill="#94919D" transform="translate(28,78)"/>
<path d="M0 0 C2.475 0.99 2.475 0.99 5 2 C4.67 2.99 4.34 3.98 4 5 C2.35 5 0.7 5 -1 5 C-0.67 3.35 -0.34 1.7 0 0 Z " fill="#C5C2C3" transform="translate(51,75)"/>
<path d="M0 0 C-0.66 0 -1.32 0 -2 0 C-2.33 0.99 -2.66 1.98 -3 3 C-5.31 3 -7.62 3 -10 3 C-4.37755102 -1.45918367 -4.37755102 -1.45918367 0 0 Z M-8 4 C-5 5 -5 5 -5 5 Z " fill="#3D3D3D" transform="translate(72,7)"/>
<path d="M0 0 C0 4.38968456 -2.12805101 5.76905739 -5 9 C-6.32 8.34 -7.64 7.68 -9 7 C-6.03 4.69 -3.06 2.38 0 0 Z " fill="#BCBCBC" transform="translate(163,176)"/>
<path d="M0 0 C1.9375 0.75 1.9375 0.75 4 2 C4.75 4.125 4.75 4.125 5 6 C4.01 6.33 3.02 6.66 2 7 C1.34 4.69 0.68 2.38 0 0 Z M5 2 C7 3 7 3 7 3 Z " fill="#242424" transform="translate(8,134)"/>
<path d="M0 0 C2.31 0.33 4.62 0.66 7 1 C5.68 2.32 4.36 3.64 3 5 C1.68 4.34 0.36 3.68 -1 3 C-0.67 2.01 -0.34 1.02 0 0 Z M2 1 C1.67 1.66 1.34 2.32 1 3 C1.66 3 2.32 3 3 3 C2.67 2.34 2.34 1.68 2 1 Z " fill="#9E99AC" transform="translate(130,125)"/>
<path d="M0 0 C2.4375 0.8125 2.4375 0.8125 5 2 C5.33 2.99 5.66 3.98 6 5 C4.34385343 5.38218767 2.67542976 5.71395102 1 6 C0 5 0 5 -0.0625 2.4375 C-0.041875 1.633125 -0.02125 0.82875 0 0 Z " fill="#C6B0C0" transform="translate(149,124)"/>
<path d="M0 0 C1.74627478 2.61941217 2.38722388 4.03824877 3 7 C2.01 7 1.02 7 0 7 C-0.66 6.34 -1.32 5.68 -2 5 C-1.46428571 1.46428571 -1.46428571 1.46428571 0 0 Z " fill="#9B9DA7" transform="translate(84,116)"/>
<path d="M0 0 C0.625 1.8125 0.625 1.8125 1 4 C0.01 5.485 0.01 5.485 -1 7 C-1.66 7 -2.32 7 -3 7 C-3.33 5.35 -3.66 3.7 -4 2 C-2.68 1.34 -1.36 0.68 0 0 Z " fill="#E6C9C0" transform="translate(47,105)"/>
<path d="M0 0 C0.33 0 0.66 0 1 0 C1.12375 1.134375 1.2475 2.26875 1.375 3.4375 C1.58125 4.613125 1.7875 5.78875 2 7 C2.66 7.33 3.32 7.66 4 8 C3.625 9.9375 3.625 9.9375 3 12 C2.01 12.495 2.01 12.495 1 13 C-0.10228696 8.59085217 -0.07654536 4.51617599 0 0 Z " fill="#938B96" transform="translate(12,96)"/>
<path d="M0 0 C0.66 0.33 1.32 0.66 2 1 C2 2.98 2 4.96 2 7 C-0.5 5.625 -0.5 5.625 -3 4 C-3 3.34 -3 2.68 -3 2 C-2.01 1.34 -1.02 0.68 0 0 Z " fill="#B1A1C0" transform="translate(30,85)"/>
<path d="M0 0 C0 2.64 0 5.28 0 8 C-0.66 7.01 -1.32 6.02 -2 5 C-2.66 5.66 -3.32 6.32 -4 7 C-4.33 6.01 -4.66 5.02 -5 4 C-1.125 0 -1.125 0 0 0 Z " fill="#B8B9BE" transform="translate(41,68)"/>
<path d="M0 0 C0.33 0.66 0.66 1.32 1 2 C0.06553465 4.03144641 -0.93224776 6.03533587 -2 8 C-2.66 8 -3.32 8 -4 8 C-4.33 8.99 -4.66 9.98 -5 11 C-5.33 10.34 -5.66 9.68 -6 9 C-4.02 6.03 -2.04 3.06 0 0 Z " fill="#656565" transform="translate(21,40)"/>
<path d="M0 0 C0 0.66 0 1.32 0 2 C0.66 2.33 1.32 2.66 2 3 C1.01 4.485 1.01 4.485 0 6 C-0.66 6 -1.32 6 -2 6 C-2 5.34 -2 4.68 -2 4 C-3.32 3.67 -4.64 3.34 -6 3 C-2.25 0 -2.25 0 0 0 Z " fill="#424242" transform="translate(54,13)"/>
<path d="M0 0 C0.33 0 0.66 0 1 0 C1.22786458 1.98567708 1.45572917 3.97135417 1.68359375 5.95703125 C1.97170735 8.19396393 1.97170735 8.19396393 3 11 C2.67 11.66 2.34 12.32 2 13 C1.34 13 0.68 13 0 13 C0 8.71 0 4.42 0 0 Z " fill="#43463F" transform="translate(187,96)"/>
<path d="M0 0 C3 2 3 2 3.6875 4.625 C3.790625 5.40875 3.89375 6.1925 4 7 C0.83884224 5.63016497 0.0072908 5.0109362 -2 2 C-1.34 1.34 -0.68 0.68 0 0 Z " fill="#3E3E3E" transform="translate(42,176)"/>
<path d="M0 0 C2.31 0 4.62 0 7 0 C7 1.32 7 2.64 7 4 C3.73045798 3.43628586 2.17424117 2.50037734 0 0 Z " fill="#9D9EA0" transform="translate(34,127)"/>
<path d="M0 0 C0.66 0.33 1.32 0.66 2 1 C1.67 1.66 1.34 2.32 1 3 C2.32 3.33 3.64 3.66 5 4 C4.34 5.32 3.68 6.64 3 8 C2.34 8 1.68 8 1 8 C1.33 6.68 1.66 5.36 2 4 C1.34 4 0.68 4 0 4 C-0.33 3.01 -0.66 2.02 -1 1 C-0.67 0.67 -0.34 0.34 0 0 Z " fill="#BFABBA" transform="translate(140,112)"/>
<path d="M0 0 C2.76223278 2.76223278 2.57856291 5.20706617 3 9 C0.9375 7.3125 0.9375 7.3125 -1 5 C-0.75 2.25 -0.75 2.25 0 0 Z " fill="#CDC4C8" transform="translate(14,91)"/>
<path d="M0 0 C1.33332095 2.6666419 0.67102033 4.16680303 0 7 C-1.32 6.67 -2.64 6.34 -4 6 C-2.84826645 3.53199953 -1.95216435 1.95216435 0 0 Z " fill="#3D2F3A" transform="translate(180,120)"/>
<path d="M0 0 C0.33 0 0.66 0 1 0 C1 1.65 1 3.3 1 5 C1.66 5 2.32 5 3 5 C3 6.65 3 8.3 3 10 C2.34 10 1.68 10 1 10 C-0.60725635 6.78548731 -0.05748185 3.56387464 0 0 Z " fill="#BBBAC1" transform="translate(161,99)"/>
<path d="M0 0 C1.65 0.99 3.3 1.98 5 3 C4.03114628 4.68496298 3.03013277 6.35178756 2 8 C1.67 8 1.34 8 1 8 C0.67 5.36 0.34 2.72 0 0 Z " fill="#B7B2AC" transform="translate(158,70)"/>
<path d="M0 0 C-3.26545761 1.88391785 -6.28111761 2.49287967 -10 3 C-10.33 2.01 -10.66 1.02 -11 0 C-7.18243176 -1.37432457 -3.92744671 -0.67975039 0 0 Z " fill="#CDC3B8" transform="translate(73,68)"/>
<path d="M0 0 C1.98 0 3.96 0 6 0 C6 0.99 6 1.98 6 3 C4.35 3 2.7 3 1 3 C0.67 2.01 0.34 1.02 0 0 Z " fill="#ECECEC" transform="translate(114,0)"/>
<path d="M0 0 C0.99 0.33 1.98 0.66 3 1 C1.515 4.465 1.515 4.465 0 8 C-0.33 8 -0.66 8 -1 8 C-1.125 2.25 -1.125 2.25 0 0 Z " fill="#28212E" transform="translate(43,80)"/>
<path d="M0 0 C0.99 0.99 1.98 1.98 3 3 C1.35 4.32 -0.3 5.64 -2 7 C-2.33 6.01 -2.66 5.02 -3 4 C-2.34 3.67 -1.68 3.34 -1 3 C-0.67 2.01 -0.34 1.02 0 0 Z " fill="#2B2322" transform="translate(51,70)"/>
<path d="M0 0 C1.32 0 2.64 0 4 0 C3.34 1.32 2.68 2.64 2 4 C0.68 3.67 -0.64 3.34 -2 3 C-1.34 2.01 -0.68 1.02 0 0 Z " fill="#B8B5BC" transform="translate(89,72)"/>
<path d="M0 0 C1.5625 1.75 1.5625 1.75 3 4 C2.6875 6.25 2.6875 6.25 2 8 C2 7.34 2 6.68 2 6 C1.01 6.33 0.02 6.66 -1 7 C-0.67 4.69 -0.34 2.38 0 0 Z " fill="#545454" transform="translate(189,56)"/>
</svg>
