<?xml version="1.0" encoding="UTF-8"?>
<svg version="1.1" xmlns="http://www.w3.org/2000/svg" width="225" height="225">
<path d="M0 0 C74.25 0 148.5 0 225 0 C225 74.25 225 148.5 225 225 C150.75 225 76.5 225 0 225 C0 150.75 0 76.5 0 0 Z " fill="#FD8923" transform="translate(0,0)"/>
<path d="M0 0 C42.9 0 85.8 0 130 0 C130 74.25 130 148.5 130 225 C93.04 225 56.08 225 18 225 C16.82664821 213.85315795 15.67820743 202.79357989 14.9375 191.625 C14.78030231 189.32549658 14.62275182 187.02601725 14.46484375 184.7265625 C14.38991699 183.62078857 14.31499023 182.51501465 14.23779297 181.37573242 C13.91794528 176.83514309 13.55501349 172.29829141 13.18579102 167.76147461 C13.03165803 165.47054392 12.96571809 163.23135427 13 160.9375 C13.12176753 158.16155874 13.12176753 158.16155874 12.53344727 156.18310547 C11.87691626 153.49628614 11.67515693 150.8908272 11.46484375 148.1328125 C11.37783203 146.99972656 11.29082031 145.86664063 11.20117188 144.69921875 C11.11416016 143.51972656 11.02714844 142.34023437 10.9375 141.125 C10.84662109 139.95324219 10.75574219 138.78148437 10.66210938 137.57421875 C10.26899053 132.36613294 9.9497821 127.22558708 10 122 C8.35 122 6.7 122 5 122 C5 121.67 5 121.34 5 121 C7.29141286 120.94615479 9.58318188 120.90727913 11.875 120.875 C13.15117188 120.85179688 14.42734375 120.82859375 15.7421875 120.8046875 C19 121 19 121 21 123 C21.23950195 125.21142578 21.23950195 125.21142578 21.23828125 127.9453125 C21.25439453 128.94046875 21.27050781 129.935625 21.28710938 130.9609375 C21.30384789 133.04681434 21.30931876 135.13281639 21.30273438 137.21875 C21.43927246 144.07208122 22.43657098 148.74970094 27 154 C29.00868968 155.86091545 29.00868968 155.86091545 31.125 156.9375 C31.78757812 157.31777344 32.45015625 157.69804687 33.1328125 158.08984375 C36.68033855 159.81907716 39.64806243 160.17215046 43.54296875 160.31640625 C44.61611328 160.35830078 45.68925781 160.40019531 46.79492188 160.44335938 C47.91447266 160.48267578 49.03402344 160.52199219 50.1875 160.5625 C51.31865234 160.60568359 52.44980469 160.64886719 53.61523438 160.69335938 C56.41001025 160.7994901 59.20498898 160.90025397 62 161 C62 155.72 62 150.44 62 145 C60.59105469 145.03480469 59.18210938 145.06960937 57.73046875 145.10546875 C55.88282441 145.13360547 54.03516719 145.16090575 52.1875 145.1875 C51.25873047 145.21263672 50.32996094 145.23777344 49.37304688 145.26367188 C48.0340332 145.27817383 48.0340332 145.27817383 46.66796875 145.29296875 C45.43469849 145.31653442 45.43469849 145.31653442 44.17651367 145.34057617 C42 145 42 145 40.23364258 143.74658203 C38.71457039 141.59589087 38.61875524 140.37902886 38.59375 137.76171875 C38.57183594 136.94123047 38.54992187 136.12074219 38.52734375 135.27539062 C38.51832031 134.42138672 38.50929687 133.56738281 38.5 132.6875 C38.41776602 125.01037048 37.78744215 119.98191486 32.3125 114.125 C31.549375 113.42375 30.78625 112.7225 30 112 C31.49739583 110.86067708 32.99479167 109.72135417 34.4921875 108.58203125 C39.30726721 103.52993984 38.37588653 96.28305454 38.47851562 89.7734375 C38.50494141 88.9484375 38.53136719 88.1234375 38.55859375 87.2734375 C38.57204834 86.52497559 38.58550293 85.77651367 38.59936523 85.00537109 C39.11848847 82.40690781 39.84605301 81.52767483 42 80 C44.17651367 79.65942383 44.17651367 79.65942383 46.66796875 79.70703125 C47.56064453 79.71669922 48.45332031 79.72636719 49.37304688 79.73632812 C50.30181641 79.76146484 51.23058594 79.78660156 52.1875 79.8125 C53.12787109 79.82603516 54.06824219 79.83957031 55.03710938 79.85351562 C57.35831735 79.88886397 59.67923088 79.94267085 62 80 C62 74.72 62 69.44 62 64 C58.01865972 64.03320299 54.04273756 64.10063416 50.0625 64.1875 C48.38704102 64.19620117 48.38704102 64.19620117 46.67773438 64.20507812 C37.99034434 64.43436408 31.65703766 66.15542195 25.5625 72.5625 C22.92660414 76.67449754 21.75562446 79.40768326 21.65625 84.3515625 C21.61177734 85.87523438 21.61177734 85.87523438 21.56640625 87.4296875 C21.52197312 89.56770497 21.47770347 91.70572584 21.43359375 93.84375 C21.38912109 95.36355469 21.38912109 95.36355469 21.34375 96.9140625 C21.32505859 97.8417041 21.30636719 98.7693457 21.28710938 99.72509766 C21 102 21 102 19 104 C15.7421875 104.1953125 15.7421875 104.1953125 11.875 104.125 C9.95300781 104.09792969 9.95300781 104.09792969 7.9921875 104.0703125 C7.00476563 104.04710938 6.01734375 104.02390625 5 104 C6.98 103.01 6.98 103.01 9 102 C8.67 101.071875 8.34 100.14375 8 99.1875 C7 96 7 96 7 93 C6.72528096 88.41415149 6.38817018 83.83247966 6.0625 79.25 C5.97548828 77.98671875 5.88847656 76.7234375 5.79882812 75.421875 C5.71181641 74.1946875 5.62480469 72.9675 5.53515625 71.703125 C5.41732788 70.02718262 5.41732788 70.02718262 5.29711914 68.31738281 C4.9870033 64.85488976 4.49834064 61.43976585 4 58 C3.96036336 56.31296556 3.95611241 54.6244292 4 52.9375 C4.09840906 49.14260045 3.62662572 45.74234804 3 42 C2.61162317 38.44224422 2.3061062 34.87815896 2 31.3125 C1.9175 30.40177734 1.835 29.49105469 1.75 28.55273438 C0.92292155 19.03487069 0.50313984 9.55965693 0 0 Z " fill="#FEC023" transform="translate(95,0)"/>
<path d="M0 0 C15.84 0 31.68 0 48 0 C50.15419627 10.77098135 50.15419627 10.77098135 50.0078125 15.92578125 C49.98969302 20.73650406 50.49413723 25.63988087 51.50219727 30.34301758 C51.98183292 32.90303466 52.18540814 35.30628461 52.28125 37.90625 C52.33732422 39.26943359 52.33732422 39.26943359 52.39453125 40.66015625 C52.46484375 42.55338542 52.53515625 44.44661458 52.60546875 46.33984375 C52.66154297 47.70302734 52.66154297 47.70302734 52.71875 49.09375 C52.74904297 49.91552734 52.77933594 50.73730469 52.81054688 51.58398438 C53.00929999 54.11859887 53.49274687 56.51109836 54 59 C54.06523894 62.22117284 53.99899871 65.42744265 53.9375 68.6484375 C54.00349359 72.1873438 54.45086912 75.5044979 55 79 C57.30236723 95.92010928 57.30236723 95.92010928 56.97265625 104.01953125 C56.91929717 105.99426253 56.91929717 105.99426253 57.48413086 107.81616211 C58.05341489 110.2261222 58.19305706 112.44778151 58.28125 114.921875 C58.33732422 116.33726563 58.33732422 116.33726563 58.39453125 117.78125 C58.44673828 119.25078125 58.44673828 119.25078125 58.5 120.75 C58.73392923 127.23070602 59.13532328 133.57256971 60 140 C60 140.99 60 141.98 60 143 C60.23684867 145.06396698 60.47426733 147.12787045 60.71484375 149.19140625 C61.17333609 153.70724181 61.43689397 158.23579596 61.71875 162.765625 C61.96441315 165.59075117 62.44162219 168.22672355 63 171 C63 174.23736274 62.96240542 177.47037477 62.90234375 180.70703125 C62.96859072 183.16755118 62.96859072 183.16755118 63.46875 186.24609375 C64.03566178 190.25199242 64.33284472 194.21409082 64.5625 198.25 C64.60568359 198.95640625 64.64886719 199.6628125 64.69335938 200.390625 C64.86487674 203.26558281 65 206.1192749 65 209 C65.22055397 210.85895486 65.44147172 212.71794987 65.68359375 214.57421875 C66.13664996 218.04764966 66.5655245 221.52419602 67 225 C44.89 225 22.78 225 0 225 C0 150.75 0 76.5 0 0 Z " fill="#FF6E24" transform="translate(0,0)"/>
<path d="M0 0 C16.83 0 33.66 0 51 0 C50.67 2.64 50.34 5.28 50 8 C50.28475112 9.67565083 50.62288763 11.34269039 51 13 C51.25222239 16.24586198 51.37008087 19.49720987 51.5 22.75 C51.73707363 28.58025512 52.08069728 34.3170707 52.89648438 40.09863281 C53 42 53 42 52 45 C52.99 45.495 52.99 45.495 54 46 C54 51.28 54 56.56 54 62 C56.64 62.33 59.28 62.66 62 63 C62 63.33 62 63.66 62 64 C61.28980713 64.00410889 60.57961426 64.00821777 59.84790039 64.01245117 C56.58529275 64.04563743 53.32449096 64.11630937 50.0625 64.1875 C48.38704102 64.19620117 48.38704102 64.19620117 46.67773438 64.20507812 C37.99034434 64.43436408 31.65703766 66.15542195 25.5625 72.5625 C22.92660414 76.67449754 21.75562446 79.40768326 21.65625 84.3515625 C21.61177734 85.87523438 21.61177734 85.87523438 21.56640625 87.4296875 C21.52197312 89.56770497 21.47770347 91.70572584 21.43359375 93.84375 C21.38912109 95.36355469 21.38912109 95.36355469 21.34375 96.9140625 C21.32505859 97.8417041 21.30636719 98.7693457 21.28710938 99.72509766 C21 102 21 102 19 104 C15.7421875 104.1953125 15.7421875 104.1953125 11.875 104.125 C9.95300781 104.09792969 9.95300781 104.09792969 7.9921875 104.0703125 C7.00476563 104.04710938 6.01734375 104.02390625 5 104 C6.98 103.01 6.98 103.01 9 102 C8.67 101.071875 8.34 100.14375 8 99.1875 C7 96 7 96 7 93 C6.72528096 88.41415149 6.38817018 83.83247966 6.0625 79.25 C5.97548828 77.98671875 5.88847656 76.7234375 5.79882812 75.421875 C5.71181641 74.1946875 5.62480469 72.9675 5.53515625 71.703125 C5.41732788 70.02718262 5.41732788 70.02718262 5.29711914 68.31738281 C4.9870033 64.85488976 4.49834064 61.43976585 4 58 C3.96036336 56.31296556 3.95611241 54.6244292 4 52.9375 C4.09840906 49.14260045 3.62662572 45.74234804 3 42 C2.61162317 38.44224422 2.3061062 34.87815896 2 31.3125 C1.9175 30.40177734 1.835 29.49105469 1.75 28.55273438 C0.92292155 19.03487069 0.50313984 9.55965693 0 0 Z " fill="#FEA123" transform="translate(95,0)"/>
<path d="M0 0 C2.29141286 -0.05384521 4.58318188 -0.09272087 6.875 -0.125 C8.78925781 -0.15980469 8.78925781 -0.15980469 10.7421875 -0.1953125 C14 0 14 0 16 2 C16.23950195 4.21142578 16.23950195 4.21142578 16.23828125 6.9453125 C16.25439453 7.94046875 16.27050781 8.935625 16.28710938 9.9609375 C16.30384789 12.04681434 16.30931876 14.13281639 16.30273438 16.21875 C16.43927246 23.07208122 17.43657098 27.74970094 22 33 C24.00868968 34.86091545 24.00868968 34.86091545 26.125 35.9375 C27.11886719 36.50791016 27.11886719 36.50791016 28.1328125 37.08984375 C31.68033855 38.81907716 34.64806243 39.17215046 38.54296875 39.31640625 C40.15268555 39.37924805 40.15268555 39.37924805 41.79492188 39.44335938 C42.91447266 39.48267578 44.03402344 39.52199219 45.1875 39.5625 C46.31865234 39.60568359 47.44980469 39.64886719 48.61523438 39.69335938 C51.41001025 39.7994901 54.20498898 39.90025397 57 40 C57 34.72 57 29.44 57 24 C57.33 24 57.66 24 58 24 C58.02895225 27.29164829 58.0467823 30.58326399 58.0625 33.875 C58.07087891 34.81214844 58.07925781 35.74929687 58.08789062 36.71484375 C58.09111328 37.61074219 58.09433594 38.50664062 58.09765625 39.4296875 C58.10289307 40.25710449 58.10812988 41.08452148 58.11352539 41.93701172 C58 44 58 44 57 46 C57.99 46.495 57.99 46.495 59 47 C58.97679687 48.12535156 58.95359375 49.25070313 58.9296875 50.41015625 C58.80725665 59.06193601 59.1677969 67.2686116 60.4921875 75.83984375 C61.35748475 82.10616913 61.45374187 88.4490643 61.65795898 94.76464844 C61.68962158 95.67375977 61.72128418 96.58287109 61.75390625 97.51953125 C61.77783447 98.33526611 61.8017627 99.15100098 61.82641602 99.99145508 C61.88182211 102.07076173 61.88182211 102.07076173 63 104 C46.5 104 30 104 13 104 C11.82664821 92.85315795 10.67820743 81.79357989 9.9375 70.625 C9.78030231 68.32549658 9.62275182 66.02601725 9.46484375 63.7265625 C9.38991699 62.62078857 9.31499023 61.51501465 9.23779297 60.37573242 C8.91794528 55.83514309 8.55501349 51.29829141 8.18579102 46.76147461 C8.03165803 44.47054392 7.96571809 42.23135427 8 39.9375 C8.12176753 37.16155874 8.12176753 37.16155874 7.53344727 35.18310547 C6.87691626 32.49628614 6.67515693 29.8908272 6.46484375 27.1328125 C6.37783203 25.99972656 6.29082031 24.86664063 6.20117188 23.69921875 C6.11416016 22.51972656 6.02714844 21.34023437 5.9375 20.125 C5.84662109 18.95324219 5.75574219 17.78148437 5.66210938 16.57421875 C5.26899053 11.36613294 4.9497821 6.22558708 5 1 C3.35 1 1.7 1 0 1 C0 0.67 0 0.34 0 0 Z " fill="#FE9E23" transform="translate(100,121)"/>
<path d="M0 0 C1.74796875 0.02030273 1.74796875 0.02030273 3.53125 0.04101562 C6.39603293 0.07623837 9.26057678 0.13004129 12.125 0.1875 C12.125 5.4675 12.125 10.7475 12.125 16.1875 C9.99417969 16.26097656 9.99417969 16.26097656 7.8203125 16.3359375 C5.96352144 16.41095936 4.10675159 16.48650744 2.25 16.5625 C1.31285156 16.5934375 0.37570313 16.624375 -0.58984375 16.65625 C-1.48574219 16.69492188 -2.38164062 16.73359375 -3.3046875 16.7734375 C-4.13210449 16.8048584 -4.95952148 16.8362793 -5.81201172 16.86865234 C-8.09486085 17.01349137 -8.09486085 17.01349137 -9.875 19.1875 C-10.19504871 21.12121332 -10.19504871 21.12121332 -10.18359375 23.328125 C-10.20873047 24.15183594 -10.23386719 24.97554687 -10.25976562 25.82421875 C-10.29460519 27.55071255 -10.32592116 29.27728146 -10.35351562 31.00390625 C-10.56862871 37.7511117 -11.83180423 42.00175569 -16.5625 47.0625 C-17.325625 47.76375 -18.08875 48.465 -18.875 49.1875 C-17.92625 49.909375 -16.9775 50.63125 -16 51.375 C-13.02325462 53.63991496 -11.90467187 55.5788369 -10.875 59.1875 C-10.46683014 63.28268026 -10.41253826 67.39003058 -10.30859375 71.50195312 C-10.27894531 72.33017578 -10.24929687 73.15839844 -10.21875 74.01171875 C-10.19071289 75.14226685 -10.19071289 75.14226685 -10.16210938 76.2956543 C-10.02977787 78.42805889 -10.02977787 78.42805889 -7.875 80.1875 C-5.74639338 80.55702049 -5.74639338 80.55702049 -3.3046875 80.6015625 C-2.40878906 80.64023438 -1.51289063 80.67890625 -0.58984375 80.71875 C0.34730469 80.7496875 1.28445312 80.780625 2.25 80.8125 C3.19488281 80.85117188 4.13976562 80.88984375 5.11328125 80.9296875 C7.4501935 81.0241082 9.7875703 81.10689898 12.125 81.1875 C12.125 86.4675 12.125 91.7475 12.125 97.1875 C8.33210295 97.32360875 4.54418209 97.42215922 0.75 97.5 C-0.31089844 97.54189453 -1.37179688 97.58378906 -2.46484375 97.62695312 C-10.55936747 97.75110226 -17.39981699 96.29582131 -23.52490234 90.67285156 C-27.38135417 86.25153066 -29.09519513 82.58164613 -29.2890625 76.765625 C-29.32773438 75.74082031 -29.36640625 74.71601563 -29.40625 73.66015625 C-29.4371875 72.59667969 -29.468125 71.53320312 -29.5 70.4375 C-29.53867188 69.35855469 -29.57734375 68.27960938 -29.6171875 67.16796875 C-29.71134631 64.50798225 -29.79697387 61.8480006 -29.875 59.1875 C-33.06669793 57.49673065 -35.50803025 56.84805024 -39.125 56.5625 C-40.6925 56.43875 -42.26 56.315 -43.875 56.1875 C-43.875 51.2375 -43.875 46.2875 -43.875 41.1875 C-40.52213542 40.69921875 -37.16927083 40.2109375 -33.81640625 39.72265625 C-30.99544324 39.49764787 -30.99544324 39.49764787 -29.875 38.1875 C-29.77810162 36.57384153 -29.74298661 34.95638598 -29.734375 33.33984375 C-29.71503906 32.34146484 -29.69570312 31.34308594 -29.67578125 30.31445312 C-29.64236541 28.21568163 -29.62373239 26.11661396 -29.62109375 24.01757812 C-29.45374518 17.13426735 -28.34709689 12.51855397 -23.875 7.1875 C-21.4375 4.875 -21.4375 4.875 -18.875 3.1875 C-18.09769531 2.6615625 -17.32039063 2.135625 -16.51953125 1.59375 C-11.0507071 -0.51640723 -5.8034245 -0.12772774 0 0 Z " fill="#171412" transform="translate(144.875,63.8125)"/>
<path d="M0 0 C5.94 0 11.88 0 18 0 C18 74.25 18 148.5 18 225 C15.81398646 221.72097969 15.89944016 220.31529015 15.98828125 216.515625 C16.02225519 209.22255329 15.17551312 201.90821273 14.5234375 194.6484375 C13.62057636 184.59163861 12.77647099 174.55560466 12.34179688 164.46606445 C12.09539357 158.95153336 11.581852 153.48847568 11 148 C10.63890195 144.45900481 10.28705438 140.91715103 9.9375 137.375 C9.84662109 136.48554688 9.75574219 135.59609375 9.66210938 134.6796875 C9.26673606 130.63677243 8.95218904 126.66559492 9.00390625 122.6015625 C9.00065269 119.60178218 8.70547233 117.81313172 8 115 C7.80052145 113.17646825 7.63753505 111.34877805 7.5 109.51953125 C7.41806396 108.44566162 7.33612793 107.37179199 7.25170898 106.26538086 C7.16864502 105.12593018 7.08558105 103.98647949 7 102.8125 C6.91242432 101.64662354 6.82484863 100.48074707 6.73461914 99.27954102 C6.19379354 91.97663125 5.72308011 84.67272508 5.32421875 77.36083984 C5.10028076 73.358948 4.74504636 69.40552856 4.25 65.4296875 C3.76202233 60.68715456 3.5480371 55.91944757 3.28125 51.16015625 C2.98816972 46.4263098 2.48768202 41.71703215 2 37 C1.63538812 33.33428911 1.28421202 29.66744274 0.9375 26 C0.84662109 25.07960938 0.75574219 24.15921875 0.66210938 23.2109375 C0.15321524 17.77763172 -0.07118489 12.45320843 0.06469727 6.99609375 C0.1367853 4.92523395 0.1367853 4.92523395 -1 3 C-0.67 2.01 -0.34 1.02 0 0 Z " fill="#FFD324" transform="translate(207,0)"/>
<path d="M0 0 C0.89267578 0.00966797 1.78535156 0.01933594 2.70507812 0.02929688 C4.09823242 0.06700195 4.09823242 0.06700195 5.51953125 0.10546875 C6.45990234 0.11900391 7.40027344 0.13253906 8.36914062 0.14648438 C10.69068163 0.18183779 13.01106778 0.23118201 15.33203125 0.29296875 C14.34203125 0.95296875 13.35203125 1.61296875 12.33203125 2.29296875 C10.1054856 4.07838773 10.1054856 4.07838773 10.19677734 6.46020508 C10.24914551 7.3395874 10.30151367 8.21896973 10.35546875 9.125 C10.4328125 10.57036133 10.4328125 10.57036133 10.51171875 12.04492188 C10.57617188 13.05490234 10.640625 14.06488281 10.70703125 15.10546875 C10.81983659 17.09109907 10.93184224 19.07677502 11.04296875 21.0625 C11.09759277 21.94526611 11.1522168 22.82803223 11.20849609 23.73754883 C11.33046367 26.2605421 11.35302736 28.76747696 11.33203125 31.29296875 C11.99203125 31.62296875 12.65203125 31.95296875 13.33203125 32.29296875 C13.14640625 32.93234375 12.96078125 33.57171875 12.76953125 34.23046875 C12.31433496 37.41684276 12.59119677 40.15991885 13.0078125 43.3359375 C13.44633466 47.33547098 13.66936348 51.33900749 13.89453125 55.35546875 C13.93819824 56.13051758 13.98186523 56.90556641 14.02685547 57.70410156 C14.13043976 59.56695485 14.23150086 61.42994816 14.33203125 63.29296875 C14.99203125 63.62296875 15.65203125 63.95296875 16.33203125 64.29296875 C14.02985875 66.59514125 8.54760851 65.52587012 5.45703125 65.54296875 C4.53277344 65.56359375 3.60851562 65.58421875 2.65625 65.60546875 C1.76808594 65.610625 0.87992188 65.61578125 -0.03515625 65.62109375 C-0.85097168 65.63043945 -1.66678711 65.63978516 -2.50732422 65.64941406 C-4.66796875 65.29296875 -4.66796875 65.29296875 -6.43212891 64.03735352 C-7.9548664 61.88801345 -8.04920524 60.6728631 -8.07421875 58.0546875 C-8.09613281 57.23419922 -8.11804688 56.41371094 -8.140625 55.56835938 C-8.15416016 54.28735352 -8.15416016 54.28735352 -8.16796875 52.98046875 C-8.25020273 45.30333923 -8.8805266 40.27488361 -14.35546875 34.41796875 C-15.50015625 33.36609375 -15.50015625 33.36609375 -16.66796875 32.29296875 C-15.17057292 31.15364583 -13.67317708 30.01432292 -12.17578125 28.875 C-7.36070154 23.82290859 -8.29208222 16.57602329 -8.18945312 10.06640625 C-8.16302734 9.24140625 -8.13660156 8.41640625 -8.109375 7.56640625 C-8.09592041 6.81794434 -8.08246582 6.06948242 -8.06860352 5.29833984 C-7.14314345 0.66596384 -4.3318807 -0.08277479 0 0 Z " fill="#FCA923" transform="translate(141.66796875,79.70703125)"/>
<path d="M0 0 C5.94 0 11.88 0 18 0 C18.02463993 7.67211673 18.04283123 15.34421065 18.05493164 23.01635742 C18.05997377 25.62866619 18.06680725 28.24097211 18.07543945 30.85327148 C18.08751036 34.59880268 18.09322935 38.34429672 18.09765625 42.08984375 C18.10281754 43.26586655 18.10797882 44.44188934 18.11329651 45.65354919 C18.11340981 47.27511681 18.11340981 47.27511681 18.11352539 48.92944336 C18.115746 49.88652695 18.11796661 50.84361053 18.12025452 51.82969666 C18 54 18 54 17 55 C14.30345146 55.07319621 11.63308542 55.09242537 8.9375 55.0625 C7.79958008 55.05573242 7.79958008 55.05573242 6.63867188 55.04882812 C4.75908129 55.0370068 2.87953101 55.01907078 1 55 C0.13416321 48.30998772 -0.13390938 41.79987293 -0.09765625 35.05859375 C-0.0962413 34.05031021 -0.09482635 33.04202667 -0.09336853 32.00318909 C-0.08781605 28.81459458 -0.07527261 25.62607292 -0.0625 22.4375 C-0.05747885 20.26237081 -0.05291702 18.08724051 -0.04882812 15.91210938 C-0.03786222 10.60804528 -0.02063086 5.30403495 0 0 Z " fill="#191512" transform="translate(68,72)"/>
<path d="M0 0 C4.29 0 8.58 0 13 0 C13.33 0.99 13.66 1.98 14 3 C13.67 3.66 13.34 4.32 13 5 C13.66 5.33 14.32 5.66 15 6 C14.97679687 7.12535156 14.95359375 8.25070313 14.9296875 9.41015625 C14.80725665 18.06193601 15.1677969 26.2686116 16.4921875 34.83984375 C17.35748475 41.10616913 17.45374187 47.4490643 17.65795898 53.76464844 C17.68962158 54.67375977 17.72128418 55.58287109 17.75390625 56.51953125 C17.77783447 57.33526611 17.8017627 58.15100098 17.82641602 58.99145508 C17.88182211 61.07076173 17.88182211 61.07076173 19 63 C14.71 63 10.42 63 6 63 C4.40346613 57.96354559 3.5709128 53.17448644 3.18359375 47.8984375 C3.12220718 47.14011627 3.06082062 46.38179504 2.99757385 45.60049438 C2.80421679 43.19247039 2.62069008 40.78381649 2.4375 38.375 C2.31119608 36.78250046 2.18424795 35.19005188 2.05664062 33.59765625 C1.75155597 29.7710329 1.45555613 25.94377926 1.16299438 22.11618042 C1.00866021 20.11243679 0.84956424 18.10906159 0.69018555 16.10571289 C0.59906494 14.95578857 0.50794434 13.80586426 0.4140625 12.62109375 C0.33494629 11.63036865 0.25583008 10.63964355 0.17431641 9.61889648 C-0.04001807 6.39877618 -0.07500782 3.22533616 0 0 Z " fill="#FFAD24" transform="translate(144,162)"/>
<path d="M0 0 C5.28 0 10.56 0 16 0 C16 5.28 16 10.56 16 16 C10.72 16 5.44 16 0 16 C0 10.72 0 5.44 0 0 Z " fill="#161312" transform="translate(69,136)"/>
<path d="M0 0 C0.66 0 1.32 0 2 0 C2.02888146 3.31248187 2.04675799 6.62493167 2.0625 9.9375 C2.07087891 10.88302734 2.07925781 11.82855469 2.08789062 12.80273438 C2.09272461 14.15141602 2.09272461 14.15141602 2.09765625 15.52734375 C2.10551147 16.77632446 2.10551147 16.77632446 2.11352539 18.05053711 C2 20 2 20 1 21 C-1.69654854 21.07319621 -4.36691458 21.09242537 -7.0625 21.0625 C-7.82111328 21.05798828 -8.57972656 21.05347656 -9.36132812 21.04882812 C-11.24091871 21.0370068 -13.12046899 21.01907078 -15 21 C-14.67 20.34 -14.34 19.68 -14 19 C-9.38 19 -4.76 19 0 19 C0 12.73 0 6.46 0 0 Z " fill="#3C2714" transform="translate(84,106)"/>
</svg>
