<?xml version="1.0" encoding="UTF-8"?>
<svg version="1.1" xmlns="http://www.w3.org/2000/svg" width="100" height="100">
<path d="M0 0 C33 0 66 0 100 0 C100 33 100 66 100 100 C67 100 34 100 0 100 C0 67 0 34 0 0 Z " fill="#FAFAFA" transform="translate(0,0)"/>
<path d="M0 0 C-1.48302009 3.76140292 -3.50433303 5.37326416 -6.8125 7.625 C-7.66457031 8.21539062 -8.51664063 8.80578125 -9.39453125 9.4140625 C-16.99268189 14.03902376 -24.55886767 14.14559702 -33.2109375 14.09765625 C-34.17907379 14.0962413 -35.14721008 14.09482635 -36.14468384 14.09336853 C-39.22148799 14.08779365 -42.29821803 14.07524577 -45.375 14.0625 C-47.46744686 14.05748175 -49.55989487 14.05291941 -51.65234375 14.04882812 C-56.7682575 14.03783245 -61.88411621 14.02058515 -67 14 C-67 13.34 -67 12.68 -67 12 C-66.44813522 11.99635437 -65.89627045 11.99270874 -65.3276825 11.98895264 C-59.53501677 11.94683742 -53.74312215 11.87729334 -47.95092773 11.79248047 C-45.79508207 11.76441754 -43.63913632 11.74313072 -41.4831543 11.72900391 C-38.36715999 11.70737006 -35.25235066 11.66061643 -32.13671875 11.609375 C-30.71258919 11.60753204 -30.71258919 11.60753204 -29.25968933 11.60565186 C-20.69580151 11.42212424 -11.66370356 9.54344118 -5.4375 3.25 C-2.15336134 0 -2.15336134 0 0 0 Z " fill="#1C1C1C" transform="translate(81,80)"/>
<path d="M0 0 C2.4375 0.8125 2.4375 0.8125 5 2 C5.33 2.99 5.66 3.98 6 5 C6.99 5 7.98 5 9 5 C9 5.66 9 6.32 9 7 C9.66 7.33 10.32 7.66 11 8 C11 8.33 11 8.66 11 9 C11.99 9.33 12.98 9.66 14 10 C14 10.66 14 11.32 14 12 C14.66 12.33 15.32 12.66 16 13 C15.67 14.32 15.34 15.64 15 17 C10.96189555 15.65396518 9.52704924 13.34663277 7 10 C7 9.34 7 8.68 7 8 C6.4225 7.731875 5.845 7.46375 5.25 7.1875 C2.9674132 5.98280141 1.0262058 4.59201885 -1 3 C-0.67 2.01 -0.34 1.02 0 0 Z " fill="#808080" transform="translate(69,15)"/>
<path d="M0 0 C1.66611905 -0.042721 3.33382885 -0.04063832 5 0 C5.33 0.33 5.66 0.66 6 1 C6.515625 0.835 7.03125 0.67 7.5625 0.5 C11.2618805 -0.25884728 14.27340127 0.34932403 18 1 C18.99 1.66 19.98 2.32 21 3 C21 4.32 21 5.64 21 7 C20.113125 6.690625 19.22625 6.38125 18.3125 6.0625 C12.69122053 4.42489586 6.81447802 4.33225589 1 4 C0.67 2.68 0.34 1.36 0 0 Z " fill="#7F7F7F" transform="translate(45,10)"/>
<path d="M0 0 C1.32 0 2.64 0 4 0 C4.66 6.27 5.32 12.54 6 19 C4.68 19 3.36 19 2 19 C1.855625 18.030625 1.71125 17.06125 1.5625 16.0625 C1.32437659 13.13513227 1.32437659 13.13513227 0 12 C-0.04092937 9.66702567 -0.04241723 7.33294775 0 5 C0.66 4.67 1.32 4.34 2 4 C1.67 3.01 1.34 2.02 1 1 C0.67 1.99 0.34 2.98 0 4 C0 2.68 0 1.36 0 0 Z " fill="#7E7E7E" transform="translate(9,46)"/>
<path d="M0 0 C3.44857226 2.66480584 4.11143942 5.85338394 5 10 C4.67 10.99 4.34 11.98 4 13 C4.33 13.66 4.66 14.32 5 15 C4.01 15 3.02 15 2 15 C2 16.32 2 17.64 2 19 C2.99 19.33 3.98 19.66 5 20 C3.68 20 2.36 20 1 20 C0.86722656 19.13117187 0.73445313 18.26234375 0.59765625 17.3671875 C0.33275391 15.63855469 0.33275391 15.63855469 0.0625 13.875 C-0.11152344 12.73804688 -0.28554687 11.60109375 -0.46484375 10.4296875 C-0.95589266 7.28267331 -1.47018719 4.14069217 -2 1 C-1.34 0.67 -0.68 0.34 0 0 Z " fill="#727272" transform="translate(86,33)"/>
<path d="M0 0 C0.33 0.66 0.66 1.32 1 2 C1.66 2 2.32 2 3 2 C2.54554036 3.41791408 2.08625056 4.83428046 1.625 6.25 C1.36976562 7.03890625 1.11453125 7.8278125 0.8515625 8.640625 C0.04826333 10.86627958 -0.89711662 12.90931672 -2 15 C-3.32 14.67 -4.64 14.34 -6 14 C-5.38003999 12.2273959 -4.75384007 10.45697333 -4.125 8.6875 C-3.77695313 7.70136719 -3.42890625 6.71523438 -3.0703125 5.69921875 C-2 3 -2 3 0 0 Z " fill="#838383" transform="translate(15,28)"/>
<path d="M0 0 C1.32 0.33 2.64 0.66 4 1 C3.37619308 2.41719242 2.7508997 3.8337306 2.125 5.25 C1.77695313 6.03890625 1.42890625 6.8278125 1.0703125 7.640625 C0.09586095 9.78868608 -0.92986429 11.89829202 -2 14 C-3.32 13.34 -4.64 12.68 -6 12 C-4.02 8.04 -2.04 4.08 0 0 Z " fill="#797979" transform="translate(85,62)"/>
<path d="M0 0 C1.32 0.66 2.64 1.32 4 2 C3.67 3.32 3.34 4.64 3 6 C-0.57643579 6 -4.12176091 5.74637226 -7.6875 5.5 C-8.7403418 5.42845703 -8.7403418 5.42845703 -9.81445312 5.35546875 C-11.54303016 5.23787848 -13.27152348 5.11905865 -15 5 C-15 4.34 -15 3.68 -15 3 C-10.05 2.67 -5.1 2.34 0 2 C0 1.34 0 0.68 0 0 Z " fill="#242424" transform="translate(86,89)"/>
<path d="M0 0 C-1.48302009 3.76140292 -3.50433303 5.37326416 -6.8125 7.625 C-7.66457031 8.21539062 -8.51664063 8.80578125 -9.39453125 9.4140625 C-14.07557305 12.26339229 -17.50827117 13.25542925 -23 13 C-20.65091064 10.65091064 -19.02741341 10.28281109 -15.875 9.3125 C-10.73273706 7.53534474 -7.40275538 5.19482653 -3.55859375 1.390625 C-2 0 -2 0 0 0 Z " fill="#292929" transform="translate(81,80)"/>
<path d="M0 0 C1.32 0.33 2.64 0.66 4 1 C3.01 1 2.02 1 1 1 C1 1.66 1 2.32 1 3 C2.32 3 3.64 3 5 3 C5 2.01 5 1.02 5 0 C5.99 0.33 6.98 0.66 8 1 C8 1.66 8 2.32 8 3 C8.66 3 9.32 3 10 3 C10 3.66 10 4.32 10 5 C9.34 5 8.68 5 8 5 C7.67 5.66 7.34 6.32 7 7 C4.69 7 2.38 7 0 7 C0 4.69 0 2.38 0 0 Z " fill="#787878" transform="translate(49,45)"/>
<path d="M0 0 C1.66611905 -0.042721 3.33382885 -0.04063832 5 0 C6 1 6 1 6.125 3.5 C6 6 6 6 5 7 C3.33382885 7.04063832 1.66611905 7.042721 0 7 C0 4.69 0 2.38 0 0 Z " fill="#8C8C8C" transform="translate(51,58)"/>
<path d="M0 0 C7.57142857 3 7.57142857 3 10 6 C9.67 6.99 9.34 7.98 9 9 C7.68 8.67 6.36 8.34 5 8 C5 7.34 5 6.68 5 6 C3.68 5.34 2.36 4.68 1 4 C1 3.34 1 2.68 1 2 C0.34 1.67 -0.32 1.34 -1 1 C-0.67 0.67 -0.34 0.34 0 0 Z " fill="#7E7E7E" transform="translate(19,75)"/>
<path d="M0 0 C1.67542976 0.28604898 3.34385343 0.61781233 5 1 C4.67 2.65 4.34 4.3 4 6 C2.0625 6.5625 2.0625 6.5625 0 7 C-1 6 -1 6 -1.125 3.5 C-1 1 -1 1 0 0 Z " fill="#8B8B8B" transform="translate(31,45)"/>
<path d="M0 0 C0 0.99 0 1.98 0 3 C-5.95703125 4.85546875 -5.95703125 4.85546875 -8 5 C-9.76171875 3.55078125 -9.76171875 3.55078125 -11 2 C-9.73392393 1.46770674 -8.46189588 0.94955456 -7.1875 0.4375 C-6.47980469 0.14746094 -5.77210937 -0.14257812 -5.04296875 -0.44140625 C-3 -1 -3 -1 0 0 Z " fill="#858585" transform="translate(43,11)"/>
<path d="M0 0 C0.33 0.66 0.66 1.32 1 2 C1.66 2.33 2.32 2.66 3 3 C1.56988027 3.86646667 0.13059381 4.71781829 -1.3125 5.5625 C-2.51326172 6.27599609 -2.51326172 6.27599609 -3.73828125 7.00390625 C-6 8 -6 8 -9 7 C-7.625 5.5 -7.625 5.5 -6 4 C-5.34 4 -4.68 4 -4 4 C-3.67 3.34 -3.34 2.68 -3 2 C-2 1 -2 1 0 0 Z " fill="#717171" transform="translate(31,14)"/>
<path d="M0 0 C1.32 0 2.64 0 4 0 C4.33 1.98 4.66 3.96 5 6 C3.35 6.33 1.7 6.66 0 7 C0 4.69 0 2.38 0 0 Z " fill="#757575" transform="translate(37,45)"/>
<path d="M0 0 C1.66611905 -0.042721 3.33382885 -0.04063832 5 0 C5.33 0.33 5.66 0.66 6 1 C8.05396726 0.59070014 8.05396726 0.59070014 10 0 C9.67 0.99 9.34 1.98 9 3 C6.36 3.33 3.72 3.66 1 4 C0.67 2.68 0.34 1.36 0 0 Z " fill="#7D7D7D" transform="translate(45,10)"/>
<path d="M0 0 C2.88575819 0.39803561 3.82189513 0.79009069 5.75 3.0625 C6.1625 3.701875 6.575 4.34125 7 5 C6.67 5.66 6.34 6.32 6 7 C4.68 7 3.36 7 2 7 C0 1.125 0 1.125 0 0 Z " fill="#7B7B7B" transform="translate(14,68)"/>
<path d="M0 0 C0.66 0.66 1.32 1.32 2 2 C2.66 1.67 3.32 1.34 4 1 C5 3 6 5 7 7 C6.401875 6.814375 5.80375 6.62875 5.1875 6.4375 C2.83591238 5.77906313 2.83591238 5.77906313 0 7 C0 4.69 0 2.38 0 0 Z " fill="#656565" transform="translate(76,45)"/>
<path d="M0 0 C2.475 0.495 2.475 0.495 5 1 C4.67 1.99 4.34 2.98 4 4 C3.34 4 2.68 4 2 4 C2 4.99 2 5.98 2 7 C1.34 7 0.68 7 0 7 C0 4.69 0 2.38 0 0 Z " fill="#757575" transform="translate(18,45)"/>
<path d="M0 0 C0.99 0.33 1.98 0.66 3 1 C2.34 2.98 1.68 4.96 1 7 C-0.32 6.34 -1.64 5.68 -3 5 C-2.01 3.35 -1.02 1.7 0 0 Z " fill="#8B8B8B" transform="translate(82,69)"/>
<path d="M0 0 C1.65 0 3.3 0 5 0 C4.01 0.33 3.02 0.66 2 1 C2 1.66 2 2.32 2 3 C2.99 3.33 3.98 3.66 5 4 C4.01 4 3.02 4 2 4 C2 4.66 2 5.32 2 6 C2.99 6.33 3.98 6.66 5 7 C3.35 7 1.7 7 0 7 C0 4.69 0 2.38 0 0 Z " fill="#676767" transform="translate(45,58)"/>
<path d="M0 0 C1.32 0.66 2.64 1.32 4 2 C2.35 3.65 0.7 5.3 -1 7 C-1.33 5.35 -1.66 3.7 -2 2 C-1.34 2 -0.68 2 0 2 C0 1.34 0 0.68 0 0 Z " fill="#808080" transform="translate(19,23)"/>
<path d="M0 0 C2.475 0.99 2.475 0.99 5 2 C5 2.99 5 3.98 5 5 C3.35 4.67 1.7 4.34 0 4 C0 2.68 0 1.36 0 0 Z " fill="#929292" transform="translate(69,15)"/>
<path d="M0 0 C2 0 2 0 3.625 1.5 C4.07875 1.995 4.5325 2.49 5 3 C4.67 3.99 4.34 4.98 4 6 C1.9375 6.6875 1.9375 6.6875 0 7 C0 4.69 0 2.38 0 0 Z " fill="#606060" transform="translate(37,58)"/>
<path d="M0 0 C0.33 0.99 0.66 1.98 1 3 C1.66 3 2.32 3 3 3 C2.67 2.01 2.34 1.02 2 0 C2.66 0 3.32 0 4 0 C4 2.31 4 4.62 4 7 C2.68 7 1.36 7 0 7 C0 4.69 0 2.38 0 0 Z " fill="#535353" transform="translate(24,45)"/>
<path d="M0 0 C1.5 1.375 1.5 1.375 3 3 C3 3.66 3 4.32 3 5 C1.68 5.33 0.36 5.66 -1 6 C-1.33 4.35 -1.66 2.7 -2 1 C-1.34 0.67 -0.68 0.34 0 0 Z " fill="#828282" transform="translate(86,33)"/>
<path d="M0 0 C1.98 0.495 1.98 0.495 4 1 C3.67 2.32 3.34 3.64 3 5 C1.68 5 0.36 5 -1 5 C-0.67 3.35 -0.34 1.7 0 0 Z " fill="#757575" transform="translate(87,56)"/>
<path d="M0 0 C0.66 0.33 1.32 0.66 2 1 C2.625 4.0625 2.625 4.0625 3 7 C2.01 6.34 1.02 5.68 0 5 C-0.99 5.495 -0.99 5.495 -2 6 C-1.125 1.125 -1.125 1.125 0 0 Z " fill="#454545" transform="translate(65,45)"/>
<path d="M0 0 C0 0.99 0 1.98 0 3 C-2.95664519 4.4783226 -5.74229737 4.06032783 -9 4 C-8.360625 3.87625 -7.72125 3.7525 -7.0625 3.625 C-6.0415625 3.315625 -6.0415625 3.315625 -5 3 C-4.67 2.34 -4.34 1.68 -4 1 C-2 0 -2 0 0 0 Z " fill="#ABABAB" transform="translate(58,10)"/>
</svg>
