<?xml version="1.0" standalone="no"?>
<!DOCTYPE svg PUBLIC "-//W3C//DTD SVG 20010904//EN"
 "http://www.w3.org/TR/2001/REC-SVG-20010904/DTD/svg10.dtd">
<svg version="1.0" xmlns="http://www.w3.org/2000/svg"
 width="1519.000000pt" height="694.000000pt" viewBox="0 0 1519.000000 694.000000"
 preserveAspectRatio="xMidYMid meet">

<g transform="translate(0.000000,694.000000) scale(0.100000,-0.100000)"
fill="#000000" stroke="none">
<path d="M3723 5680 c-31 -12 -43 -41 -43 -99 0 -67 31 -106 84 -104 46 1 63
16 76 64 26 97 -36 171 -117 139z m71 -46 c10 -27 7 -99 -6 -112 -18 -18 -46
-14 -58 7 -14 27 -13 94 2 109 17 17 55 15 62 -4z"/>
<path d="M3568 5663 c-35 -14 -47 -31 -32 -46 4 -3 15 -2 24 3 15 8 19 4 24
-22 3 -17 6 -46 6 -64 0 -29 -4 -34 -22 -34 -13 0 -32 -3 -44 -6 -19 -5 -22 0
-28 48 -16 129 -20 134 -75 100 -34 -21 -28 -49 8 -37 16 5 21 2 21 -13 0 -11
3 -40 6 -66 6 -44 6 -46 -19 -46 -19 0 -24 -4 -20 -18 4 -16 11 -17 96 -5 51
6 109 12 130 12 30 1 37 5 37 21 0 15 -6 19 -22 17 -22 -2 -23 3 -32 86 -4 48
-11 87 -15 86 -3 0 -23 -7 -43 -16z"/>
<path d="M3890 5671 c-14 -4 -26 -15 -28 -25 -3 -16 0 -18 22 -12 l26 6 0 -65
0 -65 -30 0 c-19 0 -30 -5 -30 -14 0 -15 26 -20 188 -31 68 -5 82 -4 82 8 0 8
-9 17 -21 20 -19 5 -20 10 -13 91 6 83 6 86 -14 86 -35 0 -72 -19 -72 -36 0
-12 6 -15 25 -10 l25 6 -7 -62 c-3 -35 -7 -65 -9 -66 -1 -2 -21 -1 -43 3 l-41
7 0 84 c0 91 0 92 -60 75z"/>
<path d="M4193 5650 c-47 -19 -76 -105 -53 -159 14 -34 59 -56 95 -47 58 15
89 142 45 186 -11 11 -24 20 -29 20 -5 0 -15 2 -23 4 -7 3 -23 1 -35 -4z m55
-42 c30 -30 5 -128 -33 -128 -45 0 -57 42 -31 105 16 36 41 46 64 23z"/>
<path d="M3253 5615 c-60 -42 -15 -195 58 -195 82 0 112 91 58 179 -16 26 -25
31 -57 31 -20 0 -47 -7 -59 -15z m81 -37 c36 -59 26 -118 -20 -118 -28 0 -45
32 -47 88 -2 51 41 70 67 30z"/>
<path d="M4350 5592 c-39 -40 -51 -113 -23 -150 20 -27 57 -38 97 -28 30 7 57
59 59 112 2 39 -2 49 -26 70 -37 32 -72 31 -107 -4z m86 -24 c12 -19 5 -80
-12 -105 -17 -26 -46 -30 -64 -8 -13 15 -7 74 11 107 11 20 54 24 65 6z"/>
<path d="M3049 5557 c-31 -26 -28 -50 5 -41 19 5 24 -1 40 -51 10 -31 16 -58
14 -59 -2 -1 -13 -6 -25 -12 -15 -6 -20 -13 -14 -22 12 -19 133 17 129 38 -2
8 -14 15 -27 15 -21 0 -26 9 -46 75 -13 43 -28 76 -36 77 -8 2 -26 -7 -40 -20z"/>
<path d="M4580 5530 c-48 -48 -55 -137 -14 -169 69 -54 144 3 144 109 0 30 -6
43 -26 59 -34 27 -78 27 -104 1z m90 -61 c0 -34 -23 -85 -42 -92 -25 -8 -48
13 -48 44 0 34 23 85 42 92 25 8 48 -13 48 -44z"/>
<path d="M2899 5517 c-33 -25 -42 -56 -29 -103 24 -85 88 -117 144 -73 61 48
10 189 -68 189 -17 0 -38 -6 -47 -13z m90 -66 c7 -16 11 -42 9 -57 -3 -25 -7
-29 -33 -29 -26 0 -32 6 -49 49 l-21 48 24 19 c28 23 53 13 70 -30z"/>
<path d="M4747 5483 c-14 -13 -6 -33 13 -33 25 0 25 2 -5 -65 -22 -50 -26 -55
-44 -46 -27 15 -31 14 -31 -8 0 -13 14 -24 48 -36 26 -10 78 -33 116 -52 54
-28 71 -32 77 -21 6 8 2 18 -11 26 -18 13 -18 16 18 88 31 64 35 76 22 84 -24
15 -77 12 -84 -5 -3 -10 1 -15 13 -15 10 0 20 -3 24 -6 5 -5 -35 -98 -49 -113
-6 -6 -85 31 -82 38 2 4 16 39 32 79 25 62 27 75 15 83 -16 10 -63 12 -72 2z"/>
<path d="M2752 5445 c-18 -15 -32 -33 -32 -41 0 -17 26 -19 36 -2 5 8 18 -10
36 -47 27 -59 28 -60 8 -69 -23 -11 -27 -36 -5 -36 8 0 36 10 62 22 27 13 49
23 51 24 1 1 0 8 -4 17 -5 13 -10 14 -25 6 -18 -9 -24 -2 -57 71 l-38 82 -32
-27z"/>
<path d="M2615 5388 c-50 -27 -58 -73 -25 -138 23 -44 45 -60 88 -60 86 0 96
126 16 189 -30 23 -49 26 -79 9z m51 -36 c39 -27 57 -99 30 -121 -30 -25 -86
35 -86 93 0 30 30 46 56 28z"/>
<path d="M4989 5329 c-33 -36 -42 -61 -37 -110 2 -28 10 -38 40 -54 35 -18 40
-19 65 -5 71 40 97 140 47 179 -39 31 -80 27 -115 -10z m101 -49 c0 -34 -44
-90 -71 -90 -32 0 -40 31 -19 77 10 23 26 46 36 51 28 15 54 -3 54 -38z"/>
<path d="M2451 5281 c-12 -17 -18 -36 -15 -46 6 -15 8 -14 25 1 11 10 20 15
22 13 26 -37 57 -91 57 -98 0 -10 -69 -56 -74 -50 -1 2 -24 34 -50 72 -26 37
-49 67 -51 67 -1 0 -15 -16 -30 -36 -20 -26 -24 -39 -16 -47 8 -8 14 -8 23 1
7 7 15 12 20 12 7 0 68 -83 68 -93 0 -3 -15 -16 -34 -31 l-34 -26 -52 66 c-28
36 -57 63 -63 61 -21 -7 -47 -61 -37 -77 8 -13 11 -12 24 5 8 11 17 18 19 15
3 -3 21 -25 41 -50 35 -44 35 -45 16 -60 -13 -10 -17 -20 -11 -29 7 -11 32 3
112 61 57 41 132 92 167 113 49 30 60 41 51 51 -8 10 -16 11 -30 4 -19 -11
-26 -3 -84 98 -24 40 -38 40 -64 3z"/>
<path d="M5157 5256 c-4 -10 -1 -16 8 -16 27 0 25 -20 -7 -69 -30 -45 -35 -48
-52 -35 -11 7 -23 11 -27 8 -19 -11 -7 -30 39 -59 77 -49 192 -137 276 -213
62 -56 83 -69 93 -60 11 9 10 13 -4 23 -15 11 -14 16 14 51 17 22 43 50 57 63
14 14 26 28 26 33 0 9 -61 38 -80 38 -15 0 -12 -21 6 -34 14 -11 10 -18 -28
-59 l-43 -47 -33 31 -34 30 43 52 c23 29 49 60 57 69 14 16 12 19 -23 34 -37
15 -65 13 -65 -4 0 -5 9 -13 20 -18 18 -8 16 -12 -23 -58 l-43 -49 -34 30 -33
29 51 70 51 69 -41 18 c-30 14 -43 16 -52 7 -8 -8 -7 -15 7 -24 23 -18 22 -22
-15 -70 -17 -22 -33 -43 -34 -45 -2 -1 -19 9 -38 24 l-35 27 46 69 c51 76 50
86 -9 95 -27 5 -37 2 -41 -10z"/>
<path d="M2111 5034 c-43 -36 -42 -80 1 -130 41 -46 73 -59 110 -43 35 14 62
62 52 92 -15 47 -79 107 -116 107 -9 0 -30 -12 -47 -26z m77 -30 c28 -19 54
-68 46 -88 -12 -31 -44 -29 -80 5 -61 59 -33 130 34 83z"/>
<path d="M1935 4865 c-45 -44 -27 -113 40 -155 44 -27 71 -25 106 9 42 42 38
74 -15 127 -52 53 -92 58 -131 19z m104 -49 c34 -36 38 -62 9 -79 -37 -24
-118 55 -97 95 15 28 52 22 88 -16z"/>
<path d="M5584 4826 c-53 -53 -57 -85 -15 -127 43 -42 82 -36 139 22 42 43 45
97 6 128 -43 34 -80 27 -130 -23z m119 -17 c24 -38 -74 -118 -108 -89 -23 19
-18 45 17 79 35 35 73 39 91 10z"/>
<path d="M1822 4734 c-55 -39 -43 -113 25 -156 49 -30 90 -28 120 6 30 35 29
67 -3 106 -48 57 -101 73 -142 44z m84 -45 c41 -25 54 -63 30 -87 -15 -16 -19
-15 -53 3 -48 26 -73 66 -54 89 18 21 37 20 77 -5z"/>
<path d="M5754 4738 c-4 -6 1 -17 11 -24 10 -8 17 -16 14 -18 -2 -2 -24 -20
-49 -40 -42 -33 -46 -34 -62 -19 -13 12 -22 13 -29 6 -8 -8 4 -31 44 -81 31
-38 81 -108 112 -156 31 -47 60 -86 65 -86 16 0 22 21 9 36 -6 8 -10 16 -8 18
2 2 35 22 72 46 37 23 66 47 64 53 -7 22 -55 50 -74 43 -17 -7 -17 -8 0 -20 9
-7 17 -16 17 -19 0 -5 -93 -67 -102 -67 -12 0 -49 73 -40 79 50 34 132 95 132
97 0 2 -16 15 -35 30 -27 20 -39 24 -47 16 -9 -9 -9 -15 0 -24 18 -18 16 -22
-34 -57 -44 -32 -46 -33 -65 -15 -45 41 -43 49 26 104 36 28 65 55 65 60 0 7
-64 50 -75 50 -2 0 -7 -5 -11 -12z"/>
<path d="M1713 4587 c-19 -24 -23 -75 -7 -81 10 -4 18 1 21 14 7 26 10 26 66
-15 42 -32 46 -37 35 -55 -10 -15 -10 -22 0 -32 6 -6 13 -10 15 -7 34 40 67
103 63 116 -6 14 -9 14 -26 -2 -19 -17 -22 -17 -77 22 -79 54 -79 54 -90 40z"/>
<path d="M1630 4460 c-31 -31 -36 -68 -13 -98 27 -37 63 -61 100 -68 27 -5 37
-1 63 24 35 36 38 69 9 106 -43 55 -122 73 -159 36z m101 -37 c37 -22 48 -58
25 -81 -15 -16 -20 -15 -64 8 -46 24 -60 46 -48 76 7 19 52 18 87 -3z"/>
<path d="M5940 4359 c-44 -27 -59 -47 -60 -80 0 -43 35 -79 78 -79 38 0 97 29
119 59 19 24 15 65 -8 95 -26 33 -79 35 -129 5z m108 -51 c3 -22 -3 -32 -30
-48 -19 -12 -46 -19 -63 -18 -24 2 -31 8 -33 30 -3 22 3 32 30 48 19 12 46 19
63 18 24 -2 31 -8 33 -30z"/>
<path d="M1534 4296 c-3 -8 -4 -27 -2 -42 4 -33 28 -46 28 -15 0 12 2 21 5 21
6 0 107 -50 113 -55 2 -2 -6 -21 -17 -44 l-21 -40 -37 16 c-21 8 -55 24 -77
35 -46 24 -59 15 -54 -37 3 -40 28 -63 28 -26 0 12 3 21 7 21 15 0 113 -44
113 -51 0 -3 -7 -23 -15 -43 l-15 -36 -68 26 c-110 43 -104 44 -100 -11 3 -51
28 -78 28 -31 l0 25 60 -22 c57 -20 60 -23 55 -48 -4 -18 -1 -28 9 -32 11 -4
22 13 42 66 15 40 51 121 81 181 41 82 51 111 42 117 -8 5 -18 0 -27 -12 -13
-18 -15 -18 -82 16 -77 39 -88 41 -96 21z"/>
<path d="M6030 4198 c-79 -40 -91 -104 -28 -151 25 -18 31 -19 70 -8 104 31
133 126 51 169 -30 17 -42 15 -93 -10z m94 -34 c19 -18 19 -20 6 -44 -5 -10
-30 -26 -55 -35 -36 -14 -48 -15 -60 -5 -31 26 -10 67 45 89 35 14 46 13 64
-5z"/>
<path d="M6160 4047 c0 -7 5 -18 10 -23 8 -8 -7 -18 -47 -33 l-57 -22 -17 22
c-9 12 -21 19 -26 16 -14 -9 68 -258 82 -254 5 2 11 15 13 29 3 23 12 28 83
48 43 13 79 25 79 28 0 13 -46 72 -56 72 -18 0 -24 -13 -12 -27 15 -19 3 -28
-59 -46 l-51 -14 -15 43 -14 43 74 27 c41 15 77 34 80 41 6 16 -34 63 -54 63
-7 0 -13 -6 -13 -13z"/>
<path d="M1403 3930 c-26 -11 -43 -40 -43 -75 0 -40 16 -61 60 -79 51 -20 89
-20 117 -1 27 19 39 75 24 104 -22 40 -114 70 -158 51z m105 -57 c17 -10 22
-22 20 -41 -3 -25 -7 -27 -45 -26 -45 1 -93 26 -93 49 0 7 7 21 16 30 19 18
63 13 102 -12z"/>
<path d="M1490 3680 c0 -24 -14 -25 -95 -5 -33 8 -66 14 -72 15 -20 0 -16 -66
5 -86 16 -17 17 -17 20 10 3 23 7 27 25 23 12 -3 39 -9 60 -12 33 -6 37 -11
37 -36 0 -18 5 -29 14 -29 18 0 47 121 31 132 -17 13 -25 9 -25 -12z"/>
<path d="M1302 3554 c-55 -46 -28 -123 49 -144 73 -20 122 5 135 67 4 23 0 36
-19 58 -20 24 -33 29 -83 33 -47 3 -64 0 -82 -14z m122 -34 c32 -12 36 -54 7
-70 -20 -10 -72 -4 -103 12 -18 9 -25 48 -11 61 10 10 78 8 107 -3z"/>
<path d="M1294 3378 c-24 -11 -44 -48 -44 -78 0 -10 10 -31 23 -46 33 -38 119
-46 158 -15 53 41 45 111 -16 136 -39 17 -90 18 -121 3z m106 -41 c35 -18 34
-58 -2 -71 -43 -15 -102 3 -106 33 -7 45 53 66 108 38z"/>
<path d="M1420 3190 c0 -18 -7 -20 -85 -20 -93 0 -98 -4 -75 -64 13 -35 45
-36 36 -1 -6 25 -6 25 59 25 63 0 65 -1 65 -25 0 -18 5 -25 20 -25 18 0 20 7
20 65 0 58 -2 65 -20 65 -13 0 -20 -7 -20 -20z"/>
<path d="M2813 3119 c-14 -14 -17 -87 -5 -105 5 -8 64 -13 177 -16 112 -3 179
-9 196 -17 57 -28 71 -114 25 -160 -26 -26 -29 -26 -207 -31 -145 -4 -182 -8
-189 -20 -5 -8 -10 -86 -10 -172 0 -151 1 -158 21 -169 27 -14 99 -6 110 13 5
7 9 57 9 111 l0 97 108 0 c129 0 197 17 249 63 50 44 75 105 75 182 -1 96 -41
163 -125 207 -39 21 -57 23 -232 26 -143 3 -193 0 -202 -9z"/>
<path d="M3572 3122 c-9 -6 -12 -27 -10 -63 l3 -54 180 -5 c156 -4 184 -8 213
-25 53 -32 62 -104 17 -142 -25 -22 -34 -23 -195 -23 -93 0 -180 -4 -194 -10
l-26 -10 0 -175 0 -175 26 -10 c36 -14 67 -12 90 4 16 12 19 29 22 125 l4 111
82 0 82 0 73 -115 c40 -63 81 -119 91 -125 41 -22 130 -6 130 23 0 7 -34 65
-75 127 l-75 115 35 18 c19 9 47 36 63 59 24 37 27 51 27 128 0 77 -3 91 -27
128 -15 22 -49 54 -75 69 -48 28 -49 28 -248 31 -110 1 -206 -1 -213 -6z"/>
<path d="M4549 3116 c-164 -62 -257 -228 -228 -408 13 -79 40 -130 103 -193
57 -57 151 -101 193 -90 22 5 24 10 21 63 -3 54 -5 58 -38 74 -94 46 -124 82
-140 168 -8 43 -7 65 6 112 20 69 54 108 123 141 l46 22 0 60 c0 57 -1 60 -25
62 -14 1 -41 -4 -61 -11z"/>
<path d="M4713 3119 c-7 -7 -13 -34 -13 -60 0 -49 9 -62 50 -74 103 -30 163
-166 129 -288 -14 -51 -71 -113 -117 -128 -48 -15 -62 -34 -62 -86 0 -59 23
-71 93 -48 101 33 182 115 218 222 42 127 11 274 -78 369 -63 68 -192 122
-220 93z"/>
<path d="M5243 3119 c-7 -7 -13 -34 -13 -60 0 -27 5 -51 13 -56 6 -4 93 -10
191 -13 l179 -5 20 -27 c26 -35 16 -73 -26 -98 -28 -18 -51 -20 -192 -20 -112
0 -165 -4 -173 -12 -7 -7 -12 -30 -12 -53 0 -23 5 -46 12 -53 8 -8 62 -12 178
-12 91 0 181 -5 201 -10 45 -13 67 -49 53 -88 -16 -46 -43 -52 -239 -52 -127
0 -185 -4 -193 -12 -7 -7 -12 -33 -12 -60 0 -69 7 -71 229 -66 166 3 191 6
236 26 63 29 83 48 106 97 34 75 21 154 -38 216 l-24 26 20 34 c60 99 23 225
-83 282 -37 20 -58 22 -231 25 -143 3 -193 0 -202 -9z"/>
<path d="M6030 3111 c-13 -25 -14 -650 0 -671 6 -10 26 -15 60 -15 34 0 54 5
60 15 15 23 13 663 -2 678 -7 7 -33 12 -60 12 -37 0 -50 -4 -58 -19z"/>
<path d="M6702 3118 c-7 -7 -12 -33 -12 -60 0 -37 4 -50 19 -58 24 -12 480
-14 499 -1 19 11 27 83 13 110 -11 21 -16 21 -259 21 -180 0 -251 -3 -260 -12z"/>
<path d="M7443 3124 c-28 -12 -8 -48 115 -211 70 -93 143 -190 162 -216 19
-25 43 -46 52 -47 10 0 42 32 74 73 32 39 73 92 93 117 l36 45 5 -225 5 -224
32 -9 c45 -13 82 -1 94 30 6 16 9 147 7 340 -3 354 2 333 -86 333 l-52 0 -61
-82 c-33 -46 -76 -106 -97 -135 -20 -29 -42 -51 -49 -50 -6 1 -56 61 -111 132
l-99 130 -54 2 c-30 1 -60 -1 -66 -3z"/>
<path d="M8573 3123 c-6 -5 -45 -89 -87 -188 -42 -99 -88 -206 -102 -238 -20
-46 -23 -61 -14 -73 17 -20 113 -19 131 2 7 8 38 77 70 152 31 75 61 136 65
136 5 -1 28 -48 52 -105 24 -57 56 -134 72 -172 17 -37 30 -69 30 -72 0 -3
-105 -6 -232 -7 l-233 -3 -17 -35 c-22 -45 -23 -86 -2 -94 9 -3 159 -6 334 -6
363 0 360 -1 336 68 -8 21 -23 58 -34 83 -11 24 -39 89 -62 144 -23 55 -53
125 -66 155 -13 30 -43 100 -67 155 l-43 100 -60 3 c-32 1 -64 -1 -71 -5z"/>
<path d="M9102 3118 c-7 -7 -12 -33 -12 -60 0 -57 15 -68 89 -68 60 0 81 17
81 66 0 63 -13 74 -83 74 -36 0 -68 -5 -75 -12z"/>
<path d="M9331 3116 c-8 -9 -11 -110 -9 -352 l3 -339 53 -3 c31 -2 60 2 68 9
11 9 14 61 14 285 l0 274 98 0 c63 0 102 4 110 12 7 7 12 33 12 58 0 25 -5 51
-12 58 -18 18 -322 17 -337 -2z"/>
<path d="M9872 3118 c-13 -13 -17 -183 -6 -212 8 -20 103 -23 122 -4 15 15 16
181 2 209 -8 15 -21 19 -58 19 -27 0 -53 -5 -60 -12z"/>
<path d="M10418 3114 c-63 -19 -148 -98 -184 -171 -26 -53 -29 -67 -29 -168 0
-105 2 -114 33 -177 39 -80 103 -140 173 -163 73 -25 89 -16 89 51 0 51 -2 56
-31 72 -94 51 -128 109 -129 215 0 97 31 156 105 198 l55 31 0 52 c0 46 -12
77 -29 75 -4 0 -27 -7 -53 -15z"/>
<path d="M10573 3119 c-7 -7 -13 -32 -13 -55 0 -44 19 -74 47 -74 22 0 85 -49
108 -84 19 -29 24 -31 80 -31 l60 0 -1 37 c-2 56 -66 136 -140 175 -71 38
-124 49 -141 32z"/>
<path d="M11351 3112 c-12 -22 -3 -36 187 -287 84 -110 140 -175 151 -175 11
0 51 44 102 109 46 61 87 110 92 110 4 1 7 -91 7 -204 0 -192 1 -206 20 -225
22 -22 54 -25 94 -10 l26 10 0 340 0 340 -23 5 c-13 4 -43 5 -68 3 -44 -3 -44
-4 -141 -133 -54 -71 -102 -131 -107 -133 -5 -2 -55 58 -111 133 l-102 135
-59 0 c-46 0 -60 -4 -68 -18z"/>
<path d="M12286 3114 c-18 -17 -21 -80 -6 -104 8 -13 49 -15 249 -18 159 -2
247 1 261 8 16 8 20 21 20 58 0 27 -5 53 -12 60 -9 9 -79 12 -254 12 -207 0
-245 -2 -258 -16z"/>
<path d="M13023 3119 c-15 -15 -17 -87 -3 -109 7 -12 43 -16 182 -20 205 -6
225 -13 270 -99 48 -91 34 -211 -32 -280 -42 -44 -78 -51 -249 -51 -179 0
-181 -1 -181 -74 0 -65 12 -69 204 -64 159 3 175 6 228 30 78 36 123 80 161
157 30 61 32 73 32 171 0 97 -2 110 -30 163 -36 70 -82 116 -155 153 -54 28
-59 29 -235 32 -135 2 -183 0 -192 -9z"/>
<path d="M13850 3111 c-15 -28 -13 -183 3 -205 10 -13 24 -17 67 -14 l55 3 3
109 c3 124 2 126 -70 126 -37 0 -50 -4 -58 -19z"/>
<path d="M14420 3090 c-22 -43 -110 -247 -110 -255 0 -2 -15 -37 -34 -77 -45
-98 -50 -116 -36 -133 16 -19 113 -20 127 -2 6 6 27 53 48 102 21 50 46 109
56 132 11 23 19 47 19 52 0 36 25 -7 79 -136 34 -82 68 -163 76 -180 l15 -33
-230 0 c-228 0 -230 0 -245 -23 -8 -13 -20 -38 -26 -56 -21 -60 -16 -61 342
-61 175 0 324 3 333 6 32 12 37 -4 -149 434 -128 302 -106 270 -181 270 l-64
0 -20 -40z"/>
<path d="M1294 3056 c-35 -15 -44 -32 -44 -81 0 -44 38 -75 91 -75 76 0 118
31 118 85 0 70 -84 106 -165 71z m107 -36 c11 -6 19 -21 19 -35 0 -28 -26 -45
-70 -45 -79 0 -98 65 -25 83 34 8 56 7 76 -3z"/>
<path d="M1428 2878 c-3 -21 -10 -24 -83 -31 -44 -5 -82 -11 -84 -13 -8 -7 32
-84 44 -84 19 0 25 12 15 31 -11 19 -15 17 91 34 24 4 27 1 32 -38 3 -23 3
-45 -1 -48 -4 -3 -41 -12 -82 -18 -41 -7 -76 -14 -79 -17 -11 -10 33 -74 51
-74 19 0 24 15 8 25 -22 14 -7 22 55 31 61 9 64 9 67 -10 2 -12 11 -22 22 -24
17 -4 18 0 11 35 -4 21 -13 78 -19 128 -9 69 -15 91 -28 93 -11 2 -18 -5 -20
-20z"/>
<path d="M9878 2840 c-16 -10 -18 -31 -18 -205 0 -188 1 -195 21 -206 27 -14
99 -6 110 13 11 17 11 369 0 387 -11 17 -91 25 -113 11z"/>
<path d="M13862 2834 c-21 -15 -22 -20 -22 -199 0 -179 1 -184 22 -199 26 -18
71 -21 99 -6 18 10 19 23 19 205 0 182 -1 195 -19 205 -28 15 -73 12 -99 -6z"/>
<path d="M6694 2826 c-3 -7 -4 -35 -2 -62 l3 -49 240 0 240 0 0 60 0 60 -238
3 c-196 2 -238 0 -243 -12z"/>
<path d="M12276 2824 c-9 -24 -7 -73 4 -95 10 -18 24 -19 238 -19 164 0 231 3
240 12 7 7 12 29 12 49 0 73 14 69 -250 69 -208 0 -239 -2 -244 -16z"/>
<path d="M10727 2653 c-43 -53 -89 -93 -105 -93 -38 0 -62 -29 -62 -73 0 -61
10 -71 60 -63 112 18 240 135 240 219 0 29 -16 37 -72 37 -31 0 -44 -6 -61
-27z"/>
<path d="M7442 2658 c-8 -8 -12 -48 -12 -115 0 -102 0 -104 26 -113 40 -16 72
-12 95 11 19 19 21 30 17 115 -2 71 -7 97 -18 104 -21 14 -94 12 -108 -2z"/>
<path d="M11356 2654 c-12 -12 -16 -37 -16 -105 0 -76 3 -92 20 -109 22 -22
54 -25 94 -10 26 9 26 11 26 113 0 67 -4 107 -12 115 -18 18 -94 15 -112 -4z"/>
<path d="M1383 2609 c-45 -13 -76 -56 -69 -94 10 -47 38 -68 89 -68 111 2 165
94 90 153 -27 21 -59 24 -110 9z m95 -41 c36 -36 -10 -81 -80 -76 -40 3 -43 5
-43 33 0 25 5 32 35 42 46 15 73 16 88 1z"/>
<path d="M6232 2548 c-7 -7 -12 -34 -12 -60 0 -43 3 -50 26 -58 14 -6 67 -10
119 -10 52 0 105 4 119 10 23 8 26 15 26 58 0 26 -5 53 -12 60 -8 8 -52 12
-133 12 -81 0 -125 -4 -133 -12z"/>
<path d="M6702 2548 c-7 -7 -12 -33 -12 -60 0 -37 4 -50 19 -58 12 -6 112 -10
255 -10 264 0 266 1 266 70 0 70 -2 70 -274 70 -175 0 -245 -3 -254 -12z"/>
<path d="M12280 2541 c-15 -29 -12 -87 6 -105 13 -14 50 -16 250 -16 143 0
243 4 255 10 15 8 19 21 19 58 0 27 -5 53 -12 60 -9 9 -80 12 -260 12 -234 0
-248 -1 -258 -19z"/>
<path d="M1537 2423 c-4 -3 -7 -16 -7 -29 0 -19 -12 -26 -80 -49 -86 -29 -86
-28 -43 -82 13 -16 22 -20 33 -13 12 7 12 12 2 22 -20 20 -15 25 47 46 l60 20
9 -26 c6 -15 13 -34 17 -43 5 -13 -11 -23 -74 -49 -45 -18 -81 -36 -81 -40 0
-15 47 -60 63 -60 19 0 23 15 7 25 -5 3 -10 10 -10 14 0 9 108 56 114 50 2 -2
11 -21 20 -42 l15 -38 -74 -34 c-41 -19 -75 -40 -75 -48 0 -22 47 -60 66 -53
16 6 16 8 -1 26 -17 19 -16 20 40 45 32 14 59 25 61 25 2 0 13 -18 24 -40 l20
-40 -69 -35 c-38 -19 -73 -40 -77 -46 -10 -18 48 -70 66 -59 12 7 12 12 2 22
-20 20 -15 26 40 54 l51 26 16 -21 c10 -13 21 -18 29 -12 10 6 1 33 -41 117
-56 111 -115 255 -138 332 -12 41 -19 49 -32 35z"/>
<path d="M1669 1887 c-19 -12 -40 -36 -48 -51 -12 -25 -11 -33 3 -63 30 -62
101 -64 166 -3 36 34 40 75 9 114 -27 34 -82 35 -130 3z m111 -37 c12 -23 -10
-53 -55 -74 -62 -30 -102 16 -52 62 26 25 67 41 85 35 7 -3 17 -13 22 -23z"/>
<path d="M1835 1790 c-3 -5 -1 -18 4 -28 9 -17 1 -26 -59 -67 -74 -51 -78 -65
-28 -91 37 -19 64 -3 34 19 -17 12 -14 16 34 51 l53 38 23 -29 c13 -15 23 -33
21 -40 -1 -6 -30 -33 -64 -60 -34 -27 -58 -54 -55 -59 17 -23 63 -44 78 -36
14 8 14 11 -6 25 -21 15 -21 15 31 55 52 39 54 40 67 21 10 -15 17 -17 27 -9
11 9 -2 32 -63 115 -42 57 -80 104 -84 104 -4 1 -10 -3 -13 -9z"/>
<path d="M1995 1552 c-51 -11 -105 -74 -105 -122 0 -34 44 -70 86 -70 51 0
114 62 114 112 0 50 -48 90 -95 80z m50 -52 c18 -20 18 -21 -1 -47 -36 -48
-69 -67 -93 -54 -37 20 -22 69 32 101 40 25 40 25 62 0z"/>
<path d="M5800 1443 c-8 -3 -67 -58 -132 -123 -434 -439 -943 -691 -1543 -765
-101 -13 -362 -15 -1686 -15 -1083 0 -1576 -3 -1596 -11 -34 -13 -43 -25 -43
-66 0 -68 -121 -63 1592 -63 1001 0 1592 4 1675 11 148 12 382 56 533 101 434
128 840 375 1161 705 135 139 147 160 112 201 -20 23 -50 33 -73 25z"/>
<path d="M2104 1346 c-53 -52 -58 -92 -19 -131 39 -39 79 -34 131 19 52 51 56
80 18 125 -38 46 -75 42 -130 -13z m104 -8 c19 -19 14 -44 -18 -78 -22 -23
-36 -31 -57 -28 -42 5 -43 42 -2 84 35 36 57 42 77 22z"/>
<path d="M2282 1298 c-9 -9 -8 -16 5 -30 18 -20 21 -14 -51 -101 -41 -51 -40
-58 11 -75 25 -8 34 -8 44 4 10 12 8 16 -9 21 -12 3 -22 7 -22 10 0 10 73 93
82 93 6 0 23 -11 38 -24 l29 -24 -49 -70 c-55 -77 -53 -89 10 -94 38 -3 51 14
20 28 -20 9 -19 11 15 61 l35 52 35 -20 c19 -12 35 -26 35 -31 0 -6 -18 -40
-41 -76 -44 -70 -43 -79 13 -88 27 -5 37 -2 41 10 5 11 1 16 -13 16 -27 0 -25
11 11 70 29 48 31 49 54 34 20 -13 23 -13 29 2 4 9 5 17 4 18 -25 13 -217 146
-259 180 -42 34 -59 42 -67 34z"/>
<path d="M2607 1039 c-24 -14 -57 -82 -57 -119 0 -58 68 -97 116 -66 64 43 85
138 38 175 -29 23 -68 27 -97 10z m83 -49 c7 -12 3 -30 -13 -61 -19 -37 -27
-44 -52 -44 -24 0 -31 5 -33 23 -7 50 41 118 74 105 8 -3 19 -13 24 -23z"/>
<path d="M2756 985 c-2 -7 4 -19 14 -27 19 -13 18 -16 -15 -87 -19 -40 -33
-77 -30 -81 9 -15 84 -16 90 -2 8 21 7 22 -15 22 -25 0 -25 9 2 67 13 27 23
49 24 51 1 2 76 -27 81 -32 2 -2 -11 -38 -29 -80 -26 -65 -29 -79 -17 -87 19
-12 79 -11 79 1 0 6 0 13 1 18 0 4 -9 9 -19 12 -20 5 -20 6 2 60 20 49 25 55
49 52 50 -6 29 24 -35 50 -35 14 -88 37 -120 51 -44 21 -57 23 -62 12z"/>
<path d="M3014 853 c-9 -10 -23 -32 -30 -50 -31 -73 -7 -129 58 -139 30 -5 41
-2 62 19 29 29 49 95 40 132 -13 51 -93 74 -130 38z m81 -30 c32 -31 -5 -123
-50 -123 -40 0 -45 62 -9 118 17 26 36 28 59 5z"/>
<path d="M6304 724 c-35 -34 -26 -65 34 -126 l46 -48 -606 0 c-597 0 -606 0
-632 -21 -30 -23 -34 -63 -10 -94 14 -20 30 -20 637 -25 l621 -5 -52 -58 c-29
-31 -52 -66 -52 -78 0 -26 43 -69 70 -69 40 0 270 240 270 281 0 23 -131 165
-213 230 -57 46 -79 48 -113 13z"/>
</g>
</svg>
