<?xml version="1.0" encoding="UTF-8"?>
<svg version="1.1" xmlns="http://www.w3.org/2000/svg" width="1231" height="1232">
<path d="M0 0 C1.14726563 0.35674805 2.29453125 0.71349609 3.4765625 1.08105469 C30.07567642 9.43531662 55.88752377 19.90538829 81 32 C82.175625 32.56589844 83.35125 33.13179687 84.5625 33.71484375 C114.42560873 48.15008111 142.90269795 64.85123989 170 84 C170.72574219 84.51175781 171.45148437 85.02351563 172.19921875 85.55078125 C180.48433397 91.41168031 188.6606215 97.39589966 196.625 103.6875 C197.27090088 104.19273193 197.91680176 104.69796387 198.58227539 105.21850586 C200.09473762 106.43085485 201.55370803 107.70942973 203 109 C203 109.66 203 110.32 203 111 C201.09522989 112.50392942 199.1881421 113.88280873 197.1875 115.25 C195.89220156 116.15478063 194.59798773 117.06111541 193.3046875 117.96875 C192.60698242 118.45730469 191.90927734 118.94585937 191.19042969 119.44921875 C187.35825695 122.16232187 183.58718048 124.95773867 179.8125 127.75 C178.61016724 128.63800293 178.61016724 128.63800293 177.38354492 129.54394531 C175.74063924 130.7574793 174.09798099 131.97134831 172.45556641 133.18554688 C168.47350788 136.12794685 164.48656062 139.0637044 160.5 142 C158.91664211 143.16663334 157.3333088 144.33330004 155.75 145.5 C146.25 152.5 136.75 159.5 127.25 166.5 C126.46560547 167.0779834 125.68121094 167.6559668 124.87304688 168.25146484 C123.29625671 169.41329315 121.71943401 170.5750773 120.14257812 171.73681641 C116.08386073 174.72714107 112.02578257 177.7183273 107.96875 180.7109375 C99.66546671 186.83459881 91.3585221 192.95181098 83 199 C78.22396571 196.54079535 73.69673388 193.83433425 69.2734375 190.78295898 C12.2069817 151.5104903 -57.7342054 128.72701128 -126 119.75 C-127.22662354 119.58677246 -128.45324707 119.42354492 -129.71704102 119.25537109 C-145.8349092 117.23512438 -161.95971245 116.79117415 -178.1875 116.8125 C-179.48068146 116.81340637 -179.48068146 116.81340637 -180.79998779 116.81433105 C-289.71854078 117.0193801 -396.33977457 153.45631756 -500 240 C-500.91007812 240.82886719 -501.82015625 241.65773438 -502.7578125 242.51171875 C-505.27882633 244.81424471 -507.79373745 247.12296896 -510.30371094 249.4375 C-511.49563467 250.53541478 -512.68913574 251.63161844 -513.88378906 252.7265625 C-523.53565857 261.46944677 -523.53565857 261.46944677 -532.34765625 271.03515625 C-534.40099886 273.47683788 -536.57699119 275.78926978 -538.75 278.125 C-544.04574095 283.93426734 -548.88123223 290.04512365 -553.66943359 296.27539062 C-554.9109296 297.88455169 -556.16778654 299.48182898 -557.42578125 301.078125 C-569.84796039 316.93622604 -580.94589069 333.55014362 -591 351 C-591.41088867 351.71140137 -591.82177734 352.42280273 -592.24511719 353.15576172 C-594.52024508 357.11050793 -596.75061645 361.08748869 -598.9453125 365.08740234 C-599.9710902 366.94757423 -601.01606318 368.7959253 -602.0625 370.64453125 C-630.29319597 421.33652875 -646.27183525 479.70126693 -653 537 C-653.11859375 537.98822754 -653.2371875 538.97645508 -653.359375 539.99462891 C-657.39137684 575.62864514 -656.99374317 613.4874297 -652 649 C-651.90525391 649.68656677 -651.81050781 650.37313354 -651.71289062 651.08050537 C-640.37579575 732.85069152 -608.31729488 811.09567637 -557 876 C-556.47599609 876.66531738 -555.95199219 877.33063477 -555.41210938 878.01611328 C-549.03104537 886.08327694 -542.44210203 893.87720722 -535.421875 901.39453125 C-533.35300812 903.62023159 -531.35140442 905.88018383 -529.375 908.1875 C-526.22933516 911.82232324 -522.85540298 915.18505681 -519.40625 918.53125 C-517.41449591 920.57473797 -515.55964691 922.65299739 -513.703125 924.81640625 C-510.11213971 928.95162616 -506.26464981 932.71704607 -502.25 936.4375 C-501.5475415 937.09145752 -500.84508301 937.74541504 -500.12133789 938.41918945 C-494.59818489 943.52385472 -488.90078151 948.3367435 -483 953 C-481.8737454 953.91642905 -480.7488248 954.83449913 -479.625 955.75390625 C-412.12466399 1010.76091045 -329.39673643 1045.78913536 -139.44091797 1058.359375 C-48.21756758 1048.83186175 42.22048888 1015.21288104 112.07421875 954.5234375 C114.93833734 952.05318301 117.86165224 949.67802228 120.8125 947.3125 C124.82567496 944.04961427 128.49839632 940.61591668 132.09765625 936.90625 C134.65188173 934.3467797 137.37699488 932.01614724 140.12109375 929.6640625 C141.89583366 928.09225542 143.54368981 926.45687196 145.1875 924.75 C148 922 148 922 150.375 920.625 C156.62048972 916.75874446 161.41769804 910.6424217 166.16796875 905.109375 C168.15311587 902.82370454 170.2003983 900.60298622 172.25 898.375 C177.29815828 892.77256758 181.92244425 886.88465799 186.52001953 880.91259766 C188.0097521 878.98739724 189.5169948 877.0770228 191.02734375 875.16796875 C243.08056176 808.87484887 275.11863786 728.12051196 285.25 644.6875 C285.33317474 644.00329987 285.41634949 643.31909973 285.50204468 642.61416626 C286.04622768 638.08035655 286.5391726 633.54299257 287 629 C287.11545166 627.87609863 287.23090332 626.75219727 287.34985352 625.59423828 C287.94005809 618.87265415 287.9566174 612.32226342 287.68359375 605.59375 C286.71377886 577.46963795 286.71377886 577.46963795 292.578125 570.69921875 C296.25735029 567.52903807 300.31158316 565.24374772 304.67871094 563.14892578 C308.01153754 561.49933786 310.85283397 559.35587018 313.8125 557.125 C314.93188122 556.33350994 316.05304754 555.54453979 317.17578125 554.7578125 C322.03988765 551.29077313 326.76057916 547.63446593 331.5 544 C337.79600298 539.17319428 344.12103948 534.42590448 350.61328125 529.8671875 C356.01314742 526.0480784 361.25155056 522.02356378 366.5 518 C372.27197572 513.57509075 378.04761017 509.1798363 384 505 C391.86501684 499.45488021 399.47971702 493.58706482 407.1171875 487.734375 C407.93928711 487.10853516 408.76138672 486.48269531 409.60839844 485.83789062 C411.1873987 484.62446535 412.75360258 483.39418141 414.30566406 482.14648438 C415.01174805 481.58767578 415.71783203 481.02886719 416.4453125 480.453125 C417.06164551 479.95458008 417.67797852 479.45603516 418.31298828 478.94238281 C418.86970215 478.63139648 419.42641602 478.32041016 420 478 C420.99 478.33 421.98 478.66 423 479 C425.59299055 496.15067045 428.08967151 513.29313418 429.75 530.5625 C429.86512939 531.75238525 429.98025879 532.94227051 430.09887695 534.16821289 C431.73493704 552.01400512 432.20536052 569.77174197 432.1875 587.6875 C432.18689575 588.81105896 432.1862915 589.93461792 432.18566895 591.09222412 C432.09344576 654.45292903 422.17571994 716.6393741 403 777 C402.51345947 778.55605957 402.51345947 778.55605957 402.01708984 780.14355469 C393.72161386 806.58081995 383.0037691 832.04914007 371 857 C370.51563477 858.01255859 370.03126953 859.02511719 369.53222656 860.06835938 C362.10900828 875.5098435 353.81957677 890.31729009 345 905 C344.04150825 906.61318714 343.0831652 908.22646264 342.125 909.83984375 C335.52709911 920.86878096 328.37013661 931.4749443 321 942 C320.54737793 942.64984863 320.09475586 943.29969727 319.62841797 943.96923828 C313.78116075 952.35126711 307.62785185 960.45103924 301.24902344 968.43505859 C300.13232557 969.83420506 299.0227107 971.23899786 297.9140625 972.64453125 C289.53126451 983.23422912 280.74203211 993.41572688 271.54931641 1003.30712891 C270.38402666 1004.58039066 269.23230093 1005.86608684 268.08740234 1007.15771484 C262.41463713 1013.54932878 256.50427894 1019.65059668 250.45166016 1025.67871094 C248.866335 1027.25863548 247.2864825 1028.84389308 245.70703125 1030.4296875 C232.22488385 1043.92609501 232.22488385 1043.92609501 224 1048 C222.04950413 1049.64564658 220.15557292 1051.35987423 218.3125 1053.125 C217.2507306 1054.12326017 216.18689112 1055.1193227 215.12109375 1056.11328125 C214.59370605 1056.60521973 214.06631836 1057.0971582 213.52294922 1057.60400391 C209.51965421 1061.27358404 205.25801289 1064.63392744 201 1068 C200.35820801 1068.50901855 199.71641602 1069.01803711 199.05517578 1069.54248047 C176.14600184 1087.66766429 152.28313369 1104.33503993 127 1119 C126.24106445 1119.44375977 125.48212891 1119.88751953 124.70019531 1120.34472656 C52.37737401 1162.573488 -27.65602953 1189.73459762 -341.78955078 1184.03515625 C-376.84013301 1174.76144656 -410.78321506 1162.31915174 -443.66894531 1147.07958984 C-445.22364211 1146.35955746 -446.78029579 1145.64373551 -448.33886719 1144.93212891 C-491.65568824 1125.15312989 -531.93707738 1098.78778372 -569 1069 C-569.928125 1068.25492188 -570.85625 1067.50984375 -571.8125 1066.7421875 C-574.55891022 1064.51472107 -577.28437606 1062.26489798 -580 1060 C-580.51997559 1059.5663916 -581.03995117 1059.1327832 -581.57568359 1058.68603516 C-595.54206756 1046.99449449 -608.65441436 1034.44350491 -621.59436035 1021.63580322 C-622.71794941 1020.52518633 -623.84391541 1019.41696768 -624.97253418 1018.3114624 C-632.09546425 1011.32391981 -638.52472614 1004.10087281 -644.55151367 996.14477539 C-646.91972325 993.10310547 -649.37251631 990.31570906 -652 987.5 C-657.18848175 981.89480555 -661.87074552 975.98017003 -666.51855469 969.92724609 C-668.06035098 967.92148803 -669.61182754 965.9234689 -671.1640625 963.92578125 C-687.17772398 943.24276955 -701.85735436 921.62198277 -715 899 C-715.45777832 898.21979492 -715.91555664 897.43958984 -716.38720703 896.63574219 C-750.7208489 837.94825354 -775.03689877 773.74991085 -788 707 C-788.13363953 706.31353394 -788.26727905 705.62706787 -788.40496826 704.9197998 C-791.80871737 687.32278948 -794.44813327 669.70185916 -796.3125 651.875 C-796.39390228 651.0978363 -796.47530457 650.32067261 -796.55917358 649.5199585 C-798.62763557 629.4556904 -799.24040527 609.54051845 -799.25 589.375 C-799.25067474 588.09510193 -799.25134949 586.81520386 -799.25204468 585.496521 C-799.23374587 563.53556137 -798.47945572 541.82327407 -796 520 C-795.87271515 518.87543396 -795.87271515 518.87543396 -795.74285889 517.72814941 C-785.48124445 428.34941619 -755.71440266 341.12953081 -675 217 C-674.50951172 216.35788574 -674.01902344 215.71577148 -673.51367188 215.05419922 C-667.76001527 207.55683239 -661.77119942 200.28262584 -655.62890625 193.1015625 C-653.1327295 190.175514 -650.72073366 187.18643248 -648.3125 184.1875 C-645.11831705 180.25882578 -641.78945732 176.62910728 -638.1171875 173.14453125 C-636.32467248 171.32886567 -634.68342644 169.48031103 -633.02734375 167.54296875 C-628.36990957 162.18171976 -623.35939081 157.17334371 -618.34008789 152.15478516 C-616.69581076 150.50832181 -615.05971926 148.85400916 -613.42382812 147.19921875 C-607.90255776 141.64911832 -602.33403211 136.41419101 -596.11376953 131.6340332 C-594.06869241 130.05310214 -592.12239794 128.40063468 -590.1875 126.6875 C-579.90848472 117.61657616 -569.34465053 109.07108219 -558.39428711 100.82421875 C-556.63180057 99.48137186 -554.88177185 98.12213508 -553.13891602 96.75390625 C-544.67736348 90.11817961 -535.90348999 84.05659914 -526.9375 78.125 C-526.21356049 77.64444153 -525.48962097 77.16388306 -524.7437439 76.66876221 C-507.13584818 64.98896547 -489.14427576 54.32620276 -470.51464844 44.35351562 C-468.28410325 43.15291926 -466.06582552 41.93339167 -463.8515625 40.703125 C-391.92092798 1.0933103 -307.21678069 -20.11656813 -197.96264648 -26.65893555 C-196.70782471 -26.69027588 -195.45300293 -26.72161621 -194.16015625 -26.75390625 C-193.04261963 -26.77783447 -191.92508301 -26.8017627 -190.77368164 -26.82641602 C-126.84709697 -30.82710272 -61.12343377 -19.10107305 0 0 Z " fill="#5DB56A" transform="translate(799,28)"/>
<path d="M0 0 C0.66 0 1.32 0 2 0 C3.2265625 1.31567383 3.2265625 1.31567383 4.625 3.20703125 C5.15730225 3.92455566 5.68960449 4.64208008 6.23803711 5.38134766 C6.81948486 6.18362793 7.40093262 6.9859082 8 7.8125 C8.61302979 8.65345215 9.22605957 9.4944043 9.85766602 10.36083984 C28.87035167 36.69849264 45.77306719 64.31239679 61 93 C61.75917725 94.42578369 61.75917725 94.42578369 62.53369141 95.88037109 C64.04855774 98.7300014 65.55730502 101.58275061 67.0625 104.4375 C67.51592773 105.29569336 67.96935547 106.15388672 68.43652344 107.03808594 C69.64557181 109.34877293 70.83268322 111.66798256 72 114 C72.49862549 114.99410889 72.49862549 114.99410889 73.00732422 116.00830078 C74.14193093 118.42439093 74.99429268 120.47302372 75.0234375 123.1640625 C73.4393128 126.00581292 71.23476966 127.44889796 68.625 129.375 C68.05410645 129.80071289 67.48321289 130.22642578 66.89501953 130.66503906 C64.93747581 132.12039654 62.96883119 133.55995649 61 135 C59.52543635 136.09032767 58.0515001 137.18150426 56.578125 138.2734375 C52.54992929 141.25411587 48.5120718 144.22143026 44.47167969 147.18554688 C40.47696263 150.11805746 36.48873912 153.05936661 32.5 156 C30.91669941 157.16671111 29.33336604 158.33337772 27.75 159.5 C26.96625 160.0775 26.1825 160.655 25.375 161.25 C-19.75 194.5 -19.75 194.5 -22.12573242 196.25048828 C-23.70668983 197.41543849 -25.28758192 198.58047734 -26.8684082 199.74560547 C-30.86255828 202.6892698 -34.8578843 205.63131346 -38.85546875 208.5703125 C-46.26019463 214.01636895 -53.65424366 219.47457766 -61 225 C-69.1498895 231.13028521 -77.3602261 237.17710259 -85.57666016 243.21777344 C-89.55322518 246.14230746 -93.52646271 249.07135433 -97.5 252 C-99.08331696 253.16668888 -100.66665031 254.33335553 -102.25 255.5 C-103.03375 256.0775 -103.8175 256.655 -104.625 257.25 C-168.75 304.5 -168.75 304.5 -171.12573242 306.25048828 C-172.70668983 307.41543849 -174.28758192 308.58047734 -175.8684082 309.74560547 C-179.86255828 312.6892698 -183.8578843 315.63131346 -187.85546875 318.5703125 C-195.26019463 324.01636895 -202.65424366 329.47457766 -210 335 C-218.1498895 341.13028521 -226.3602261 347.17710259 -234.57666016 353.21777344 C-238.55322518 356.14230746 -242.52646271 359.07135433 -246.5 362 C-248.08331696 363.16668888 -249.66665031 364.33335553 -251.25 365.5 C-252.425625 366.36625 -252.425625 366.36625 -253.625 367.25 C-317.75 414.5 -317.75 414.5 -320.12573242 416.25048828 C-321.70668983 417.41543849 -323.28758192 418.58047734 -324.8684082 419.74560547 C-328.86255828 422.6892698 -332.8578843 425.63131346 -336.85546875 428.5703125 C-344.26019463 434.01636895 -351.65424366 439.47457766 -359 445 C-367.1498895 451.13028521 -375.3602261 457.17710259 -383.57666016 463.21777344 C-387.55322518 466.14230746 -391.52646271 469.07135433 -395.5 472 C-397.08331696 473.16668888 -398.66665031 474.33335553 -400.25 475.5 C-401.425625 476.36625 -401.425625 476.36625 -402.625 477.25 C-417.66666667 488.33333333 -432.70833333 499.41666667 -447.75 510.5 C-448.53487793 511.0784668 -449.31975586 511.65693359 -450.12841797 512.25292969 C-451.69983388 513.41054264 -453.27176784 514.56745271 -454.84423828 515.72363281 C-458.98959719 518.77303287 -463.12324873 521.83685838 -467.2421875 524.921875 C-468.10134766 525.56253906 -468.96050781 526.20320312 -469.84570312 526.86328125 C-471.49098255 528.09057077 -473.13309376 529.32212292 -474.77148438 530.55859375 C-482.88436041 536.59575562 -482.88436041 536.59575562 -486 537 C-488.9522786 535.83055372 -491.48987086 534.13032451 -494.125 532.375 C-494.91269775 531.87154053 -495.70039551 531.36808105 -496.51196289 530.84936523 C-498.17856061 529.78274929 -499.84033967 528.70857181 -501.49755859 527.62744141 C-504.67185788 525.56306296 -507.87774169 523.55145804 -511.08544922 521.53955078 C-514.26642382 519.54194892 -517.43727337 517.52853203 -520.60888672 515.51611328 C-524.56904551 513.00512838 -528.534758 510.50294688 -532.5 508 C-537.19263273 505.03709129 -541.88476813 502.0734119 -546.57421875 499.10546875 C-555.36606074 493.543283 -564.17503136 488.00949537 -573 482.5 C-584.11608218 475.56014493 -595.19988429 468.57050728 -606.27246094 461.56152344 C-616.85882597 454.86180847 -627.46876829 448.20115599 -638.09643555 441.56713867 C-645.00424738 437.25313219 -651.895714 432.91420503 -658.77734375 428.55859375 C-665.17039867 424.51576812 -671.58350697 420.50549932 -678 416.5 C-685.42283864 411.86397113 -692.84426528 407.22581746 -700.25 402.5625 C-700.96285156 402.11519531 -701.67570312 401.66789062 -702.41015625 401.20703125 C-703.78564141 400.33937827 -705.15038429 399.45439099 -706.50220871 398.55031586 C-709.02922715 396.91624271 -709.02922715 396.91624271 -712.01503372 395.57523346 C-715.59047984 393.68956599 -718.20572457 391.93606794 -721 389 C-722.75265812 383.25571693 -722.52333449 377.70916347 -722.36230469 371.75195312 C-722.35891667 369.99710321 -722.36082594 368.2422363 -722.36761475 366.48739624 C-722.37104981 361.73858554 -722.30064989 356.9934324 -722.21672726 352.24547005 C-722.14156667 347.27821675 -722.13465149 342.31087383 -722.12042236 337.34313965 C-722.08316578 327.94320187 -721.98475258 318.54494446 -721.86422849 309.14574575 C-721.72996747 298.44225343 -721.6640884 287.73867962 -721.60388327 277.03455448 C-721.47854611 255.02209941 -721.2675598 233.01115567 -721 211 C-717.38096096 212.40654871 -714.21724611 213.980446 -710.9296875 216.0546875 C-709.96095703 216.663125 -708.99222656 217.2715625 -707.99414062 217.8984375 C-706.96482422 218.55070313 -705.93550781 219.20296875 -704.875 219.875 C-703.80185547 220.55046875 -702.72871094 221.2259375 -701.62304688 221.921875 C-698.41274991 223.94380892 -695.20594121 225.97116861 -692 228 C-690.34646044 229.04443911 -688.69282469 230.08872594 -687.0390625 231.1328125 C-684.76752318 232.56734159 -682.4962926 234.00234608 -680.22607422 235.43896484 C-673.83218732 239.48308822 -667.41778874 243.49394019 -661 247.5 C-653.8212334 251.98107121 -646.65067365 256.47422809 -639.5 261 C-628.36290061 268.04727798 -617.18030397 275.02154776 -606 282 C-594.05345717 289.45671842 -582.11090364 296.91862847 -570.21044922 304.44873047 C-559.83426221 311.00934125 -549.41408849 317.49979935 -539 324 C-526.01152383 332.10706587 -513.03077779 340.22508159 -500.09375 348.4140625 C-499.41441406 348.83848633 -498.73507812 349.26291016 -498.03515625 349.70019531 C-496.62873241 350.59844394 -495.24146499 351.52714704 -493.87109375 352.47949219 C-489.99562964 355.16965285 -489.99562964 355.16965285 -485.49609375 356.18359375 C-481.60372628 354.33791716 -478.41261176 351.74779918 -475.0625 349.0625 C-473.53133585 347.86280981 -471.99876605 346.66491161 -470.46484375 345.46875 C-469.32764893 344.57929687 -469.32764893 344.57929687 -468.16748047 343.671875 C-465.20784962 341.38897885 -462.18120045 339.21351142 -459.125 337.0625 C-453.6404337 333.18753468 -448.21505711 329.23855316 -442.8125 325.25 C-441.60920044 324.36175537 -441.60920044 324.36175537 -440.3815918 323.45556641 C-437.92052739 321.63776537 -435.46017433 319.81900543 -433 318 C-422.95943728 310.57827284 -412.89932805 303.18827624 -402.76708984 295.89208984 C-394.93122514 290.24281917 -387.16007146 284.50687108 -379.39111328 278.76611328 C-375.43008838 275.84043897 -371.46484283 272.92049694 -367.5 270 C-365.91664621 268.8333611 -364.33331288 267.66669442 -362.75 266.5 C-359.58333333 264.16666667 -356.41666667 261.83333333 -353.25 259.5 C-352.46616943 258.92241943 -351.68233887 258.34483887 -350.87475586 257.74975586 C-349.29231815 256.58379194 -347.70979869 255.41793896 -346.12719727 254.25219727 C-342.15448113 251.32568557 -338.18323006 248.39722466 -334.21484375 245.46484375 C-325.76659743 239.22528928 -317.28993416 233.0293578 -308.76708984 226.89208984 C-300.93122514 221.24281917 -293.16007146 215.50687108 -285.39111328 209.76611328 C-281.43008838 206.84043897 -277.46484283 203.92049694 -273.5 201 C-271.91664621 199.8333611 -270.33331288 198.66669442 -268.75 197.5 C-265.58333333 195.16666667 -262.41666667 192.83333333 -259.25 190.5 C-258.46616943 189.92241943 -257.68233887 189.34483887 -256.87475586 188.74975586 C-255.29231815 187.58379194 -253.70979869 186.41793896 -252.12719727 185.25219727 C-248.15448113 182.32568557 -244.18323006 179.39722466 -240.21484375 176.46484375 C-231.76659743 170.22528928 -223.28993416 164.0293578 -214.76708984 157.89208984 C-206.93122514 152.24281917 -199.16007146 146.50687108 -191.39111328 140.76611328 C-187.43008838 137.84043897 -183.46484283 134.92049694 -179.5 132 C-177.91664621 130.8333611 -176.33331288 129.66669442 -174.75 128.5 C-171.58333333 126.16666667 -168.41666667 123.83333333 -165.25 121.5 C-164.46616943 120.92241943 -163.68233887 120.34483887 -162.87475586 119.74975586 C-161.29231815 118.58379194 -159.70979869 117.41793896 -158.12719727 116.25219727 C-154.15448113 113.32568557 -150.18323006 110.39722466 -146.21484375 107.46484375 C-137.76659743 101.22528928 -129.28993416 95.0293578 -120.76708984 88.89208984 C-112.93122514 83.24281917 -105.16007146 77.50687108 -97.39111328 71.76611328 C-93.43008838 68.84043897 -89.46484283 65.92049694 -85.5 63 C-83.91664621 61.8333611 -82.33331288 60.66669442 -80.75 59.5 C-77.58333333 57.16666667 -74.41666667 54.83333333 -71.25 52.5 C-70.46616943 51.92241943 -69.68233887 51.34483887 -68.87475586 50.74975586 C-67.29231815 49.58379194 -65.70979869 48.41793896 -64.12719727 47.25219727 C-60.15448113 44.32568557 -56.18323006 41.39722466 -52.21484375 38.46484375 C-43.77968368 32.23495428 -35.31643983 26.04820228 -26.80664062 19.9206543 C-20.99302888 15.72943089 -15.2088837 11.49916494 -9.4375 7.25 C-8.60927734 6.64091797 -7.78105469 6.03183594 -6.92773438 5.40429688 C-6.16654297 4.84291016 -5.40535156 4.28152344 -4.62109375 3.703125 C-3.9448999 3.20458008 -3.26870605 2.70603516 -2.57202148 2.19238281 C-1.04473663 1.090088 -1.04473663 1.090088 0 0 Z " fill="#20A037" transform="translate(1101,240)"/>
</svg>
