<?xml version="1.0" encoding="UTF-8"?>
<svg version="1.1" xmlns="http://www.w3.org/2000/svg" width="100" height="100">
<path d="M0 0 C33 0 66 0 100 0 C100 33 100 66 100 100 C67 100 34 100 0 100 C0 67 0 34 0 0 Z " fill="#FBFDFD" transform="translate(0,0)"/>
<path d="M0 0 C3.91462054 3.74441964 3.91462054 3.74441964 4.1328125 6.953125 C4.11763757 11.41455515 3.90082543 15.60847604 3 20 C3.556875 19.175 4.11375 18.35 4.6875 17.5 C7 15 7 15 9.75 14.6875 C10.86375 14.8421875 10.86375 14.8421875 12 15 C13.59138085 19.17737474 14.21278058 22.53160785 14 27 C14.66 27.04125 15.32 27.0825 16 27.125 C21.61583056 28.76295058 26.10329644 32.50936073 29.375 37.3125 C32.80499664 40.82416322 35.23145383 40.78385929 39.98828125 40.9921875 C40.98408203 40.99605469 40.98408203 40.99605469 42 41 C40 43 38 45 36 47 C35.72771117 48.68404722 35.48246288 50.37249489 35.25 52.0625 C33.73728666 60.53588706 29.83015476 66.00240003 23.25 71.4609375 C12.84298361 78.57962579 0.17722485 79.07214002 -12 78 C-17.85025204 76.66166375 -23.02223848 74.3566852 -28 71 C-28 70.34 -28 69.68 -28 69 C-24.21760329 69.65690619 -20.78158474 70.720131 -17.1875 72.0625 C-16.21167969 72.42472656 -15.23585938 72.78695312 -14.23046875 73.16015625 C-13.12638672 73.57587891 -13.12638672 73.57587891 -12 74 C-12.33 73.34 -12.66 72.68 -13 72 C-12.34 71.34 -11.68 70.68 -11 70 C-9.02 71.32 -7.04 72.64 -5 74 C-5 70.04 -5 66.08 -5 62 C-5.99 61.67 -6.98 61.34 -8 61 C-7.01 60.67 -6.02 60.34 -5 60 C-6.57617892 54.01052009 -8.72781608 49.99827861 -13.7734375 46.27734375 C-21.01531883 43.41040041 -29.35682788 44.53655453 -37 45 C-33.37 45.33 -29.74 45.66 -26 46 C-26 46.33 -26 46.66 -26 47 C-28.64 47.33 -31.28 47.66 -34 48 C-30.04 48.33 -26.08 48.66 -22 49 C-22 49.33 -22 49.66 -22 50 C-24.64 50.33 -27.28 50.66 -30 51 C-26.37 51.33 -22.74 51.66 -19 52 C-19 52.33 -19 52.66 -19 53 C-22.465 53.495 -22.465 53.495 -26 54 C-26 54.66 -26 55.32 -26 56 C-28.86724686 55.42655063 -29.8614515 55.1385485 -32 53 C-34.06874034 52.3574765 -34.06874034 52.3574765 -36 52 C-35.54738642 53.43931117 -35.08767021 54.87638999 -34.625 56.3125 C-34.36976562 57.11300781 -34.11453125 57.91351563 -33.8515625 58.73828125 C-33.01168189 61.22724528 -33.01168189 61.22724528 -31 64 C-32.485 64.495 -32.485 64.495 -34 65 C-37.32815155 61.00621814 -38.26118389 58.12296737 -38.875 52.9375 C-39.42898316 48.80314419 -39.80797778 46.46301776 -43.125 43.8125 C-44.07375 43.214375 -45.0225 42.61625 -46 42 C-46 41.67 -46 41.34 -46 41 C-42.7 41 -39.4 41 -36 41 C-35.34 39.68 -34.68 38.36 -34 37 C-31.17324378 33.75754434 -28.51548292 31.71371959 -24.75 29.75 C-22.62812877 28.59296447 -22.62812877 28.59296447 -21 27 C-20.42147515 24.71180468 -20.3751059 22.62854169 -20.3046875 20.2734375 C-19.74437015 16.09260804 -17.16039164 13.60847293 -14 11 C-11.75079934 9.65206077 -9.46355407 8.45070307 -7.125 7.265625 C-3.92822052 5.36166075 -2.16114595 2.99771858 0 0 Z " fill="#2966A1" transform="translate(52,2)"/>
<path d="M0 0 C0 0.99 0 1.98 0 3 C1.39375072 5.78750144 3.16244861 5.89266287 6 7 C6.66 7.66 7.32 8.32 8 9 C6.35 9.33 4.7 9.66 3 10 C5.97 10 8.94 10 12 10 C12 13.63 12 17.26 12 21 C13.65 20.67 15.3 20.34 17 20 C16.67 16.7 16.34 13.4 16 10 C16.66 10 17.32 10 18 10 C17.505 8.515 17.505 8.515 17 7 C20.6441774 4.5705484 22.71241272 4.83820425 27 5 C26.01 5.99 25.02 6.98 24 8 C25.32 8.33 26.64 8.66 28 9 C28 9.66 28 10.32 28 11 C23.545 11.495 23.545 11.495 19 12 C19 14.31 19 16.62 19 19 C19.69867188 18.4946875 20.39734375 17.989375 21.1171875 17.46875 C22.48230469 16.49421875 22.48230469 16.49421875 23.875 15.5 C24.77992187 14.8503125 25.68484375 14.200625 26.6171875 13.53125 C29 12 29 12 31 12 C29.75165856 15.74502433 28.13825974 16.76484276 25.0625 19.1875 C24.16660156 19.90292969 23.27070312 20.61835937 22.34765625 21.35546875 C20 23 20 23 18 23 C18.99 24.32 19.98 25.64 21 27 C20.01 27 19.02 27 18 27 C18 27.99 18 28.98 18 30 C24.93 30.495 24.93 30.495 32 31 C32 30.34 32 29.68 32 29 C32.99 29.33 33.98 29.66 35 30 C35 30.66 35 31.32 35 32 C37.64 32.66 40.28 33.32 43 34 C43.81928886 32.75443908 44.63015186 31.50333365 45.4375 30.25 C45.88996094 29.55390625 46.34242187 28.8578125 46.80859375 28.140625 C47.9608009 26.07042986 48.54676982 24.31303676 49 22 C47.68 21.67 46.36 21.34 45 21 C46.3125 19 46.3125 19 48 17 C48.99 17 49.98 17 51 17 C51.54575219 23.59753762 51.60856827 28.684226 47.60546875 34.15625 C40.54244555 42.26755645 32.00272675 47.33509801 21.09594727 48.140625 C9.17256423 48.68600558 -0.81317518 47.86934559 -11 41 C-11 40.34 -11 39.68 -11 39 C-7.21760329 39.65690619 -3.78158474 40.720131 -0.1875 42.0625 C0.78832031 42.42472656 1.76414062 42.78695312 2.76953125 43.16015625 C3.50558594 43.43730469 4.24164063 43.71445313 5 44 C4.67 43.34 4.34 42.68 4 42 C4.66 41.34 5.32 40.68 6 40 C7.98 41.32 9.96 42.64 12 44 C12 40.04 12 36.08 12 32 C11.01 31.67 10.02 31.34 9 31 C9.99 30.67 10.98 30.34 12 30 C10.42382108 24.01052009 8.27218392 19.99827861 3.2265625 16.27734375 C-4.01531883 13.41040041 -12.35682788 14.53655453 -20 15 C-16.37 15.33 -12.74 15.66 -9 16 C-9 16.33 -9 16.66 -9 17 C-12.96 17.495 -12.96 17.495 -17 18 C-13.04 18.33 -9.08 18.66 -5 19 C-5 19.33 -5 19.66 -5 20 C-8.96 20.495 -8.96 20.495 -13 21 C-9.37 21.33 -5.74 21.66 -2 22 C-2 22.33 -2 22.66 -2 23 C-4.31 23.33 -6.62 23.66 -9 24 C-9 24.66 -9 25.32 -9 26 C-11.86724686 25.42655063 -12.8614515 25.1385485 -15 23 C-17.06874034 22.3574765 -17.06874034 22.3574765 -19 22 C-18.54738642 23.43931117 -18.08767021 24.87638999 -17.625 26.3125 C-17.36976562 27.11300781 -17.11453125 27.91351563 -16.8515625 28.73828125 C-16.01168189 31.22724528 -16.01168189 31.22724528 -14 34 C-15.485 34.495 -15.485 34.495 -17 35 C-22.25484441 28.6941867 -23 21.02628606 -23 13 C-17.06 13 -11.12 13 -5 13 C-5 12.34 -5 11.68 -5 11 C-8.63 11 -12.26 11 -16 11 C-15.34 9.68 -14.68 8.36 -14 7 C-10.7 7.33 -7.4 7.66 -4 8 C-5.98 7.01 -7.96 6.02 -10 5 C-5.16129032 0 -5.16129032 0 0 0 Z " fill="#2165A7" transform="translate(35,32)"/>
<path d="M0 0 C20.43997539 -1.66514213 20.43997539 -1.66514213 27.75 4.0625 C31.78244985 7.77159303 32.6015315 10.57418727 33 16 C32.01 16.495 32.01 16.495 31 17 C31.66 17.33 32.32 17.66 33 18 C33 21.96 33 25.92 33 30 C31.35 29.34 29.7 28.68 28 28 C27.34 28 26.68 28 26 28 C26.33 28.99 26.66 29.98 27 31 C25.39402675 30.54803755 23.79027492 30.08817673 22.1875 29.625 C20.84751953 29.24214844 20.84751953 29.24214844 19.48046875 28.8515625 C17 28 17 28 14 26 C13.195625 26.04125 12.39125 26.0825 11.5625 26.125 C9 26 9 26 6.6875 24.25 C5 22 5 22 5 18 C4.01488198 15.6603447 3.01529541 13.32671865 2 11 C2 10.01 2 9.02 2 8 C5.95820859 8.56545837 8.6659053 9.80902348 12 12 C11.36058256 8.9194894 11.36058256 8.9194894 9.1875 8.0625 C8.465625 7.711875 7.74375 7.36125 7 7 C5.6256709 5.70896357 4.29103643 4.3743291 3 3 C2.00240673 1.99759905 1.00283686 0.99715507 0 0 Z " fill="#2A68A6" transform="translate(14,46)"/>
<path d="M0 0 C4.43090471 1.20842856 6.98112756 2.51668565 10 6 C7.02588876 7.23921302 4.14737182 8.30058404 1 9 C5.16138263 9.08159574 8.9472484 8.98248524 13 8 C13.99 9.32 14.98 10.64 16 12 C12.37 12.33 8.74 12.66 5 13 C10.61 13.33 16.22 13.66 22 14 C22 14.66 22 15.32 22 16 C20.67732273 17.01405257 19.34275169 18.01268258 18 19 C17.34 19.99 16.68 20.98 16 22 C16.99 22.33 17.98 22.66 19 23 C18.5250019 27.98748002 17.10772305 31.06964437 14 35 C9.82412255 36.39195915 7.86525224 34.82323219 4 33 C4 32.34 4 31.68 4 31 C3.34 30.67 2.68 30.34 2 30 C2 30.66 2 31.32 2 32 C-4.93 31.505 -4.93 31.505 -12 31 C-11.67 29.68 -11.34 28.36 -11 27 C-11.33 26.01 -11.66 25.02 -12 24 C-11.39671875 23.54109375 -10.7934375 23.0821875 -10.171875 22.609375 C-8.97304688 21.68898438 -8.97304688 21.68898438 -7.75 20.75 C-6.96109375 20.14671875 -6.1721875 19.5434375 -5.359375 18.921875 C-3.08368843 17.06817005 -1.03628442 15.11101046 1 13 C0.38511719 13.42152344 -0.22976562 13.84304687 -0.86328125 14.27734375 C-1.67152344 14.82519531 -2.47976562 15.37304688 -3.3125 15.9375 C-4.11300781 16.48277344 -4.91351563 17.02804688 -5.73828125 17.58984375 C-8 19 -8 19 -11 20 C-11 17.69 -11 15.38 -11 13 C-8.04335481 11.5216774 -5.25770263 11.93967217 -2 12 C-2 11.34 -2 10.68 -2 10 C-3.98 10 -5.96 10 -8 10 C-7.236875 9.401875 -6.47375 8.80375 -5.6875 8.1875 C-2.65872329 5.77588013 -2.65872329 5.77588013 0 3 C0 2.01 0 1.02 0 0 Z " fill="#EEFBFD" transform="translate(65,31)"/>
<path d="M0 0 C2 2 2 2 2.25 5.5625 C2.14813223 10.18899434 1.15738467 14.53580198 0 19 C3.98608812 17.70721467 5.62111287 16.39841019 8 13 C8.66 13 9.32 13 10 13 C11.7987144 16.82226811 12.4491436 19.77805018 12 24 C10.80444336 26.14599609 10.80444336 26.14599609 9 28 C5.2409692 28.8645425 1.40944355 28.64852871 -2.4375 28.625 C-3.48744141 28.65722656 -4.53738281 28.68945312 -5.61914062 28.72265625 C-8.5407363 28.7263804 -11.14833838 28.63875163 -14 28 C-17.13569711 24.71866819 -17.87323238 22.90321931 -18.5 18.4375 C-17.88160328 14.18602254 -17.15152098 12.92641233 -14 10 C-11.5213858 8.41895705 -9.01317872 6.94475232 -6.4375 5.52734375 C-3.9053171 3.94067145 -2.02794551 2.18285801 0 0 Z " fill="#EFF7FA" transform="translate(52,6)"/>
<path d="M0 0 C0.99 0 1.98 0 3 0 C3.54575219 6.59753762 3.60856827 11.684226 -0.39453125 17.15625 C-7.13423126 24.89624612 -14.77091579 29.43093693 -25 31 C-27.39445293 31.09137082 -29.7913097 31.13004993 -32.1875 31.125 C-33.41855469 31.12757812 -34.64960937 31.13015625 -35.91796875 31.1328125 C-39 31 -39 31 -41 30 C-41 29.01 -41 28.02 -41 27 C-39.35 27.33 -37.7 27.66 -36 28 C-36 28.33 -36 28.66 -36 29 C-34.35 29.33 -32.7 29.66 -31 30 C-29.95023036 26.85069107 -29.89868405 24.61185544 -29.9375 21.3125 C-29.94652344 20.31863281 -29.95554687 19.32476562 -29.96484375 18.30078125 C-29.97644531 17.54152344 -29.98804688 16.78226563 -30 16 C-29.00097656 16.01160156 -28.00195312 16.02320312 -26.97265625 16.03515625 C-25.68230469 16.04417969 -24.39195313 16.05320312 -23.0625 16.0625 C-21.77472656 16.07410156 -20.48695312 16.08570312 -19.16015625 16.09765625 C-16.13701597 16.36532549 -16.13701597 16.36532549 -15 15 C-17.64 15 -20.28 15 -23 15 C-23 14.67 -23 14.34 -23 14 C-20.69 14 -18.38 14 -16 14 C-16 13.34 -16 12.68 -16 12 C-15.01 12.33 -14.02 12.66 -13 13 C-13 13.66 -13 14.32 -13 15 C-10.36 15.66 -7.72 16.32 -5 17 C-4.18071114 15.75443908 -3.36984814 14.50333365 -2.5625 13.25 C-2.11003906 12.55390625 -1.65757813 11.8578125 -1.19140625 11.140625 C-0.0391991 9.07042986 0.54676982 7.31303676 1 5 C-0.32 4.67 -1.64 4.34 -3 4 C-1.6875 2 -1.6875 2 0 0 Z " fill="#2865A1" transform="translate(83,49)"/>
<path d="M0 0 C1.65 0 3.3 0 5 0 C5 2.64 5 5.28 5 8 C7.64 8 10.28 8 13 8 C13 8.66 13 9.32 13 10 C15.64 10 18.28 10 21 10 C20.67 10.66 20.34 11.32 20 12 C13.07 11.505 13.07 11.505 6 11 C6.33 14.96 6.66 18.92 7 23 C6.34 23 5.68 23 5 23 C5 23.66 5 24.32 5 25 C-0.41538462 25.36923077 -0.41538462 25.36923077 -3.375 23.5 C-3.91125 23.005 -4.4475 22.51 -5 22 C-5 22.99 -5 23.98 -5 25 C-4.34 25.33 -3.68 25.66 -3 26 C-10.65832917 25.70544888 -16.34261178 22.62827658 -23 19 C-23 18.34 -23 17.68 -23 17 C-19.21760329 17.65690619 -15.78158474 18.720131 -12.1875 20.0625 C-11.21167969 20.42472656 -10.23585938 20.78695312 -9.23046875 21.16015625 C-8.12638672 21.57587891 -8.12638672 21.57587891 -7 22 C-7.33 21.34 -7.66 20.68 -8 20 C-7.34 19.34 -6.68 18.68 -6 18 C-4.02 19.32 -2.04 20.64 0 22 C0 18.04 0 14.08 0 10 C-0.99 9.67 -1.98 9.34 -3 9 C-2.01 8.67 -1.02 8.34 0 8 C-0.185625 7.236875 -0.37125 6.47375 -0.5625 5.6875 C-1 3 -1 3 0 0 Z " fill="#155EA7" transform="translate(47,54)"/>
<path d="M0 0 C3.63 0 7.26 0 11 0 C11 0.66 11 1.32 11 2 C11.99 2.33 12.98 2.66 14 3 C13.5250019 7.98748002 12.10772305 11.06964437 9 15 C4.82412255 16.39195915 2.86525224 14.82323219 -1 13 C-1 12.34 -1 11.68 -1 11 C-1.66 10.67 -2.32 10.34 -3 10 C-3 10.66 -3 11.32 -3 12 C-9.93 11.505 -9.93 11.505 -17 11 C-16.67 9.35 -16.34 7.7 -16 6 C-5.11 5.505 -5.11 5.505 6 5 C6 4.34 6 3.68 6 3 C6.66 2.67 7.32 2.34 8 2 C5.36 1.67 2.72 1.34 0 1 C0 0.67 0 0.34 0 0 Z " fill="#285E92" transform="translate(70,51)"/>
<path d="M0 0 C1.9375 0.125 1.9375 0.125 4 1 C5.25 3.5625 5.25 3.5625 6 6 C6.33 4.02 6.66 2.04 7 0 C13.33333333 0 19.66666667 0 26 0 C26 0.99 26 1.98 26 3 C25.01 3 24.02 3 23 3 C23 5.31 23 7.62 23 10 C22.01 10 21.02 10 20 10 C20 7.69 20 5.38 20 3 C18.68 3 17.36 3 16 3 C16.33 4.98 16.66 6.96 17 9 C13.7513419 11.16577207 12.81398653 11.24955466 9.0625 11.1875 C8.20785156 11.18105469 7.35320313 11.17460938 6.47265625 11.16796875 C4.17999634 11.01222724 2.21387521 10.57773361 0 10 C-0.99 10 -1.98 10 -3 10 C-2.69201674 8.51988629 -2.378482 7.04092675 -2.0625 5.5625 C-1.88847656 4.73878906 -1.71445312 3.91507812 -1.53515625 3.06640625 C-1 1 -1 1 0 0 Z " fill="#3E76AE" transform="translate(44,87)"/>
<path d="M0 0 C0.66 0.99 1.32 1.98 2 3 C0.09576534 4.90423466 -3.28473113 4.4259749 -5.87109375 4.62109375 C-8.20927403 4.82776636 -8.20927403 4.82776636 -10 7 C-10 7.66 -10 8.32 -10 9 C-10.66 9 -11.32 9 -12 9 C-11.67 9.66 -11.34 10.32 -11 11 C-10.86584528 13.6723621 -10.95681459 16.32250488 -11 19 C-12.65 19.33 -14.3 19.66 -16 20 C-16.33 16.7 -16.66 13.4 -17 10 C-19.97 10 -22.94 10 -26 10 C-25 8 -25 8 -22 7 C-23.2375 6.3503125 -23.2375 6.3503125 -24.5 5.6875 C-25.325 5.130625 -26.15 4.57375 -27 4 C-27 3.01 -27 2.02 -27 1 C-22.5427121 0.74604756 -18.08439279 0.52602939 -13.625 0.3125 C-12.35398437 0.23966797 -11.08296875 0.16683594 -9.7734375 0.09179688 C-8.56171875 0.03701172 -7.35 -0.01777344 -6.1015625 -0.07421875 C-4.98088379 -0.13182373 -3.86020508 -0.18942871 -2.70556641 -0.2487793 C-1.81272949 -0.16668213 -0.91989258 -0.08458496 0 0 Z " fill="#085DB1" transform="translate(63,33)"/>
<path d="M0 0 C20.46518944 -1.66719619 20.46518944 -1.66719619 27.8125 4.375 C30.33203125 6.8359375 30.33203125 6.8359375 32 9 C32 9.66 32 10.32 32 11 C25.4 11 18.8 11 12 11 C11.67 10.34 11.34 9.68 11 9 C10.1028125 8.566875 10.1028125 8.566875 9.1875 8.125 C6.58701387 6.78760713 4.99557486 5.12432162 3 3 C2.00240673 1.99759905 1.00283686 0.99715507 0 0 Z " fill="#F1FAFC" transform="translate(14,46)"/>
<path d="M0 0 C4.43090471 1.20842856 6.98112756 2.51668565 10 6 C7.02588876 7.23921302 4.14737182 8.30058404 1 9 C5.16138263 9.08159574 8.9472484 8.98248524 13 8 C13.99 9.32 14.98 10.64 16 12 C12.37 12.33 8.74 12.66 5 13 C10.61 13.33 16.22 13.66 22 14 C21.67 14.66 21.34 15.32 21 16 C14.4 15.67 7.8 15.34 1 15 C1 14.34 1 13.68 1 13 C0.38511719 13.42152344 -0.22976562 13.84304687 -0.86328125 14.27734375 C-1.67152344 14.82519531 -2.47976562 15.37304688 -3.3125 15.9375 C-4.11300781 16.48277344 -4.91351563 17.02804688 -5.73828125 17.58984375 C-8 19 -8 19 -11 20 C-11 17.69 -11 15.38 -11 13 C-8.04335481 11.5216774 -5.25770263 11.93967217 -2 12 C-2 11.34 -2 10.68 -2 10 C-3.98 10 -5.96 10 -8 10 C-7.236875 9.401875 -6.47375 8.80375 -5.6875 8.1875 C-2.65872329 5.77588013 -2.65872329 5.77588013 0 3 C0 2.01 0 1.02 0 0 Z " fill="#5F98CC" transform="translate(65,31)"/>
<path d="M0 0 C0 0.99 0 1.98 0 3 C1.39375072 5.78750144 3.16244861 5.89266287 6 7 C6.66 7.66 7.32 8.32 8 9 C6.35 9.33 4.7 9.66 3 10 C5.64 10.66 8.28 11.32 11 12 C11 14.64 11 17.28 11 20 C5.40462428 16.31213873 5.40462428 16.31213873 2.8125 14.3125 C0.92695252 12.80882535 0.92695252 12.80882535 -2 12 C-2 11.34 -2 10.68 -2 10 C-2.99 10.495 -2.99 10.495 -4 11 C-6.04055005 11.07065617 -8.08334257 11.08421976 -10.125 11.0625 C-11.22070312 11.05347656 -12.31640625 11.04445313 -13.4453125 11.03515625 C-14.70988281 11.01775391 -14.70988281 11.01775391 -16 11 C-15.34 9.68 -14.68 8.36 -14 7 C-10.7 7.33 -7.4 7.66 -4 8 C-5.98 7.01 -7.96 6.02 -10 5 C-5.16129032 0 -5.16129032 0 0 0 Z " fill="#5290C7" transform="translate(35,32)"/>
<path d="M0 0 C6.93 0 13.86 0 21 0 C21 0.33 21 0.66 21 1 C15.06 1.33 9.12 1.66 3 2 C6.63 2.33 10.26 2.66 14 3 C14 3.33 14 3.66 14 4 C11.36 4.33 8.72 4.66 6 5 C9.96 5.33 13.92 5.66 18 6 C18 6.33 18 6.66 18 7 C15.36 7.33 12.72 7.66 10 8 C13.63 8.33 17.26 8.66 21 9 C21 9.33 21 9.66 21 10 C18.69 10.33 16.38 10.66 14 11 C14 11.66 14 12.32 14 13 C11.13275314 12.42655063 10.1385485 12.1385485 8 10 C5.93125966 9.3574765 5.93125966 9.3574765 4 9 C4.45261358 10.43931117 4.91232979 11.87638999 5.375 13.3125 C5.63023438 14.11300781 5.88546875 14.91351563 6.1484375 15.73828125 C6.98831811 18.22724528 6.98831811 18.22724528 9 21 C8.01 21.33 7.02 21.66 6 22 C0.74515559 15.6941867 0 8.02628606 0 0 Z " fill="#396DA8" transform="translate(12,45)"/>
<path d="M0 0 C1.32 0 2.64 0 4 0 C3.5250019 4.98748002 2.10772305 8.06964437 -1 12 C-5.17587745 13.39195915 -7.13474776 11.82323219 -11 10 C-10.4375 7.6875 -10.4375 7.6875 -9 5 C-5.5 3.3125 -5.5 3.3125 -2 2 C-1.34 1.34 -0.68 0.68 0 0 Z " fill="#EBF6FC" transform="translate(80,54)"/>
<path d="M0 0 C3.89233849 0.54060257 5.92865102 1.62218144 9 4 C11.14733927 4.70514846 11.14733927 4.70514846 13 5 C13.33 6.65 13.66 8.3 14 10 C8.375 13 8.375 13 5 13 C1.52110606 8.80486318 0.43142926 5.39286575 0 0 Z " fill="#F0F9FB" transform="translate(16,54)"/>
<path d="M0 0 C6.75 -0.125 6.75 -0.125 9 1 C9 3.97 9 6.94 9 10 C6.04335481 11.4783226 3.25770263 11.06032783 0 11 C0 7.37 0 3.74 0 0 Z " fill="#356DA8" transform="translate(31,87)"/>
<path d="M0 0 C0.33 0 0.66 0 1 0 C1.33 3.3 1.66 6.6 2 10 C1.34 10 0.68 10 0 10 C0 10.66 0 11.32 0 12 C-5.41538462 12.36923077 -5.41538462 12.36923077 -8.375 10.5 C-9.179375 9.7575 -9.179375 9.7575 -10 9 C-10 9.99 -10 10.98 -10 12 C-9.34 12.33 -8.68 12.66 -8 13 C-15.65832917 12.70544888 -21.34261178 9.62827658 -28 6 C-28 5.34 -28 4.68 -28 4 C-24.21760329 4.65690619 -20.78158474 5.720131 -17.1875 7.0625 C-16.21167969 7.42472656 -15.23585938 7.78695312 -14.23046875 8.16015625 C-13.49441406 8.43730469 -12.75835937 8.71445313 -12 9 C-12.33 8.34 -12.66 7.68 -13 7 C-12.34 6.34 -11.68 5.68 -11 5 C-10.46375 5.474375 -9.9275 5.94875 -9.375 6.4375 C-6.57157164 8.28186076 -4.30379742 8.62456847 -1 9 C-0.67 6.03 -0.34 3.06 0 0 Z " fill="#2E67A1" transform="translate(52,67)"/>
<path d="M0 0 C1.60875 0.020625 3.2175 0.04125 4.875 0.0625 C4.875 3.6925 4.875 7.3225 4.875 11.0625 C-0.03977312 9.09659075 -3.72176063 7.4680532 -6.4375 2.8125 C-6.7778125 1.94625 -6.7778125 1.94625 -7.125 1.0625 C-4.60024538 -0.19987731 -2.81299534 -0.03606404 0 0 Z " fill="#D9EFFB" transform="translate(42.125,64.9375)"/>
<path d="M0 0 C8.58 0 17.16 0 26 0 C26 0.33 26 0.66 26 1 C16.595 1.495 16.595 1.495 7 2 C7 2.66 7 3.32 7 4 C7.8971875 3.690625 7.8971875 3.690625 8.8125 3.375 C11 3 11 3 14 5 C13.34 5.66 12.68 6.32 12 7 C11.34 7 10.68 7 10 7 C10 7.66 10 8.32 10 9 C7.03 9 4.06 9 1 9 C2 7 2 7 5 6 C3.7625 5.3503125 3.7625 5.3503125 2.5 4.6875 C1.675 4.130625 0.85 3.57375 0 3 C0 2.01 0 1.02 0 0 Z " fill="#135DA6" transform="translate(36,34)"/>
<path d="M0 0 C0.66 0.33 1.32 0.66 2 1 C3.70363822 1.22622081 5.41328701 1.40888473 7.125 1.5625 C8.03507812 1.64628906 8.94515625 1.73007812 9.8828125 1.81640625 C10.58148438 1.87699219 11.28015625 1.93757813 12 2 C10 4 8 6 6 8 C5.76924918 9.34747084 5.58846937 10.70377565 5.4375 12.0625 C5.293125 13.361875 5.14875 14.66125 5 16 C4.67 16 4.34 16 4 16 C4 13.36 4 10.72 4 8 C0.04 8 -3.92 8 -8 8 C-8 7.67 -8 7.34 -8 7 C-1.565 6.505 -1.565 6.505 5 6 C5 5.34 5 4.68 5 4 C-0.61 4 -6.22 4 -12 4 C-12.33 3.34 -12.66 2.68 -13 2 C-12.14535156 1.93941406 -11.29070312 1.87882812 -10.41015625 1.81640625 C-8.75306641 1.69072266 -8.75306641 1.69072266 -7.0625 1.5625 C-5.96035156 1.48128906 -4.85820313 1.40007813 -3.72265625 1.31640625 C-1.08890097 1.29581916 -1.08890097 1.29581916 0 0 Z " fill="#3B6D9E" transform="translate(82,41)"/>
<path d="M0 0 C8.75 -0.125 8.75 -0.125 11 1 C9.63088196 4.1489715 8.1247864 6.0478487 5.5 8.25 C4.8915625 8.77078125 4.283125 9.2915625 3.65625 9.828125 C2 11 2 11 0 11 C0 7.37 0 3.74 0 0 Z " fill="#EBF9FD" transform="translate(53,65)"/>
<path d="M0 0 C0 3 0 3 -2 6 C2.34184202 5.81535634 2.34184202 5.81535634 6 4 C7.85287502 3.92773498 9.70833878 3.9161878 11.5625 3.9375 C12.57441406 3.94652344 13.58632812 3.95554688 14.62890625 3.96484375 C15.80259766 3.98224609 15.80259766 3.98224609 17 4 C16.01 4.495 16.01 4.495 15 5 C15 5.66 15 6.32 15 7 C12.54724859 8.2263757 10.9494219 8.11415314 8.2109375 8.09765625 C7.26992187 8.09443359 6.32890625 8.09121094 5.359375 8.08789062 C4.37453125 8.07951172 3.3896875 8.07113281 2.375 8.0625 C0.88613281 8.05573242 0.88613281 8.05573242 -0.6328125 8.04882812 C-3.0886016 8.03702145 -5.54427104 8.020554 -8 8 C-8 7.34 -8 6.68 -8 6 C-6.25 4.4921875 -6.25 4.4921875 -4 2.875 C-3.2575 2.33617187 -2.515 1.79734375 -1.75 1.2421875 C-1.1725 0.83226562 -0.595 0.42234375 0 0 Z " fill="#D3E9F1" transform="translate(61,49)"/>
<path d="M0 0 C1.9375 0.125 1.9375 0.125 4 1 C5.78284814 4.29826907 6 6.1774751 6 10 C3.03 10 0.06 10 -3 10 C-2.69201674 8.51988629 -2.378482 7.04092675 -2.0625 5.5625 C-1.88847656 4.73878906 -1.71445312 3.91507812 -1.53515625 3.06640625 C-1 1 -1 1 0 0 Z " fill="#3574B0" transform="translate(44,87)"/>
<path d="M0 0 C2.140625 1.84765625 2.140625 1.84765625 4.25 4.0625 C4.95640625 4.79597656 5.6628125 5.52945313 6.390625 6.28515625 C6.92171875 6.85105469 7.4528125 7.41695312 8 8 C6 9 6 9 3.7578125 8.36328125 C-4.94302918 4.89069013 -4.94302918 4.89069013 -8 1 C-4.88893125 -0.88886317 -3.41626633 -1.30621948 0 0 Z " fill="#E4F6FC" transform="translate(33,68)"/>
<path d="M0 0 C0.99 0 1.98 0 3 0 C3 0.66 3 1.32 3 2 C3.66 2 4.32 2 5 2 C4.34 4.64 3.68 7.28 3 10 C4.98 9.67 6.96 9.34 9 9 C9.33 9.66 9.66 10.32 10 11 C9.34 11 8.68 11 8 11 C8 11.66 8 12.32 8 13 C3.38 13 -1.24 13 -6 13 C-6.33 12.34 -6.66 11.68 -7 11 C-2.545 10.505 -2.545 10.505 2 10 C2 7.03 2 4.06 2 1 C1.34 0.67 0.68 0.34 0 0 Z " fill="#ECFAFE" transform="translate(38,87)"/>
<path d="M0 0 C2.33944736 0.28730055 4.6739143 0.61936779 7 1 C7 1.99 7 2.98 7 4 C2.35796103 6.53309233 -1.65155992 8.46515599 -7 9 C-6.02180976 7.68677212 -5.0424189 6.37443848 -4.0625 5.0625 C-3.51722656 4.33160156 -2.97195312 3.60070312 -2.41015625 2.84765625 C-1 1 -1 1 0 0 Z " fill="#DCF1FB" transform="translate(67,67)"/>
<path d="M0 0 C4.78179825 1.07346491 4.78179825 1.07346491 7.0625 1.6875 C6.0725 1.6875 5.0825 1.6875 4.0625 1.6875 C4.0625 2.3475 4.0625 3.0075 4.0625 3.6875 C0.34959089 4.86294359 -3.18835256 4.82058799 -7.0625 4.8125 C-8.30257812 4.81507812 -9.54265625 4.81765625 -10.8203125 4.8203125 C-13.9375 4.6875 -13.9375 4.6875 -15.9375 3.6875 C-15.9375 2.6975 -15.9375 1.7075 -15.9375 0.6875 C-13.4625 1.1825 -13.4625 1.1825 -10.9375 1.6875 C-10.9375 2.0175 -10.9375 2.3475 -10.9375 2.6875 C-9.2875 3.0175 -7.6375 3.3475 -5.9375 3.6875 C-5.9375 3.0275 -5.9375 2.3675 -5.9375 1.6875 C-2.9375 -0.3125 -2.9375 -0.3125 0 0 Z " fill="#165CA3" transform="translate(57.9375,75.3125)"/>
<path d="M0 0 C7.92 0 15.84 0 24 0 C24 0.66 24 1.32 24 2 C22.21142578 2.09087891 22.21142578 2.09087891 20.38671875 2.18359375 C18.82030075 2.26801149 17.25389512 2.35265887 15.6875 2.4375 C14.90181641 2.47681641 14.11613281 2.51613281 13.30664062 2.55664062 C12.54931641 2.59853516 11.79199219 2.64042969 11.01171875 2.68359375 C10.31522217 2.72025146 9.61872559 2.75690918 8.90112305 2.79467773 C6.7783428 2.95581153 6.7783428 2.95581153 4 4 C2.68 2.68 1.36 1.36 0 0 Z " fill="#2A6194" transform="translate(6,43)"/>
<path d="M0 0 C0 0.66 0 1.32 0 2 C-1.86328125 3.47265625 -1.86328125 3.47265625 -4.3125 5.0625 C-5.11300781 5.58972656 -5.91351563 6.11695313 -6.73828125 6.66015625 C-9 8 -9 8 -12 9 C-12 6.69 -12 4.38 -12 2 C-10.37548581 1.66430703 -8.75037083 1.3315204 -7.125 1 C-6.22007813 0.814375 -5.31515625 0.62875 -4.3828125 0.4375 C-2 0 -2 0 0 0 Z " fill="#C3E3F4" transform="translate(66,42)"/>
<path d="M0 0 C4.29 0.66 8.58 1.32 13 2 C13 4.64 13 7.28 13 10 C7.40462428 6.31213873 7.40462428 6.31213873 4.8125 4.3125 C2.92695252 2.80882535 2.92695252 2.80882535 0 2 C0 1.34 0 0.68 0 0 Z " fill="#D9EEFB" transform="translate(33,42)"/>
<path d="M0 0 C4.95 0 9.9 0 15 0 C14.67 1.32 14.34 2.64 14 4 C7.07 3.505 7.07 3.505 0 3 C0 2.01 0 1.02 0 0 Z " fill="#C4E3F6" transform="translate(53,59)"/>
<path d="M0 0 C4.95 0 9.9 0 15 0 C15 0.99 15 1.98 15 3 C10.38 3.33 5.76 3.66 1 4 C0.67 2.68 0.34 1.36 0 0 Z " fill="#C6E3F7" transform="translate(32,59)"/>
<path d="M0 0 C4.31392226 0.4793247 6.16569547 1.7457985 9 5 C7.35 5 5.7 5 4 5 C4 6.32 4 7.64 4 9 C4.66 9 5.32 9 6 9 C6 9.99 6 10.98 6 12 C6.66 12.33 7.32 12.66 8 13 C7.01 13 6.02 13 5 13 C1.52110606 8.80486318 0.43142926 5.39286575 0 0 Z " fill="#D7EEF8" transform="translate(16,54)"/>
<path d="M0 0 C0.33 0 0.66 0 1 0 C1.33 3.3 1.66 6.6 2 10 C1.34 10 0.68 10 0 10 C0 10.66 0 11.32 0 12 C-5.41538462 12.36923077 -5.41538462 12.36923077 -8.375 10.5 C-8.91125 10.005 -9.4475 9.51 -10 9 C-10 9.99 -10 10.98 -10 12 C-9.34 12.33 -8.68 12.66 -8 13 C-9.32 12.67 -10.64 12.34 -12 12 C-12.625 9.625 -12.625 9.625 -13 7 C-12.34 6.34 -11.68 5.68 -11 5 C-10.195625 5.7115625 -10.195625 5.7115625 -9.375 6.4375 C-6.57157164 8.28186076 -4.30379742 8.62456847 -1 9 C-0.67 6.03 -0.34 3.06 0 0 Z " fill="#226CAF" transform="translate(52,67)"/>
<path d="M0 0 C0.33 0 0.66 0 1 0 C1 2.31 1 4.62 1 7 C1.69867188 6.4946875 2.39734375 5.989375 3.1171875 5.46875 C4.48230469 4.49421875 4.48230469 4.49421875 5.875 3.5 C6.77992187 2.8503125 7.68484375 2.200625 8.6171875 1.53125 C11 0 11 0 13 0 C11.75165856 3.74502433 10.13825974 4.76484276 7.0625 7.1875 C6.16660156 7.90292969 5.27070312 8.61835937 4.34765625 9.35546875 C2 11 2 11 0 11 C0 7.37 0 3.74 0 0 Z " fill="#376EA7" transform="translate(53,44)"/>
<path d="M0 0 C2.97 0 5.94 0 9 0 C9 0.99 9 1.98 9 3 C8.01 3 7.02 3 6 3 C6 5.31 6 7.62 6 10 C5.01 10 4.02 10 3 10 C3 7.36 3 4.72 3 2 C2.01 2 1.02 2 0 2 C0 1.34 0 0.68 0 0 Z " fill="#1A5999" transform="translate(61,87)"/>
<path d="M0 0 C1.65 0 3.3 0 5 0 C4.5535141 5.06017356 2.404811 7.43305514 -1 11 C-1.99 11.33 -2.98 11.66 -4 12 C-4.66 11.01 -5.32 10.02 -6 9 C-5.50628906 8.59007813 -5.01257812 8.18015625 -4.50390625 7.7578125 C-3.86324219 7.21898438 -3.22257812 6.68015625 -2.5625 6.125 C-1.92441406 5.59132813 -1.28632812 5.05765625 -0.62890625 4.5078125 C1.10805004 3.0777243 1.10805004 3.0777243 2 1 C1.34 0.67 0.68 0.34 0 0 Z " fill="#2867A5" transform="translate(62,65)"/>
<path d="M0 0 C4.43090471 1.20842856 6.98112756 2.51668565 10 6 C7.09399739 7.25664978 5.20395416 8 2 8 C0.74335022 5.09399739 0 3.20395416 0 0 Z " fill="#E6F7FD" transform="translate(65,31)"/>
<path d="M0 0 C6.93 0 13.86 0 21 0 C21 0.33 21 0.66 21 1 C15.06 1.33 9.12 1.66 3 2 C6.63 2.33 10.26 2.66 14 3 C14 3.33 14 3.66 14 4 C13.22914062 4.06058594 12.45828125 4.12117188 11.6640625 4.18359375 C10.66117188 4.26738281 9.65828125 4.35117187 8.625 4.4375 C7.12839844 4.55931641 7.12839844 4.55931641 5.6015625 4.68359375 C3.02072387 4.84965626 3.02072387 4.84965626 1 6 C-0.0625 4.125 -0.0625 4.125 -1 2 C-0.67 1.34 -0.34 0.68 0 0 Z " fill="#719FCA" transform="translate(12,45)"/>
<path d="M0 0 C-0.75 2.9375 -0.75 2.9375 -2 6 C-3.875 7 -3.875 7 -6 7 C-8.25 6.0625 -8.25 6.0625 -10 5 C-5.16129032 0 -5.16129032 0 0 0 Z " fill="#D7EDF8" transform="translate(35,32)"/>
<path d="M0 0 C0.66 0 1.32 0 2 0 C2 1.98 2 3.96 2 6 C2.556875 5.175 3.11375 4.35 3.6875 3.5 C6 1 6 1 8.75 0.6875 C9.86375 0.8421875 9.86375 0.8421875 11 1 C10.67 1.66 10.34 2.32 10 3 C9.01 3.33 8.02 3.66 7 4 C6.360625 4.845625 5.72125 5.69125 5.0625 6.5625 C4.381875 7.366875 3.70125 8.17125 3 9 C1.68 9 0.36 9 -1 9 C-0.67 6.03 -0.34 3.06 0 0 Z " fill="#24609A" transform="translate(53,16)"/>
<path d="M0 0 C0.83265381 0.00523682 1.66530762 0.01047363 2.52319336 0.01586914 C3.42231445 0.0190918 4.32143555 0.02231445 5.24780273 0.02563477 C6.66609375 0.03820313 6.66609375 0.03820313 8.11303711 0.05102539 C9.06243164 0.05553711 10.01182617 0.06004883 10.98999023 0.06469727 C13.34356776 0.07652429 15.69702188 0.09300514 18.05053711 0.11352539 C18.05053711 0.77352539 18.05053711 1.43352539 18.05053711 2.11352539 C15.30102018 2.33564794 12.55188099 2.54168128 9.80053711 2.73852539 C9.02323242 2.80297852 8.24592773 2.86743164 7.44506836 2.93383789 C0.32622567 3.42059637 0.32622567 3.42059637 -2.94946289 1.11352539 C-1.94946289 0.11352539 -1.94946289 0.11352539 0 0 Z " fill="#285D91" transform="translate(27.949462890625,56.886474609375)"/>
<path d="M0 0 C1.32 0.66 2.64 1.32 4 2 C4 2.66 4 3.32 4 4 C-2.6 4 -9.2 4 -16 4 C-16.33 3.34 -16.66 2.68 -17 2 C-12.545 1.505 -12.545 1.505 -8 1 C-8 1.66 -8 2.32 -8 3 C-3.66770285 2.1395861 -3.66770285 2.1395861 0 0 Z " fill="#E3FBFE" transform="translate(42,53)"/>
<path d="M0 0 C3.3 0 6.6 0 10 0 C10 0.33 10 0.66 10 1 C7.36 1.33 4.72 1.66 2 2 C5.63 2.33 9.26 2.66 13 3 C13 3.33 13 3.66 13 4 C10.69 4.33 8.38 4.66 6 5 C6 5.66 6 6.32 6 7 C2.73045798 6.43628586 1.17424117 5.50037734 -1 3 C-0.67 2.01 -0.34 1.02 0 0 Z " fill="#5F88AF" transform="translate(20,51)"/>
<path d="M0 0 C1.32 0.33 2.64 0.66 4 1 C4.33 2.32 4.66 3.64 5 5 C2.69 5.66 0.38 6.32 -2 7 C-2.66 6.34 -3.32 5.68 -4 5 C-2.68 3.35 -1.36 1.7 0 0 Z " fill="#FCFCFA" transform="translate(62,49)"/>
<path d="M0 0 C1.65 0 3.3 0 5 0 C5 2.31 5 4.62 5 7 C3.68 7.33 2.36 7.66 1 8 C-1.125 3.375 -1.125 3.375 0 0 Z " fill="#085EB0" transform="translate(47,54)"/>
<path d="M0 0 C1.98 0.66 3.96 1.32 6 2 C5.67 2.99 5.34 3.98 5 5 C4.01 5 3.02 5 2 5 C2 5.99 2 6.98 2 8 C1.01 7.67 0.02 7.34 -1 7 C-0.67 4.69 -0.34 2.38 0 0 Z " fill="#175DA2" transform="translate(14,49)"/>
<path d="M0 0 C0.66 0.99 1.32 1.98 2 3 C-1.96 3 -5.92 3 -10 3 C-10 2.34 -10 1.68 -10 1 C-3.36641221 -1.5629771 -3.36641221 -1.5629771 0 0 Z " fill="#D6F3FD" transform="translate(79,40)"/>
<path d="M0 0 C0.99 0 1.98 0 3 0 C3 2.97 3 5.94 3 9 C2.34 9 1.68 9 1 9 C1 7.68 1 6.36 1 5 C-0.32 4.67 -1.64 4.34 -3 4 C-1.6875 2 -1.6875 2 0 0 Z " fill="#115BA7" transform="translate(83,49)"/>
<path d="M0 0 C3.63 0 7.26 0 11 0 C8.95238679 5.11903304 8.56484257 5.71757872 4 8 C4 7.01 4 6.02 4 5 C4.66 5 5.32 5 6 5 C6 4.34 6 3.68 6 3 C6.66 2.67 7.32 2.34 8 2 C5.36 1.67 2.72 1.34 0 1 C0 0.67 0 0.34 0 0 Z " fill="#4979A7" transform="translate(70,51)"/>
<path d="M0 0 C1.485 0.99 1.485 0.99 3 2 C3.22265625 4.96875 3.22265625 4.96875 3.0625 8.5 C2.87100068 11.93698864 2.87100068 11.93698864 3 15 C3.66 15.66 4.32 16.32 5 17 C4.01 17 3.02 17 2 17 C1.67 17.99 1.34 18.98 1 20 C-0.14982602 15.90996141 -0.11094256 11.96822949 -0.0625 7.75 C-0.05798828 7.00492188 -0.05347656 6.25984375 -0.04882812 5.4921875 C-0.03709246 3.6614236 -0.0191585 1.83070127 0 0 Z " fill="#135BA2" transform="translate(51,42)"/>
<path d="M0 0 C4.455 0.99 4.455 0.99 9 2 C9 2.66 9 3.32 9 4 C5.37 4 1.74 4 -2 4 C-1.34 2.68 -0.68 1.36 0 0 Z " fill="#DCF7FD" transform="translate(21,39)"/>
<path d="M0 0 C1.32 0 2.64 0 4 0 C3.5205537 4.21912747 2.83374881 6.79663178 0 10 C0.33 7.69 0.66 5.38 1 3 C0.01 2.67 -0.98 2.34 -2 2 C-1.34 1.34 -0.68 0.68 0 0 Z " fill="#CFE8F9" transform="translate(80,54)"/>
<path d="M0 0 C0.99 0 1.98 0 3 0 C3 2.31 3 4.62 3 7 C-0.4019487 9.09350689 -3.05272412 9.17942163 -7 9 C-7 8.67 -7 8.34 -7 8 C-4.69 7.34 -2.38 6.68 0 6 C0 4.02 0 2.04 0 0 Z " fill="#EBFAFD" transform="translate(60,90)"/>
<path d="M0 0 C2.31 0 4.62 0 7 0 C7 1.65 7 3.3 7 5 C6.01 5.33 5.02 5.66 4 6 C2.62437146 4.71034824 1.29233607 3.37310707 0 2 C0 1.34 0 0.68 0 0 Z " fill="#1E5FA5" transform="translate(19,66)"/>
<path d="M0 0 C2.97 0 5.94 0 9 0 C9 0.33 9 0.66 9 1 C6.36 1 3.72 1 1 1 C1 3.31 1 5.62 1 8 C1.99 8.33 2.98 8.66 4 9 C2.02 9.99 2.02 9.99 0 11 C0 7.37 0 3.74 0 0 Z " fill="#D5F3FC" transform="translate(53,65)"/>
<path d="M0 0 C0 3.65923696 -0.75756777 5.13896577 -3 8 C-5.6875 8.3125 -5.6875 8.3125 -8 8 C-8 7.34 -8 6.68 -8 6 C-6.25 4.4921875 -6.25 4.4921875 -4 2.875 C-3.2575 2.33617187 -2.515 1.79734375 -1.75 1.2421875 C-1.1725 0.83226562 -0.595 0.42234375 0 0 Z " fill="#DBF5FC" transform="translate(61,49)"/>
<path d="M0 0 C0.99 0 1.98 0 3 0 C3 0.66 3 1.32 3 2 C3.66 2 4.32 2 5 2 C4.34 4.64 3.68 7.28 3 10 C3.99 10.33 4.98 10.66 6 11 C4.68 11 3.36 11 2 11 C2 7.7 2 4.4 2 1 C1.34 0.67 0.68 0.34 0 0 Z " fill="#B9D8EE" transform="translate(38,87)"/>
<path d="M0 0 C-3.63 1.32 -7.26 2.64 -11 4 C-10.67 2.68 -10.34 1.36 -10 0 C-5.52514869 -2.18770508 -4.61033434 -2.30516717 0 0 Z " fill="#346DA6" transform="translate(73,75)"/>
<path d="M0 0 C0 1.98 0 3.96 0 6 C-1.32 6 -2.64 6 -4 6 C-4.33 5.34 -4.66 4.68 -5 4 C-4.67 3.01 -4.34 2.02 -4 1 C-1 0 -1 0 0 0 Z " fill="#FAFEF8" transform="translate(46,66)"/>
<path d="M0 0 C7.42857143 -0.28571429 7.42857143 -0.28571429 11 2 C10.21625 1.95875 9.4325 1.9175 8.625 1.875 C5.83883881 1.71271266 5.83883881 1.71271266 4 4 C3.01 4 2.02 4 1 4 C0.67 2.68 0.34 1.36 0 0 Z " fill="#4283BE" transform="translate(53,88)"/>
<path d="M0 0 C2.31 0.33 4.62 0.66 7 1 C5.68 1.33 4.36 1.66 3 2 C3.33 3.32 3.66 4.64 4 6 C2.68 6.33 1.36 6.66 0 7 C0 4.69 0 2.38 0 0 Z " fill="#FBFDFA" transform="translate(54,66)"/>
<path d="M0 0 C2 2 2 2 2.1953125 3.9453125 C2.13020833 5.96354167 2.06510417 7.98177083 2 10 C1.7525 9.38125 1.505 8.7625 1.25 8.125 C-0.20628639 5.64931313 -1.37812506 5.04874998 -4 4 C-2.68 2.68 -1.36 1.36 0 0 Z " fill="#B9D9EE" transform="translate(52,6)"/>
<path d="M0 0 C3.465 1.98 3.465 1.98 7 4 C6.01 4.33 5.02 4.66 4 5 C3.34 4.67 2.68 4.34 2 4 C2 4.99 2 5.98 2 7 C2.66 7.33 3.32 7.66 4 8 C2.68 7.67 1.36 7.34 0 7 C-1.125 2.25 -1.125 2.25 0 0 Z " fill="#3471B0" transform="translate(40,72)"/>
<path d="M0 0 C-0.66 1.32 -1.32 2.64 -2 4 C-3.65 4 -5.3 4 -7 4 C-7 3.01 -7 2.02 -7 1 C-4 0 -4 0 0 0 Z " fill="#EDF8FC" transform="translate(62,44)"/>
<path d="M0 0 C1.98 0.99 1.98 0.99 4 2 C3.34 2 2.68 2 2 2 C2.26676204 3.98491642 2.26676204 3.98491642 3 6 C3.99 6.33 4.98 6.66 6 7 C4.68 7.33 3.36 7.66 2 8 C0.74335022 5.09399739 0 3.20395416 0 0 Z " fill="#C7E8F8" transform="translate(65,31)"/>
<path d="M0 0 C2.31 1.98 4.62 3.96 7 6 C5 7 5 7 1.875 6.0625 C0.92625 5.711875 -0.0225 5.36125 -1 5 C-0.34 4.67 0.32 4.34 1 4 C0.67 2.68 0.34 1.36 0 0 Z " fill="#B0D6EF" transform="translate(34,70)"/>
<path d="M0 0 C0.99 0 1.98 0 3 0 C3 1.98 3 3.96 3 6 C1.68 5.67 0.36 5.34 -1 5 C-0.67 3.35 -0.34 1.7 0 0 Z " fill="#63A2D0" transform="translate(34,89)"/>
<path d="M0 0 C3.96 1.98 3.96 1.98 8 4 C6.02 4.99 6.02 4.99 4 6 C2.62437146 4.71034824 1.29233607 3.37310707 0 2 C0 1.34 0 0.68 0 0 Z " fill="#316BA4" transform="translate(68,29)"/>
<path d="M0 0 C2 2 2 2 2 5 C-0.97 4.505 -0.97 4.505 -4 4 C-4 3.34 -4 2.68 -4 2 C-2.68 1.34 -1.36 0.68 0 0 Z " fill="#5992C4" transform="translate(59,91)"/>
<path d="M0 0 C2.97 0 5.94 0 9 0 C9 0.99 9 1.98 9 3 C7.68 3.33 6.36 3.66 5 4 C5 3.01 5 2.02 5 1 C3.35 1 1.7 1 0 1 C0 0.67 0 0.34 0 0 Z " fill="#4777AA" transform="translate(61,87)"/>
<path d="M0 0 C0.66 0.99 1.32 1.98 2 3 C1.67 3.99 1.34 4.98 1 6 C-0.9375 5.625 -0.9375 5.625 -3 5 C-3.33 4.34 -3.66 3.68 -4 3 C-2.68 2.01 -1.36 1.02 0 0 Z " fill="#3370B7" transform="translate(60,71)"/>
<path d="M0 0 C0.66 0 1.32 0 2 0 C2.33 1.65 2.66 3.3 3 5 C0.69 5.33 -1.62 5.66 -4 6 C-2.7260411 3.96166576 -1.38938077 1.96147874 0 0 Z " fill="#D7EEFA" transform="translate(60,19)"/>
<path d="M0 0 C1.98 0.66 3.96 1.32 6 2 C3.35261084 3.4606285 2.10551666 4 -1 4 C-0.67 2.68 -0.34 1.36 0 0 Z " fill="#185D9E" transform="translate(42,93)"/>
</svg>
